<?xml version="1.0" encoding="UTF-8"?>
<svg version="1.1" viewBox="0 0 478 71.426" xmlns="http://www.w3.org/2000/svg">
<path d="m71.691 40.613-31.519 30.549h-40.172l49.972-49.619c18.541-18.364 27.546-21.454 59.242-21.454h125.2l-27.193 26.575h-94.47c-23.662 0-28.694 1.8541-41.143 13.862m131.55-9.6236h-89.791c-23.838 0-27.546 1.8541-38.406 12.626l-27.546 27.546h37.258l8.829-8.8286c5.827-5.8271 8.476-6.4452 20.306-6.4452h64.452zm9.711 40.172 71.25-71.073h-44.233l-71.073 71.073z" fill="#fefefe"/>
<path d="m290.65 71.338v-19.07c0-16.245 12.007-26.664 30.636-26.664h39.642v-4.0613h-70.278v-21.19h66.305c15.716 0 27.105 9.5353 27.105 22.602 0 14.038-10.33 23.132-26.31 23.132h-42.909v4.0614h68.248v21.277h-92.351z" fill="#fefefe"/>
<path d="m386.8 71.25v-21.278h66.218v-4.0613h-66.218v-20.483h66.218v-4.0613h-66.218v-21.278h65.953c15.98 0 25.251 6.7983 25.251 18.717 0 8.8289-3.974 14.656-11.302 16.422l-1.412 0.3532 1.412 0.4414c8.388 2.3839 11.302 9.8002 11.302 15.98 0 12.272-8.829 19.247-24.28 19.247z" fill="#fefefe"/>
<path d="m242.64 70.911c-2.134 0-3.984-0.711-5.406-2.276-1.423-1.565-2.134-3.2719-2.134-5.5481s0.711-3.9834 2.134-5.5483c1.422-1.5649 3.272-2.2762 5.406-2.2762s3.983 0.7113 5.406 2.2762c1.422 1.5649 2.134 3.4143 2.134 5.5483 0 2.1339-0.712 3.9831-2.134 5.5481-1.423 1.423-3.13 2.276-5.406 2.276zm-4.553-12.519c-1.138 1.2804-1.849 2.8453-1.849 4.6947s0.569 3.4141 1.849 4.6951c1.138 1.28 2.703 1.991 4.553 1.991 1.849 0 3.272-0.711 4.552-1.991 1.28-1.281 1.85-2.8457 1.85-4.6951s-0.57-3.4143-1.85-4.6947-2.703-1.9917-4.552-1.9917c-1.85 0-3.272 0.7113-4.553 1.9917zm2.845 5.8328v3.13h-1.422v-8.6783h2.987c1.139 0 1.85 0.1423 2.419 0.5691s0.853 1.1381 0.853 2.1339c0 1.4227-0.569 2.2762-1.564 2.5608l1.707 3.4145h-1.423l-1.707-3.13zm0-4.2679v3.1298h1.992s0.996 0 1.138-0.4268c0.285-0.2845 0.427-0.5691 0.427-1.1381 0-0.5691-0.142-0.9959-0.427-1.1381-0.284-0.2846-0.853-0.2846-1.422-0.2846h-1.565z" fill="#fefefe"/>
</svg>