<?xml version="1.0" encoding="UTF-8" standalone="no"?>
<svg
   xmlns:dc="http://purl.org/dc/elements/1.1/"
   xmlns:cc="http://creativecommons.org/ns#"
   xmlns:rdf="http://www.w3.org/1999/02/22-rdf-syntax-ns#"
   xmlns:svg="http://www.w3.org/2000/svg"
   xmlns="http://www.w3.org/2000/svg"
   xmlns:sodipodi="http://sodipodi.sourceforge.net/DTD/sodipodi-0.dtd"
   xmlns:inkscape="http://www.inkscape.org/namespaces/inkscape"
   width="341.43875mm"
   height="107.29164mm"
   viewBox="0 0 341.43875 107.29164"
   version="1.1"
   id="svg8"
   inkscape:version="1.0 (4035a4fb49, 2020-05-01)"
   sodipodi:docname="Assetto Corsa.svg">
  <defs
     id="defs2" />
  <sodipodi:namedview
     fit-margin-bottom="0"
     fit-margin-right="0"
     fit-margin-left="0"
     fit-margin-top="0"
     id="base"
     pagecolor="#ffffff"
     bordercolor="#666666"
     borderopacity="1.0"
     inkscape:pageopacity="0.0"
     inkscape:pageshadow="2"
     inkscape:zoom="0.3221752"
     inkscape:cx="1723.0648"
     inkscape:cy="-360.34808"
     inkscape:document-units="mm"
     inkscape:current-layer="layer1"
     inkscape:document-rotation="0"
     showgrid="false"
     showguides="false"
     inkscape:window-width="1920"
     inkscape:window-height="986"
     inkscape:window-x="-11"
     inkscape:window-y="-11"
     inkscape:window-maximized="1" />
  <metadata
     id="metadata5">
    <rdf:RDF>
      <cc:Work
         rdf:about="">
        <dc:format>image/svg+xml</dc:format>
        <dc:type
           rdf:resource="http://purl.org/dc/dcmitype/StillImage" />
        <dc:title></dc:title>
      </cc:Work>
    </rdf:RDF>
  </metadata>
  <g
     transform="translate(-1.3787272,-113.29179)"
     inkscape:label="Calque 1"
     inkscape:groupmode="layer"
     id="layer1">
    <path
       id="rect24"
       style="opacity:1;fill:#db0e15;fill-opacity:1;stroke-width:4.13359;stroke-linecap:round;stroke-dashoffset:32.8063;paint-order:stroke fill markers"
       d="M 496.83984,515.08984 344.01758,667.44141 v -53.96875 l -79.73633,79.49218 v 54.42188 h 86.93359 L 497.33594,601.7168 v -86.62696 z"
       transform="scale(0.26458333)"
       sodipodi:nodetypes="ccccccccc" />
    <path
       id="rect24-6-7-5"
       style="opacity:1;fill:#db0e15;fill-opacity:1;stroke-width:4.13359;stroke-linecap:round;stroke-dashoffset:32.8063;paint-order:stroke fill markers"
       d="M 411.33008,428.18945 264.28125,574.78516 v 87.12109 c 0,0 94.2448,-93.95381 147.04883,-146.5957 z"
       transform="scale(0.26458333)" />
    <path
       id="rect24-6-7"
       style="opacity:1;fill:#21211f;fill-opacity:1;stroke-width:4.13359;stroke-linecap:round;stroke-dashoffset:32.8063;paint-order:stroke fill markers"
       d="M 238.23828,514.27148 5.2109375,746.58008 v 87.12109 c 0,0 102.2438525,-101.92802 153.3652325,-152.89258 v 86.62696 l 79.66211,-79.41602 z"
       transform="scale(0.26458333)"
       sodipodi:nodetypes="ccccccc" />
    <path
       sodipodi:nodetypes="ccccccccccccc"
       d="m 133.16704,191.09888 v 6.65963 h 6.23944 v -29.94656 h -7.27493 l -12.45248,29.94656 h 6.47667 l 2.7217,-6.65963 z m -2.63885,-5.11706 3.02381,-8.06852 v 8.06852 z"
       style="font-style:italic;font-variant:normal;font-weight:900;font-stretch:condensed;font-size:44.4311px;line-height:1.25;font-family:'Myriad Pro';-inkscape-font-specification:'Myriad Pro Heavy Italic Condensed';letter-spacing:-0.941917px;opacity:1;fill:#21211f;fill-opacity:1;stroke:none;stroke-width:1.10565"
       id="path13" />
    <path
       d="m 153.95182,167.54533 c -6.22472,0 -10.43415,3.9986 -10.43415,9.95236 0,2.53258 1.11936,4.93203 3.5376,7.19801 1.88086,1.77725 2.95582,2.71035 2.95582,4.53202 0,2.04383 -1.7464,3.11039 -3.85116,3.02153 -1.61215,0 -3.1795,-0.44455 -4.20949,-1.02216 v 6.31537 c 1.02559,0.26202 2.46408,0.48266 4.38814,0.48266 5.77692,0 10.3003,-3.55432 10.3003,-10.08569 0,-2.22155 -0.98557,-4.84315 -3.62771,-7.10913 -2.59738,-2.22155 -2.9105,-3.11015 -2.9105,-4.22093 0,-2.04383 1.52241,-3.28817 3.62719,-3.28817 1.34346,0 2.32893,0.35564 3.22457,0.79995 0.41938,-1.32839 0.80311,-4.1559 1.02294,-5.98878 -0.83893,-0.31901 -2.13586,-0.58704 -4.02355,-0.58704 z"
       style="font-style:italic;font-variant:normal;font-weight:900;font-stretch:condensed;font-size:44.4311px;line-height:1.25;font-family:'Myriad Pro';-inkscape-font-specification:'Myriad Pro Heavy Italic Condensed';letter-spacing:-0.941917px;opacity:1;fill:#21211f;fill-opacity:1;stroke:none;stroke-width:1.11515"
       id="path15" />
    <path
       d="m 189.36323,179.4529 h -6.35365 l 1.24407,-5.8649 h 6.48694 l 1.15521,-5.77605 h -13.19604 l -5.73161,29.94656 h 13.68478 l 1.15521,-5.82047 h -7.19784 l 1.4218,-6.97568 h 6.26478 z"
       style="font-style:italic;font-variant:normal;font-weight:900;font-stretch:condensed;font-size:44.4311px;line-height:1.25;font-family:'Myriad Pro';-inkscape-font-specification:'Myriad Pro Heavy Italic Condensed';letter-spacing:-0.941917px;opacity:1;fill:#21211f;fill-opacity:1;stroke:none;stroke-width:1.11077"
       id="path19" />
    <path
       transform="scale(0.26458333)"
       d="m 731.83203,634.25 -4.20898,21.83008 h 19.48437 l -17.625,91.35351 h 24.85352 l 17.66601,-91.35351 h 18.39649 0.86914 L 795.47852,634.25 Z"
       style="font-style:italic;font-variant:normal;font-weight:900;font-stretch:condensed;font-size:44.4311px;line-height:1.25;font-family:'Myriad Pro';-inkscape-font-specification:'Myriad Pro Heavy Italic Condensed';letter-spacing:-0.941917px;opacity:1;fill:#21211f;fill-opacity:1;stroke:none;stroke-width:4.19819"
       id="path21" />
    <path
       d="m 238.8183,167.4565 c -2.8177,0 -5.02849,1.11078 -6.80582,2.88803 -4.07482,4.04323 -6.06888,11.59651 -6.06888,17.8613 0,3.2879 0.99704,9.90813 7.6728,9.90813 2.77435,0 4.98516,-1.02191 6.89253,-2.97688 3.90142,-3.9988 5.89548,-11.55209 5.89548,-18.21675 0,-3.46563 -0.91033,-9.46383 -7.58611,-9.46383 z m -0.82362,5.73162 c 1.56056,0 1.82065,1.8661 1.82065,3.02131 0,3.19904 -1.17043,12.75173 -3.81473,15.46202 -0.43349,0.44431 -0.95367,0.7109 -1.43052,0.7109 -1.82066,0 -2.0374,-2.04383 -2.0374,-3.33233 0,-4.44311 1.38717,-12.52957 3.85807,-15.06214 0.52019,-0.53318 1.04038,-0.79976 1.60393,-0.79976 z"
       style="font-style:italic;font-variant:normal;font-weight:900;font-stretch:condensed;font-size:44.4311px;line-height:1.25;font-family:'Myriad Pro';-inkscape-font-specification:'Myriad Pro Heavy Italic Condensed';letter-spacing:-0.941917px;opacity:1;fill:#21211f;fill-opacity:1;stroke:none;stroke-width:1.09716"
       id="path25" />
    <path
       sodipodi:nodetypes="scssccsscsccs"
       transform="scale(0.26458333)"
       d="m 1011.2598,633.24219 c -12.40542,0 -25.14635,4.36571 -35.03714,14.4414 -12.23777,12.42671 -21.625,32.74737 -21.625,62.47071 0,10.74742 3.52133,38.28711 34.36718,38.28711 5.68318,0 10.03857,-0.44505 13.45316,-1.32032 l 3.9208,-23.37923 c -3.1261,1.2704 -8.29726,2.17143 -11.8805,1.88545 -9.85941,-0.78689 -13.37236,-7.91749 -13.37236,-20.68004 0,-17.80045 5.02843,-31.40247 11.5664,-40.13477 4.19101,-5.54162 10.40026,-8.82621 15.25586,-9.06836 5.5864,-0.2786 8.8132,1.16508 10.8809,2.22852 l 4.5879,-22.88086 c -2.5236,-0.89718 -7.4578,-1.84961 -12.1172,-1.84961 z"
       style="font-style:italic;font-variant:normal;font-weight:900;font-stretch:condensed;font-size:44.4311px;line-height:1.25;font-family:'Myriad Pro';-inkscape-font-specification:'Myriad Pro Heavy Italic Condensed';letter-spacing:-0.941917px;opacity:1;fill:#21211f;fill-opacity:1;stroke:none;stroke-width:4.1946"
       id="path27" />
    <path
       transform="scale(0.26458333)"
       d="m 1136.6953,633.74609 c -7.8148,0 -16.2822,0.8402 -23.7715,2.1836 l -20.6758,111.5039 h 23.4454 l 7.8144,-43.49414 h 2.6055 c 4.5116,0 6.5592,2.18605 6.6719,5.98633 v 37.50781 h 1.7929 9.3184 12.9863 v -13.26367 -8.41601 -9.89063 c 0.086,-11.34349 -0.6416,-15.71304 -6.9316,-20.48828 v -0.50195 c 12.0479,-4.19823 20.6074,-18.3636 20.6074,-33.92188 0,-7.72471 -2.9289,-14.44253 -7.6504,-19.14453 -6.3496,-6.38128 -16.4443,-8.06055 -26.2129,-8.06055 z m 1.2656,20.42969 c 5.7989,0 7.4336,5.84343 7.4336,10.15039 0,9.22915 -4.9079,19.22852 -13.2343,19.22852 h -3.7168 l 5.0566,-28.91797 c 1.0408,-0.30803 2.6767,-0.46094 4.4609,-0.46094 z"
       style="font-style:italic;font-variant:normal;font-weight:900;font-stretch:condensed;font-size:44.4311px;line-height:1.25;font-family:'Myriad Pro';-inkscape-font-specification:'Myriad Pro Heavy Italic Condensed';letter-spacing:-0.941917px;opacity:1;fill:#21211f;fill-opacity:1;stroke:none;stroke-width:4.13371"
       id="path31" />
    <path
       id="path15-7"
       style="font-style:italic;font-variant:normal;font-weight:900;font-stretch:condensed;font-size:44.4311px;line-height:1.25;font-family:'Myriad Pro';-inkscape-font-specification:'Myriad Pro Heavy Italic Condensed';letter-spacing:-0.941917px;opacity:1;fill:#21211f;fill-opacity:1;stroke:none;stroke-width:1.11515"
       d="m 169.84861,167.54533 c -6.22472,0 -10.43415,3.9986 -10.43415,9.95236 0,2.53258 1.11936,4.93203 3.5376,7.19801 1.88086,1.77725 2.95582,2.71035 2.95582,4.53202 0,2.04383 -1.7464,3.11039 -3.85116,3.02153 -1.61215,0 -3.1795,-0.44455 -4.20949,-1.02216 v 6.31537 c 1.02559,0.26202 2.46408,0.48266 4.38814,0.48266 5.77692,0 10.3003,-3.55432 10.3003,-10.08569 0,-2.22155 -0.98557,-4.84315 -3.62771,-7.10913 -2.59738,-2.22155 -2.9105,-3.11015 -2.9105,-4.22093 0,-2.04383 1.52241,-3.28817 3.62719,-3.28817 1.34346,0 2.32893,0.35564 3.22457,0.79995 0.41938,-1.32839 0.80311,-4.1559 1.02294,-5.98878 -0.83893,-0.31901 -2.13586,-0.58704 -4.02355,-0.58704 z" />
    <path
       id="path21-2"
       style="font-style:italic;font-variant:normal;font-weight:900;font-stretch:condensed;font-size:44.4311px;line-height:1.25;font-family:'Myriad Pro';-inkscape-font-specification:'Myriad Pro Heavy Italic Condensed';letter-spacing:-0.941917px;opacity:1;fill:#21211f;fill-opacity:1;stroke:none;stroke-width:1.11077"
       d="m 211.64651,167.81197 -1.11362,5.77588 h 5.15524 l -4.66328,24.17062 h 6.57582 l 4.67414,-24.17062 h 4.8674 0.22996 l 1.11414,-5.77588 z" />
    <path
       id="path25-0"
       style="font-style:italic;font-variant:normal;font-weight:900;font-stretch:condensed;font-size:44.4311px;line-height:1.25;font-family:'Myriad Pro';-inkscape-font-specification:'Myriad Pro Heavy Italic Condensed';letter-spacing:-0.941917px;opacity:1;fill:#21211f;fill-opacity:1;stroke:none;stroke-width:1.09716"
       d="m 282.11709,167.4565 c -2.8177,0 -5.02849,1.11078 -6.80582,2.88803 -4.07482,4.04323 -6.06888,11.59651 -6.06888,17.8613 0,3.2879 0.99704,9.90813 7.6728,9.90813 2.77435,0 4.98516,-1.02191 6.89253,-2.97688 3.90142,-3.9988 5.89548,-11.55209 5.89548,-18.21675 0,-3.46563 -0.91033,-9.46383 -7.58611,-9.46383 z m -0.82362,5.73162 c 1.56056,0 1.82065,1.8661 1.82065,3.02131 0,3.19904 -1.17043,12.75173 -3.81473,15.46202 -0.43349,0.44431 -0.95367,0.7109 -1.43052,0.7109 -1.82066,0 -2.0374,-2.04383 -2.0374,-3.33233 0,-4.44311 1.38717,-12.52957 3.85807,-15.06214 0.52019,-0.53318 1.04038,-0.79976 1.60393,-0.79976 z" />
    <path
       d="m 321.42869,167.54533 c -6.22472,0 -10.43415,3.9986 -10.43415,9.95236 0,2.53258 1.11936,4.93203 3.5376,7.19801 1.88086,1.77725 2.95582,2.71035 2.95582,4.53202 0,2.04383 -1.7464,3.11039 -3.85116,3.02153 -1.61215,0 -3.1795,-0.44455 -4.20949,-1.02216 v 6.31537 c 1.02559,0.26202 2.46408,0.48266 4.38814,0.48266 5.77692,0 10.3003,-3.55432 10.3003,-10.08569 0,-2.22155 -0.98557,-4.84315 -3.62771,-7.10913 -2.59738,-2.22155 -2.9105,-3.11015 -2.9105,-4.22093 0,-2.04383 1.52241,-3.28817 3.62719,-3.28817 1.34346,0 2.32893,0.35564 3.22457,0.79995 0.41938,-1.32839 0.80311,-4.1559 1.02294,-5.98878 -0.83893,-0.31901 -2.13586,-0.58704 -4.02355,-0.58704 z"
       style="font-style:italic;font-variant:normal;font-weight:900;font-stretch:condensed;font-size:44.4311px;line-height:1.25;font-family:'Myriad Pro';-inkscape-font-specification:'Myriad Pro Heavy Italic Condensed';letter-spacing:-0.941917px;opacity:1;fill:#21211f;fill-opacity:1;stroke:none;stroke-width:1.11515"
       id="path15-7-5" />
    <path
       id="path13-4"
       style="font-style:italic;font-variant:normal;font-weight:900;font-stretch:condensed;font-size:44.4311px;line-height:1.25;font-family:'Myriad Pro';-inkscape-font-specification:'Myriad Pro Heavy Italic Condensed';letter-spacing:-0.941917px;opacity:1;fill:#21211f;fill-opacity:1;stroke:none;stroke-width:1.10565"
       d="m 336.57805,191.09888 v 6.65963 h 6.23944 v -29.94656 h -7.27493 l -12.45248,29.94656 h 6.47667 l 2.7217,-6.65963 z m -2.63885,-5.11706 3.02381,-8.06852 v 8.06852 z"
       sodipodi:nodetypes="ccccccccccccc" />
  </g>
</svg>
