<?xml version="1.0" encoding="utf-8"?>
<!-- Generator: Adobe Illustrator 24.3.0, SVG Export Plug-In . SVG Version: 6.00 Build 0)  -->
<svg version="1.0" id="katman_1" xmlns="http://www.w3.org/2000/svg" xmlns:xlink="http://www.w3.org/1999/xlink" x="0px" y="0px"
	 viewBox="0 0 648 450" style="enable-background:new 0 0 648 450;" xml:space="preserve">
<style type="text/css">
	.st0{fill:none;stroke:#1D1D1B;stroke-width:5;}
	.st1{fill-rule:evenodd;clip-rule:evenodd;fill:#1E202F;}
</style>
<path class="st0" d="M569.74,235.29h-0.37h-85.85h-1.65l-0.65,1.52l-7.75,18.23l-1.48,3.48h3.78h83.91c5.4,0,9.08,5.56,6.95,10.58v0
	l-4.42,10.39H436.24l18.05-42.47c0,0,0,0,0,0c5.94-13.96,19.59-23.01,34.69-23.01h72.57h1.65l0.65-1.52l7.61-17.9l1.48-3.48h-3.78
	h-95.35l8.77-20.63h99.29c12.62,0,21.16,12.96,16.2,24.65l-12.5,29.41v0C582.84,230.96,576.64,235.15,569.74,235.29z"/>
<path class="st1" d="M70.5,171.1c-6.09,0-11.59,3.6-14,9.15l-9.88,23.06c-2.14,5,1.55,10.54,7.01,10.54H85.8
	c1.53,0,2.91-0.91,3.5-2.3l3.2-7.44H58.65l9.05-21.09l-4.91-2.31h37.25c1.53,0,2.91-0.91,3.5-2.3l3.14-7.31L70.5,171.1z
	 M153.49,204.64c-2.39,5.59-7.9,9.21-14.01,9.21h-34c-5.46,0-9.14-5.55-7-10.55l9.88-23.01c2.39-5.58,7.9-9.2,14-9.2h34
	c5.46,0,9.14,5.55,7,10.55L153.49,204.64z M142.36,201.81l9.05-21.1h-36.55l4.68,2.31l-9.05,21.09h28.38
	C140.39,204.11,141.76,203.21,142.36,201.81L142.36,201.81z M183.29,277.49h-7.23l14.24-33.15c-0.56,0-15.75,0-15.75,0l4.16-9.61
	h43.73l-2.89,6.81c-0.69,1.63-2.66,2.8-4.58,2.8h-12.44l-12.23,28.54C189.11,275.68,186.35,277.49,183.29,277.49z M326.41,265.6
	h-3.85l-10.46-0.01l-5.2,11.9h-12.02l18.41-42.75h11.99l-8.67,20.18l28.47-19.51c0.64-0.44,1.39-0.67,2.17-0.67h18.02l-31.9,22.04
	l14.4,20.72H334.6L326.41,265.6L326.41,265.6z M303.41,234.73h-12.32l-18.38,42.76h8.97c1.93,0,3.99-1.27,4.68-2.9l10.72-25.06
	L303.41,234.73z M267.37,277.49h-12.84l-5.29-9.74h-22.72l-2.21,5.14c-1.2,2.79-3.96,4.6-7.01,4.6h-7.32l18.37-42.75h40.85
	c5.47,0,9.16,5.55,7.01,10.55l-7.92,18.43c-1.05,2.45-3.47,4.03-6.14,4.03L267.37,277.49L267.37,277.49z M271.39,256.31l-6.8-11.96
	l-33.68,0.03l4.66,2.24l-4.97,11.62h25.53c1.53,0,2.91-0.91,3.51-2.31l4.95-11.59L271.39,256.31z M373.45,252.49h27.62l-2.6,6.03
	c-0.6,1.39-1.98,2.29-3.5,2.29h-25.12l-2.99,6.93h33.74l-3.17,7.44c-0.6,1.4-1.97,2.31-3.5,2.31h-37.78c-2.73,0-4.57-2.78-3.5-5.28
	l14.1-32.88c1.2-2.79,3.95-4.6,7-4.6h41.03l-3.13,7.31c-0.6,1.4-1.98,2.3-3.5,2.3h-36.94l4.76,2.26L373.45,252.49z M173.09,204.11
	l14.04-33h-7.33c-3.05,0-5.8,1.81-7,4.6l-11.88,27.6c-2.15,5,1.54,10.55,7,10.55h31.18c6.12,0,11.64-3.63,14.03-9.23l14.32-33.52
	l-7.25-0.01c-3.06,0-5.82,1.81-7.02,4.61l-11.16,26.08c-0.59,1.4-1.98,2.32-3.51,2.32L173.09,204.11z M298.77,213.86h-7.23
	l14.25-33.15c-0.56,0-15.75,0-15.75,0l4.16-9.61h43.73l-2.89,6.81c-0.69,1.63-2.66,2.8-4.58,2.8h-12.44l-12.23,28.54
	C304.59,212.04,301.83,213.86,298.77,213.86z M436.91,213.85L436.91,213.85L436.91,213.85L436.91,213.85z M431.68,204.11l5.23,9.74
	h-12.84l-5.3-9.74h-22.72l-2.21,5.14c-1.2,2.79-3.96,4.6-7.01,4.6h-7.33l18.37-42.75h40.85c5.47,0,9.16,5.55,7.01,10.55l-7.92,18.43
	C436.78,202.53,434.36,204.11,431.68,204.11z M434.13,180.71l6.8,11.96L434.13,180.71l-4.95,11.59c-0.6,1.4-1.98,2.31-3.51,2.31
	h-25.53l4.96-11.62l-4.66-2.24L434.13,180.71z M376.65,188.86h-27.69l2.53-5.89l-4.77-2.26h37.02c1.53,0,2.91-0.91,3.51-2.3
	l3.14-7.31h-41.13c-3.06,0-5.82,1.81-7.02,4.6l-14.14,32.88c-1.07,2.5,0.77,5.27,3.51,5.27h37.87c1.53,0,2.91-0.91,3.51-2.31
	l3.18-7.44h-33.82l3-6.93h25.18c1.52,0,2.9-0.9,3.51-2.29L376.65,188.86z M231.65,209.25c-1.2,2.79-3.96,4.6-7.01,4.6h-7.33
	l18.38-42.75l9.18-0.01c1.41,0,2.71,0.77,3.37,2.02l14.66,27.55l10.78-24.96c1.2-2.78,3.95-4.59,7-4.59l7.44-0.01l-17.41,40.45
	c-0.6,1.39-1.98,2.3-3.51,2.3h-7.8c-1.41,0-2.71-0.77-3.37-2.01l-14.12-26.47L231.65,209.25L231.65,209.25z M146.33,267.75
	l2.94-6.84l0,0l-22.88,0h-2.8c-5.46,0-9.15-5.54-7.02-10.53l1.14-2.67l1.6-3.74c2.39-5.6,7.91-9.24,14.04-9.24h39.16l-3.13,7.31
	c-0.6,1.4-1.98,2.31-3.51,2.31h-40.47l4.79,2.31l-1.88,4.4h25.65c5.47,0,9.16,5.55,7.01,10.55l-2.87,6.68
	c-2.4,5.58-7.92,9.2-14.02,9.2h-39.17l3.22-7.45c0.6-1.39,1.98-2.29,3.5-2.29H146.33z"/>
</svg>
