<?xml version="1.0" encoding="UTF-8"?>
<svg version="1.1" xmlns="http://www.w3.org/2000/svg" width="661" height="966">
<path d="M0 0 C218.13 0 436.26 0 661 0 C661 271.10492144 661 271.10492144 596 434 C595.46793945 435.10794922 594.93587891 436.21589844 594.38769531 437.35742188 C586.32907483 454.03267464 577.60423652 470.16694873 568 486 C567.15840332 487.39436279 567.15840332 487.39436279 566.29980469 488.81689453 C559.2422695 500.48046473 551.90135117 511.89048085 544 523 C543.47905762 523.73347656 542.95811523 524.46695313 542.42138672 525.22265625 C531.93738812 539.94446954 520.94990223 554.18002998 509.50146484 568.16210938 C508.15803439 569.80655563 506.82261569 571.45753952 505.48828125 573.109375 C501.17394351 578.44017975 496.72648304 583.60492294 492.109375 588.67578125 C490.25373343 590.72042335 488.43243624 592.78784149 486.625 594.875 C482.36489199 599.75758954 477.98433557 604.52876814 473.58496094 609.28564453 C472.51388142 610.44416584 471.44425615 611.60403307 470.37597656 612.76513672 C462.44698874 621.37368626 454.32639909 629.77470844 446.0625 638.0625 C445.18674316 638.94284912 444.31098633 639.82319824 443.40869141 640.73022461 C438.98237348 645.14599364 434.50284128 649.42639186 429.73803711 653.47631836 C427.90959913 655.07925155 426.20204461 656.7641332 424.5 658.5 C421.53264677 661.51413582 418.42654708 664.29917333 415.22265625 667.05859375 C412.67023117 669.28804061 410.18112486 671.58001382 407.6875 673.875 C403.24749216 677.92521292 398.68065719 681.75534122 394.00390625 685.52734375 C390.5033321 688.40883067 387.0972871 691.38729396 383.6875 694.375 C377.22044057 700.02344431 370.5586222 705.3571591 363.77246094 710.61425781 C361.3251517 712.52760867 358.90960158 714.47922575 356.49243164 716.43041992 C348.14916694 723.16371486 339.61302953 729.61662463 331 736 C323.56215492 731.27529664 316.71650113 725.94003372 309.83496094 720.45556641 C308.04631696 719.03674051 306.24815936 717.63118808 304.4453125 716.23046875 C297.51716008 710.842868 290.74759401 705.30910552 284.07421875 699.609375 C281.29266912 697.23730965 278.46651339 694.92507288 275.625 692.625 C265.60190797 684.45210083 255.89495441 675.922223 246.43334961 667.10717773 C243.56223962 664.43299501 240.66236235 661.80815011 237.6875 659.25 C234.37145232 656.38582465 231.29291904 653.33909472 228.25 650.1875 C226.3718848 648.36155467 224.4607078 646.66666485 222.47265625 644.96484375 C217.40918652 640.56493592 212.68479703 635.83507292 207.9543457 631.0847168 C206.4400742 629.56508332 204.9205257 628.05087483 203.40039062 626.53710938 C198.5884821 621.7281465 193.86982688 616.88143112 189.47094727 611.68530273 C187.88829993 609.87202231 186.21812502 608.18476093 184.5 606.5 C181.46405075 603.51127663 178.65491341 600.38293521 175.875 597.15625 C173.82640906 594.80037042 171.72796998 592.4949254 169.625 590.1875 C165.79963675 585.94423992 162.1490591 581.59140503 158.55859375 577.1484375 C156.67737591 574.82188546 154.76870248 572.52033191 152.84765625 570.2265625 C143.83301238 559.43736212 135.32821091 548.32547013 127 537 C126.1349585 535.82920898 126.1349585 535.82920898 125.25244141 534.63476562 C117.41449935 524.01024962 110.02551891 513.17707005 103 502 C102.47905762 501.1759668 101.95811523 500.35193359 101.42138672 499.50292969 C93.87475214 487.54755432 86.66748146 475.46770993 80 463 C79.53770996 462.13713379 79.07541992 461.27426758 78.59912109 460.38525391 C40.07661329 388.18931525 14.43749356 310.49372809 2 177 C1.94672546 176.01269897 1.89345093 175.02539795 1.83856201 174.00817871 C-1.22593094 116.06801814 0 57.97698097 0 0 Z " fill="#FEFCFC" transform="translate(0,0)"/>
<path d="M0 0 C18.1351371 7.1294623 31.96827937 23.80762271 42 40 C42 40.66 42 41.32 42 42 C43.21623047 41.02160156 43.21623047 41.02160156 44.45703125 40.0234375 C62.30478223 25.85420992 62.30478223 25.85420992 68.57421875 26.1015625 C71.57507039 27.21298903 72.81024647 28.58912799 74.8125 31.0625 C75.41707031 31.79597656 76.02164063 32.52945313 76.64453125 33.28515625 C77.09183594 33.85105469 77.53914062 34.41695312 78 35 C75.02167791 38.55945811 72.08199295 41.96050774 68.6875 45.125 C57.66729879 56.04789259 48.14993057 71.91548584 47.5625 87.5625 C47.65213606 95.39343187 49.88086958 100.45543351 54 107 C54.35916504 107.62068359 54.71833008 108.24136719 55.08837891 108.88085938 C59.50806174 116.95445251 59.50806174 116.95445251 66.7734375 121.953125 C69.68812467 122.00211134 72.16155604 121.64699826 75 121 C76.16015625 120.83951172 76.16015625 120.83951172 77.34375 120.67578125 C82.70717773 119.79761439 87.18057957 117.59705707 91.93359375 115.0234375 C94 114 94 114 96 114 C94.65445663 98.86263712 92.9891206 83.79208407 85.953125 70.1015625 C85 68 85 68 85 65 C86.46875 63.67578125 86.46875 63.67578125 88.5 62.3125 C100.48707218 53.70802314 111.98592078 39.79001666 115 25 C116.258125 25.391875 117.51625 25.78375 118.8125 26.1875 C120.8729421 26.79864808 122.9358511 27.40149107 125 28 C126.0219043 28.29729004 126.0219043 28.29729004 127.06445312 28.60058594 C138.3393254 31.84100198 149.30986752 33.99713332 161 35 C161.93494069 52.32237328 156.59488012 67.28897867 146 81 C143 80 143 80 141.1328125 77.6640625 C135.4262918 70.53613738 126.70145077 66.98189226 118 65 C118.556875 65.87398438 119.11375 66.74796875 119.6875 67.6484375 C127.42335723 80.02069164 135.10696189 93.32895464 137 108 C151.20159229 106.58472104 159.67682488 100.6113513 169 90 C175.85980305 81.52272759 178.02545135 73.33119433 178.5 62.625 C179.27332285 45.39739889 185.14406788 30.92371445 198 19 C200.86593954 16.71329253 203.81451255 14.80944355 207 13 C207.75796875 12.54882812 208.5159375 12.09765625 209.296875 11.6328125 C225.11985501 2.89397714 245.84061569 2.45658225 262.99975586 7.10375977 C273.33393733 10.16696866 273.33393733 10.16696866 277 12 C277 18.27 277 24.54 277 31 C274.751875 30.34 272.50375 29.68 270.1875 29 C263.77858749 27.29692763 257.62742492 26.58870312 251 26.5625 C250.22422607 26.55283203 249.44845215 26.54316406 248.64916992 26.53320312 C242.91538893 26.61691694 236.81739537 27.38858412 232.43383789 31.45166016 C228.81037743 35.70795215 227.52109777 38.66115195 227.59375 44.30078125 C228.9361517 53.22000793 234.80113788 60.76445822 241 67 C244.79000529 65.7366649 245.32015268 64.35536258 247.5 61.0625 C258.20121296 46.04972756 274.2405607 35.71846251 292 31 C293.32 31 294.64 31 296 31 C296.26425781 30.12988281 296.52851562 29.25976562 296.80078125 28.36328125 C300.21645329 18.78382317 307.09833347 6.49758755 316 1 C323.82125176 -0.29302952 330.94454851 4.70723954 337 9 C348.57234811 18.34294771 357.75137463 29.65437528 366 42 C366.80050781 41.45472656 366.80050781 41.45472656 367.6171875 40.8984375 C376.13804054 35.14907299 384.05992072 29.88582947 394 27 C396.31 29.97 398.62 32.94 401 36 C399.22087616 39.55824768 398.34559929 40.79555989 395.5625 43.3125 C383.42423059 55.20800402 371.79863324 71.91323127 370.5625 89.25 C370.98047082 100.44021881 377.8493732 108.88251751 384.25390625 117.47924805 C388.14466122 122.72027793 391.62141515 127.88044836 394 134 C394.35707031 134.85335937 394.71414063 135.70671875 395.08203125 136.5859375 C399.73721888 153.89927361 395.17032665 170.21302173 386.55444336 185.1953125 C384.16058155 189.23876362 381.76557679 193.12304331 378.6640625 196.67578125 C376.77873023 198.79134532 376.77873023 198.79134532 377.125 200.96484375 C377.41375 201.63644531 377.7025 202.30804688 378 203 C378.309375 203.88816406 378.61875 204.77632812 378.9375 205.69140625 C379.288125 206.63886719 379.63875 207.58632812 380 208.5625 C384.254205 220.08951868 384.00171019 229.62230781 379 241 C377.46839903 243.81155078 375.82627228 246.36205116 374 249 C373.12859375 248.6390625 372.2571875 248.278125 371.359375 247.90625 C361.04270961 243.88676998 352.54730453 241.94507611 341.8125 246.125 C329.26534545 251.97269475 319.98835372 259.767296 315 273 C314.40431519 275.72691269 314.15548828 278.201211 314 281 C289.11304527 280.34193149 267.68351747 264.54693856 248 251 C220.91066841 232.1570777 220.91066841 232.1570777 189 228 C184.75519049 229.04714672 182.49236667 230.26144999 180 234 C179.57289262 238.41344292 179.42042019 240.8660395 181.4375 244.8125 C188.17111107 250.56070457 197.80158982 251.09854511 206.3125 251.5625 C207.42334961 251.62727539 207.42334961 251.62727539 208.55664062 251.69335938 C210.37091464 251.79870432 212.1854355 251.89978316 214 252 C213.73445313 252.69222656 213.46890625 253.38445312 213.1953125 254.09765625 C210.2002781 262.39412016 208.90649549 270.26901715 208 279 C198.01180162 279.31135282 189.64101981 276.40472216 182.02734375 269.90625 C172.88196668 261.30712859 167.63201205 252.23152026 166.76171875 239.51953125 C166.52650034 227.77099051 168.45519928 219.12388888 176.07421875 210.00390625 C187.48875124 198.12630957 202.11978253 195.75372554 218 195 C217.1028125 194.78085938 216.205625 194.56171875 215.28125 194.3359375 C204.29700992 191.54448806 193.05471502 188.34554469 183 183 C184.74522938 178.94785821 187.4228157 175.69396039 190.125 172.25 C190.59292969 171.64800781 191.06085938 171.04601562 191.54296875 170.42578125 C192.69225007 168.94813384 193.84571235 167.47373995 195 166 C196.2375 166.4125 197.475 166.825 198.75 167.25 C199.56726563 167.52070313 200.38453125 167.79140625 201.2265625 168.0703125 C203.16303177 168.71943882 205.09503068 169.38198745 207.0234375 170.0546875 C212.34594345 171.89142129 217.3496572 173.58145609 223 174 C223.721875 174.06316406 224.44375 174.12632812 225.1875 174.19140625 C235.41152668 174.69933065 245.98139311 171.4227662 254 165 C257.07548547 162.15517594 258.26150665 160.11357578 258.5625 156 C258.37111599 152.82422161 257.95796968 151.93898824 256.0625 149.1875 C252.21786977 146.44133555 248.53587036 145.1901458 244 144 C243.154375 143.773125 242.30875 143.54625 241.4375 143.3125 C227.74110991 141.55655255 214.72488358 146.25577437 202.07666016 150.92987061 C184.98705336 157.16468395 168.5763729 160.798108 151 154 C151 153.67 151 153.34 151 153 C151.680625 152.93683594 152.36125 152.87367188 153.0625 152.80859375 C169.66589328 150.71109061 184.81760621 142.52698229 195.7578125 129.859375 C197.06878492 127.89703893 197.58129158 126.30800251 198 124 C196.98421875 124.54269531 195.9684375 125.08539063 194.921875 125.64453125 C181.05999444 132.91478383 168.73780121 136.31861882 153 135 C152.01 134.34 151.02 133.68 150 133 C151.0725 132.62875 152.145 132.2575 153.25 131.875 C166.97677774 126.6666127 177.44468224 120.54160797 184 107 C184.66157231 104.81279757 184.66157231 104.81279757 185 103 C184.58492188 103.4125 184.16984375 103.825 183.7421875 104.25 C172.78741686 114.51723273 159.03670925 121.28169489 144.15234375 123.1015625 C143.4620105 123.18962158 142.77167725 123.27768066 142.0604248 123.3684082 C140.37412023 123.58293592 138.68712579 123.79202928 137 124 C137.00645255 124.64991504 137.0129051 125.29983007 137.01955318 125.96943951 C137.17416147 141.78524804 137.28998753 157.60079368 137.3626852 173.41717052 C137.39877614 181.06590606 137.44797716 188.71413711 137.52807617 196.36254883 C137.59785985 203.02916004 137.64301035 209.69540592 137.65861946 216.36237222 C137.66774385 219.89253073 137.68917453 223.42164412 137.7401104 226.95146751 C137.79651944 230.89256712 137.79792839 234.83264554 137.79467773 238.77416992 C137.83242813 240.52852104 137.83242813 240.52852104 137.87094116 242.3183136 C137.8019702 250.02682057 137.8019702 250.02682057 135.4983387 252.82224464 C131.93309673 255.45995515 128.20620148 256.84561298 123.875 257.8125 C122.88242187 258.04582031 121.88984375 258.27914063 120.8671875 258.51953125 C118.17180604 258.97120961 115.72387811 259.03524479 113 259 C113.04189453 259.78648926 113.08378906 260.57297852 113.12695312 261.38330078 C113.29373672 264.96334228 113.39743547 268.54256734 113.5 272.125 C113.56703125 273.3625 113.6340625 274.6 113.703125 275.875 C113.8966725 284.87495861 113.8966725 284.87495861 111.28027344 288.15771484 C109.24406185 289.70276357 107.30149246 290.89699092 105 292 C104.0925 292.45375 103.185 292.9075 102.25 293.375 C100 294 100 294 96 294 C95.505 212.82 95.505 212.82 95 130 C91.04 131.65 87.08 133.3 83 135 C79.203125 135.92578125 79.203125 135.92578125 76.25 136.3125 C75.24453125 136.45300781 74.2390625 136.59351563 73.203125 136.73828125 C72.47609375 136.82464844 71.7490625 136.91101563 71 137 C71.33 137.66 71.66 138.32 72 139 C72.74681066 148.79012294 72.9319083 159.57124945 70 169 C69.5978125 170.31097656 69.5978125 170.31097656 69.1875 171.6484375 C66.28498143 180.28343024 62.34331001 188.29519164 56.5 195.3125 C54.99900638 197.1554367 54.99900638 197.1554367 54 199 C54.29695572 202.06334746 54.29695572 202.06334746 56 205 C60.0201378 214.33586504 60.80964511 225.4229755 57 235 C55.10854063 239.05959498 53.09714461 243.04312338 51 247 C47.87594795 246.45182732 45.59552934 245.80921195 42.6875 244.4375 C34.90399906 241.4540708 24.33521267 241.74048226 16.5625 244.5625 C5.84507176 249.69681236 -3.88526907 258.72094979 -8.32421875 269.84765625 C-9.28605916 272.91109016 -9.72788939 275.80270028 -10 279 C-33.97894966 277.46152757 -53.26418999 264.71600052 -72.64242554 251.49362183 C-98.60067106 233.33556496 -98.60067106 233.33556496 -128.875 226.625 C-129.60154785 226.61065918 -130.3280957 226.59631836 -131.07666016 226.58154297 C-135.97945125 226.62821453 -139.47405969 227.47405969 -143 231 C-143.65981659 236.09001366 -143.89344763 239.80873649 -140.75 244 C-136.5263864 247.07171898 -133.59302964 248.24307226 -128.359375 248.6328125 C-127.28945312 248.71660156 -126.21953125 248.80039062 -125.1171875 248.88671875 C-124.00601563 248.96535156 -122.89484375 249.04398438 -121.75 249.125 C-120.06003906 249.25455078 -120.06003906 249.25455078 -118.3359375 249.38671875 C-115.55776513 249.59861325 -112.77924426 249.80275103 -110 250 C-110.20351074 250.67474365 -110.40702148 251.3494873 -110.61669922 252.04467773 C-110.88498535 252.93614502 -111.15327148 253.8276123 -111.4296875 254.74609375 C-111.69507324 255.6270874 -111.96045898 256.50808105 -112.23388672 257.41577148 C-114.16867666 263.94214226 -115.40272858 270.20996703 -116 277 C-125.39896313 277.70935571 -133.8075531 274.73331702 -141.09375 268.74609375 C-150.38088007 260.23923485 -156.27498017 250.62731249 -157.23828125 237.8359375 C-157.49090119 226.05587092 -155.07690865 216.78410342 -147 208 C-136.66470264 197.53604748 -125.79966957 194.8807844 -111.4375 194.375 C-110.52419922 194.33632812 -109.61089844 194.29765625 -108.66992188 194.2578125 C-106.44680076 194.16469748 -104.22366387 194.07887834 -102 194 C-103.0415625 193.78085938 -104.083125 193.56171875 -105.15625 193.3359375 C-117.67797981 190.60255884 -129.57778631 186.91288174 -141 181 C-137 175.66666667 -133 170.33333333 -129 165 C-123.12344114 165.78831887 -117.96105381 167.76030426 -112.4375 169.84375 C-99.85841202 174.07489778 -87.79756174 172.75813672 -76 167 C-71.77025532 164.79030882 -68.49423429 162.12507979 -66 158 C-65.29799601 153.70997561 -65.62266188 151.67381808 -67.75 147.875 C-73.81690836 141.58839858 -82.24391597 139.67993954 -90.6875 139.4375 C-98.67374667 139.57346056 -106.18738534 141.34189804 -113.86230469 143.42236328 C-116.74714727 144.20189018 -119.64275909 144.93524323 -122.54101562 145.66308594 C-124.50084517 146.15625767 -126.4575747 146.66170232 -128.4140625 147.16796875 C-141.17510283 150.12886373 -153.75127712 149.79932887 -166.5 147.125 C-167.74668457 146.86456909 -167.74668457 146.86456909 -169.01855469 146.59887695 C-171.03103048 146.14140004 -173.01930468 145.57981893 -175 145 C-175.33 144.34 -175.66 143.68 -176 143 C-175.43192627 142.90501221 -174.86385254 142.81002441 -174.27856445 142.7121582 C-163.01570526 140.79384043 -152.44630464 138.77063252 -142 134 C-140.85337891 133.50693359 -140.85337891 133.50693359 -139.68359375 133.00390625 C-133.69163243 130.26374936 -128.67141478 126.50712218 -125 121 C-125.56920166 121.11593506 -126.13840332 121.23187012 -126.72485352 121.35131836 C-129.33698427 121.8821271 -131.94973262 122.40983419 -134.5625 122.9375 C-135.90538086 123.21110352 -135.90538086 123.21110352 -137.27539062 123.49023438 C-145.00952067 125.04839244 -152.47720045 126.19460953 -160.375 126.1875 C-161.49056274 126.1884668 -161.49056274 126.1884668 -162.62866211 126.18945312 C-168.00395268 126.13777329 -172.81748138 125.50764178 -178 124 C-178 123.34 -178 122.68 -178 122 C-177.27296875 121.84144531 -176.5459375 121.68289062 -175.796875 121.51953125 C-161.19748624 118.13172437 -148.38799604 113.03589235 -139 101 C-140.62808594 101.41572266 -140.62808594 101.41572266 -142.2890625 101.83984375 C-143.73434281 102.2058563 -145.17965712 102.5717346 -146.625 102.9375 C-147.69427734 103.21110352 -147.69427734 103.21110352 -148.78515625 103.49023438 C-158.75638188 106.00591057 -168.09904431 107.44381067 -178 104 C-175.18935893 102.12623929 -172.50116542 100.83951638 -169.4375 99.4375 C-158.8688497 94.1467851 -151.52373364 87.01721107 -147 76 C-146.03332226 72.43164636 -145.87513722 68.96503802 -145.76098633 65.27783203 C-145.12401148 46.61722005 -139.56988822 31.19747276 -126 18 C-112.95487278 6.21985481 -96.50876951 2.17841228 -79.30859375 2.7109375 C-68.09132272 3.31426191 -57.5343832 6.18128609 -47 10 C-47 16.27 -47 22.54 -47 29 C-56 27 -56 27 -60 25.875 C-68.10127163 24.10329333 -79.18730012 23.14722863 -86.8125 26.6875 C-90.50852508 29.36892996 -92.9608385 31.921677 -95 36 C-95.87090607 44.67173615 -95.21049388 50.93878426 -90 58 C-89.56945312 58.598125 -89.13890625 59.19625 -88.6953125 59.8125 C-86.40962144 62.76544249 -84.36293494 64.47139321 -81 66 C-80.43152344 65.21496094 -79.86304688 64.42992188 -79.27734375 63.62109375 C-69.45531818 50.25723592 -54.48854798 34.35905802 -37.12109375 31.53125 C-36.19425781 31.3971875 -35.26742187 31.263125 -34.3125 31.125 C-30.37777563 30.19651828 -28.68289768 28.9004225 -26.55859375 25.578125 C-24.56765109 22.09937648 -22.79358611 18.51507793 -21.01123047 14.92626953 C-18.87739064 10.8615674 -16.07325531 7.38578974 -13 4 C-12.49855469 3.44441406 -11.99710938 2.88882813 -11.48046875 2.31640625 C-7.54341536 -1.5167671 -5.14425645 -1.10389435 0 0 Z " fill="#D40925" transform="translate(219,42)"/>
<path d="M0 0 C2.51014435 0.89907921 4.48128574 2.10775353 6.70922852 3.57470703 C7.59634521 4.15188477 8.48346191 4.7290625 9.39746094 5.32373047 C10.34339111 5.9440918 11.28932129 6.56445312 12.26391602 7.20361328 C21.30739301 13.04328081 30.44907249 18.51083879 39.94116211 23.58496094 C42.15934444 24.77709226 44.36224087 25.99443139 46.56469727 27.21533203 C59.66589931 34.39312576 73.28421704 40.20545978 87.13891602 45.76611328 C87.98953613 46.10771484 88.84015625 46.44931641 89.71655273 46.80126953 C129.87755534 62.71584714 171.96883962 70.20549893 215.01391602 71.32861328 C216.58814247 71.37195402 218.16236131 71.41557231 219.73657227 71.45947266 C223.53727367 71.56487318 227.33805708 71.6665624 231.13891602 71.76611328 C224.92971543 85.57822529 217.75100416 98.67830577 210.13891602 111.76611328 C209.64907227 112.6157666 209.15922852 113.46541992 208.65454102 114.34082031 C193.31786015 140.87980894 175.32983311 165.88815439 156.13891602 189.76611328 C155.39383789 190.69423828 154.64875977 191.62236328 153.88110352 192.57861328 C144.82645829 203.74276367 135.43336536 214.58765078 125.64697266 225.11450195 C124.56947095 226.29457303 123.50781436 227.48919143 122.45703125 228.69311523 C115.0379504 237.13526649 107.04530042 245.01033715 99.09130859 252.9440918 C96.57542316 255.45460402 94.06494415 257.97043393 91.55493164 260.48681641 C89.93611164 262.10497577 88.31698156 263.722825 86.69750977 265.34033203 C85.9577037 266.08216232 85.21789764 266.82399261 84.45567322 267.58830261 C80.38946809 271.63648345 76.23536105 275.52075332 71.88290405 279.26023865 C69.30177423 281.48895687 66.82177836 283.81676178 64.32641602 286.14111328 C59.62996948 290.48491541 54.77616647 294.57027755 49.79125977 298.58251953 C47.14623965 300.76008396 44.60679077 303.01930091 42.07641602 305.32861328 C38.15349237 308.8949075 34.12649116 312.25853836 29.96313477 315.53955078 C27.83059381 317.22080714 25.70963265 318.91300005 23.59594727 320.61767578 C15.88992893 326.82750502 8.10454764 332.89201622 0.13891602 338.76611328 C-7.34257894 334.21487052 -13.97835816 328.69227797 -20.72436523 323.14501953 C-24.51124675 320.03509279 -28.36309999 317.01756901 -32.23608398 314.01611328 C-37.17113431 310.17644034 -41.86019707 306.15598732 -46.46264648 301.91845703 C-48.88202264 299.74732306 -51.37842963 297.72521487 -53.92358398 295.70361328 C-59.78639333 290.96826727 -65.22340694 285.81641458 -70.671875 280.61352539 C-71.35693115 279.96005127 -72.0419873 279.30657715 -72.74780273 278.63330078 C-73.34810303 278.05692871 -73.94840332 277.48055664 -74.56689453 276.88671875 C-76.53402717 275.06842418 -78.5363148 273.31731057 -80.56518555 271.5690918 C-85.13682468 267.58214227 -89.42647501 263.34482227 -93.70874023 259.05126953 C-94.52426865 258.23669785 -95.33979706 257.42212616 -96.18003845 256.58287048 C-97.89306407 254.87052135 -99.60484364 253.15692486 -101.31542969 251.44213867 C-103.91611951 248.83609313 -106.52210355 246.23542806 -109.12866211 243.63525391 C-110.80150885 241.96174629 -112.47404532 240.28792846 -114.14624023 238.61376953 C-114.91621841 237.84581558 -115.68619659 237.07786163 -116.47950745 236.28663635 C-120.60640636 232.14202506 -124.57484237 227.91539007 -128.38673401 223.47857666 C-130.44736616 221.08514419 -132.59314932 218.77332202 -134.73608398 216.45361328 C-138.75488991 212.04258155 -142.58973722 207.52875971 -146.33374023 202.88330078 C-148.21156315 200.55373386 -150.12132515 198.25353932 -152.04467773 195.96142578 C-160.76602685 185.54075971 -168.92905634 174.7972091 -176.86108398 163.76611328 C-177.63814697 162.69127686 -177.63814697 162.69127686 -178.4309082 161.59472656 C-197.42814164 135.27443494 -213.80308479 107.49707977 -228.86108398 78.76611328 C-229.2488501 78.0585791 -229.63661621 77.35104492 -230.03613281 76.62207031 C-230.86108398 74.76611328 -230.86108398 74.76611328 -230.86108398 71.76611328 C-229.7257019 71.69880005 -229.7257019 71.69880005 -228.56738281 71.63012695 C-150.55897205 66.92348079 -66.41620516 52.50292542 -4.20874023 1.21533203 C-1.86108398 -0.23388672 -1.86108398 -0.23388672 0 0 Z " fill="#FDDB00" transform="translate(330.861083984375,348.23388671875)"/>
<path d="M0 0 C218.13 0 436.26 0 661 0 C661 271.10492144 661 271.10492144 596 434 C595.46793945 435.10794922 594.93587891 436.21589844 594.38769531 437.35742188 C586.32907483 454.03267464 577.60423652 470.16694873 568 486 C567.15840332 487.39436279 567.15840332 487.39436279 566.29980469 488.81689453 C559.2422695 500.48046473 551.90135117 511.89048085 544 523 C543.47905762 523.73347656 542.95811523 524.46695313 542.42138672 525.22265625 C531.93738812 539.94446954 520.94990223 554.18002998 509.50146484 568.16210938 C508.15803439 569.80655563 506.82261569 571.45753952 505.48828125 573.109375 C501.17394351 578.44017975 496.72648304 583.60492294 492.109375 588.67578125 C490.25373343 590.72042335 488.43243624 592.78784149 486.625 594.875 C482.36489199 599.75758954 477.98433557 604.52876814 473.58496094 609.28564453 C472.51388142 610.44416584 471.44425615 611.60403307 470.37597656 612.76513672 C462.44698874 621.37368626 454.32639909 629.77470844 446.0625 638.0625 C445.18674316 638.94284912 444.31098633 639.82319824 443.40869141 640.73022461 C438.98237348 645.14599364 434.50284128 649.42639186 429.73803711 653.47631836 C427.90959913 655.07925155 426.20204461 656.7641332 424.5 658.5 C421.53264677 661.51413582 418.42654708 664.29917333 415.22265625 667.05859375 C412.67023117 669.28804061 410.18112486 671.58001382 407.6875 673.875 C403.24749216 677.92521292 398.68065719 681.75534122 394.00390625 685.52734375 C390.5033321 688.40883067 387.0972871 691.38729396 383.6875 694.375 C377.22044057 700.02344431 370.5586222 705.3571591 363.77246094 710.61425781 C361.3251517 712.52760867 358.90960158 714.47922575 356.49243164 716.43041992 C348.14916694 723.16371486 339.61302953 729.61662463 331 736 C323.56215492 731.27529664 316.71650113 725.94003372 309.83496094 720.45556641 C308.04631696 719.03674051 306.24815936 717.63118808 304.4453125 716.23046875 C297.51716008 710.842868 290.74759401 705.30910552 284.07421875 699.609375 C281.29266912 697.23730965 278.46651339 694.92507288 275.625 692.625 C265.60190797 684.45210083 255.89495441 675.922223 246.43334961 667.10717773 C243.56223962 664.43299501 240.66236235 661.80815011 237.6875 659.25 C234.37145232 656.38582465 231.29291904 653.33909472 228.25 650.1875 C226.3718848 648.36155467 224.4607078 646.66666485 222.47265625 644.96484375 C217.40918652 640.56493592 212.68479703 635.83507292 207.9543457 631.0847168 C206.4400742 629.56508332 204.9205257 628.05087483 203.40039062 626.53710938 C198.5884821 621.7281465 193.86982688 616.88143112 189.47094727 611.68530273 C187.88829993 609.87202231 186.21812502 608.18476093 184.5 606.5 C181.46405075 603.51127663 178.65491341 600.38293521 175.875 597.15625 C173.82640906 594.80037042 171.72796998 592.4949254 169.625 590.1875 C165.79963675 585.94423992 162.1490591 581.59140503 158.55859375 577.1484375 C156.67737591 574.82188546 154.76870248 572.52033191 152.84765625 570.2265625 C143.83301238 559.43736212 135.32821091 548.32547013 127 537 C126.1349585 535.82920898 126.1349585 535.82920898 125.25244141 534.63476562 C117.41449935 524.01024962 110.02551891 513.17707005 103 502 C102.47905762 501.1759668 101.95811523 500.35193359 101.42138672 499.50292969 C93.87475214 487.54755432 86.66748146 475.46770993 80 463 C79.53770996 462.13713379 79.07541992 461.27426758 78.59912109 460.38525391 C40.07661329 388.18931525 14.43749356 310.49372809 2 177 C1.94672546 176.01269897 1.89345093 175.02539795 1.83856201 174.00817871 C-1.22593094 116.06801814 0 57.97698097 0 0 Z M14 13 C12.03792792 137.76998036 12.03792792 137.76998036 24 262 C24.22143856 263.32387912 24.44278879 264.64777301 24.6640625 265.97167969 C29.1773701 292.7963587 35.56727937 318.62968989 44.159729 344.43861389 C45.45082925 348.31991069 46.70576271 352.2103211 47.9296875 356.11328125 C59.99021387 394.18721594 77.22280598 431.35263781 97 466 C97.45165527 466.79809082 97.90331055 467.59618164 98.36865234 468.41845703 C112.13548859 492.58241218 128.07016416 515.95125353 145 538 C145.87277588 539.1444458 145.87277588 539.1444458 146.76318359 540.31201172 C153.46179714 549.08396265 160.30501378 557.69656603 167.5 566.06640625 C169.82624575 568.79611025 172.07426153 571.57308751 174.3125 574.375 C179.18654981 580.37315499 184.48403627 585.94888736 189.78515625 591.56640625 C192.11006283 594.0345881 194.36936139 596.5380809 196.5625 599.125 C200.22184966 603.38958561 204.25172404 607.27937579 208.24682617 611.2253418 C211.08422757 614.03990369 213.81992587 616.85949619 216.375 619.9375 C220.30938246 624.57830525 224.83800631 628.59430475 229.30444336 632.7109375 C233.09981536 636.21218582 236.81152376 639.76100706 240.4375 643.4375 C243.75887864 646.79699282 247.16038774 649.96271049 250.75 653.03125 C253.08874719 655.07765379 255.36040514 657.18377784 257.63110352 659.30493164 C262.95847564 664.27956938 268.37894597 669.03282964 274.06640625 673.59765625 C277.54903414 676.44960852 280.92777912 679.40824185 284.3125 682.375 C289.63519834 687.0248759 295.05757668 691.49375326 300.64404297 695.82226562 C305.97516756 699.95482708 311.20159491 704.20961813 316.40795898 708.49804688 C318.25978184 710.01471001 320.12536447 711.51165602 322 713 C322.62277832 713.5043457 323.24555664 714.00869141 323.88720703 714.52832031 C327.07189326 717.23466973 327.07189326 717.23466973 330.99902344 717.76782227 C334.46660082 716.43723041 337.26587687 714.05649105 340.1875 711.8125 C340.88512451 711.28293701 341.58274902 710.75337402 342.30151367 710.20776367 C349.73846584 704.51629476 356.94406516 698.54770491 364.13427734 692.54980469 C366.61348108 690.49039807 369.11920064 688.46441326 371.625 686.4375 C381.26063907 678.561795 390.60142197 670.32229697 399.8203125 661.96484375 C401.7983952 660.18173336 403.798558 658.42985231 405.8125 656.6875 C414.61287094 649.00491811 423.11353012 641.03143572 431.26953125 632.66796875 C433.40649498 630.57991979 435.56170849 628.63846952 437.828125 626.69921875 C442.16616889 622.93930881 446.04999579 618.84250822 449.9375 614.625 C454.24734573 609.99247605 458.55267588 605.37758457 463.0625 600.9375 C466.24491424 597.79711765 469.21929384 594.54577161 472.12890625 591.15234375 C474.33079829 588.61947838 476.60195826 586.15667478 478.875 583.6875 C482.96757435 579.19986568 486.85270834 574.59069772 490.6640625 569.86328125 C492.71753384 567.3462336 494.81512778 564.8749594 496.93554688 562.41430664 C503.15061661 555.18432924 508.86903368 547.64319931 514.52783203 539.97363281 C515.88102754 538.15949807 517.25862575 536.36902319 518.65234375 534.5859375 C534.65043658 513.98370007 549.08980247 491.64858044 562 469 C562.41572266 468.27458008 562.83144531 467.54916016 563.25976562 466.80175781 C566.24458559 461.57252034 569.13923783 456.29794663 572 451 C572.45842285 450.15695312 572.9168457 449.31390625 573.38916016 448.4453125 C582.11300881 432.337929 589.77717327 415.82198456 597 399 C597.44585449 397.96182129 597.89170898 396.92364258 598.35107422 395.85400391 C606.11204353 377.57798045 612.27416416 358.77179435 618.38482666 339.89691162 C619.22347505 337.31090573 620.07145234 334.72797048 620.91796875 332.14453125 C622.33688671 327.77980201 623.69386267 323.39973208 625 319 C625.20109375 318.33129883 625.4021875 317.66259766 625.609375 316.97363281 C654.16711647 220.45395852 647 109.97710906 647 13 C438.11 13 229.22 13 14 13 Z " fill="#FEFDFD" transform="translate(0,0)"/>
<path d="M0 0 C208.89 0 417.78 0 633 0 C633 150.27015061 633 150.27015061 630.6875 181.5 C630.62375183 182.39682495 630.56000366 183.2936499 630.49432373 184.21765137 C629.25461258 201.56452263 627.42415063 218.77928134 625 236 C624.81518398 237.3369026 624.6304516 238.67381676 624.44580078 240.01074219 C620.85284327 265.7972492 616.05038292 291.43331588 607.63037109 316.12451172 C606.73318137 318.79384225 605.93058833 321.48930679 605.125 324.1875 C591.36877828 368.92364252 573.16324986 412.29730743 550 453 C549.55817383 453.77988281 549.11634766 454.55976563 548.66113281 455.36328125 C534.85469465 479.53741758 518.94804636 502.92753687 502 525 C501.41814941 525.76296387 500.83629883 526.52592773 500.23681641 527.31201172 C493.53820286 536.08396265 486.69498622 544.69656603 479.5 553.06640625 C477.17375425 555.79611025 474.92573847 558.57308751 472.6875 561.375 C467.8146146 567.37172203 462.51845296 572.94618207 457.21875 578.5625 C454.87267777 581.05319312 452.5914744 583.57988306 450.375 586.1875 C446.97264667 590.15115528 443.26274657 593.79380337 439.52490234 597.43823242 C436.76197122 600.15273153 434.16322644 602.93901351 431.64453125 605.8828125 C427.92404849 610.18235475 423.86550469 614.02568201 419.6875 617.875 C414.85913149 622.36588789 410.0679745 626.8673139 405.4375 631.5625 C402.13708534 634.90174307 398.75085592 638.04718055 395.18359375 641.09765625 C392.99179638 643.00714698 390.85615136 644.97065822 388.72558594 646.94799805 C383.51937171 651.77820791 378.1875162 656.36126745 372.65234375 660.81640625 C370.00732363 662.99397068 367.46787475 665.25318763 364.9375 667.5625 C361.03233004 671.11321008 357.02079434 674.45393696 352.875 677.71875 C350.69169089 679.45115832 348.52827497 681.19966932 346.375 682.96875 C339.40539498 688.69409129 332.3876946 694.36018137 325.25 699.875 C324.24912354 700.67019043 324.24912354 700.67019043 323.22802734 701.48144531 C318.53161609 705.06138769 318.53161609 705.06138769 315.99780273 704.76879883 C312.53267976 703.43534261 309.73320021 701.05594667 306.8125 698.8125 C306.11342529 698.28148682 305.41435059 697.75047363 304.6940918 697.20336914 C293.68404857 688.77340281 283.08868436 679.81941341 272.53271484 670.83178711 C269.20702112 668.00353515 265.83645908 665.23953192 262.4375 662.5 C257.35960561 658.36958445 252.55436147 653.99168232 247.7578125 649.54296875 C245.59659452 647.55011761 243.41653031 645.60292215 241.1875 643.6875 C231.82915666 635.56000348 222.87363158 626.96659424 214.17578125 618.140625 C212.26321268 616.2589597 210.30912662 614.52916135 208.25 612.8125 C203.55487267 608.80168273 199.46821302 604.22990327 195.28979492 599.69628906 C191.78825435 595.90071882 188.23923866 592.18871858 184.5625 588.5625 C181.1597192 585.19845004 177.94550037 581.75231029 174.8359375 578.1171875 C172.6479383 575.59400545 170.38706887 573.14445481 168.125 570.6875 C164.03242565 566.19986568 160.14729166 561.59069772 156.3359375 556.86328125 C154.28246616 554.3462336 152.18487222 551.8749594 150.06445312 549.41430664 C143.84938339 542.18432924 138.13096632 534.64319931 132.47216797 526.97363281 C131.11897246 525.15949807 129.74137425 523.36902319 128.34765625 521.5859375 C107.75592095 495.06803789 90.17012216 466.06122289 74.34912109 436.50585938 C73.16222385 434.3013148 71.95608167 432.10943574 70.73828125 429.921875 C49.01591801 390.53325356 33.27176853 346.614001 21.61767578 303.26220703 C21.03076396 301.11267147 20.40945591 298.97645382 19.77734375 296.83984375 C16.58999968 285.79157806 14.4745869 274.54436307 12.375 263.25 C12.22870148 262.47109406 12.08240295 261.69218811 11.93167114 260.88967896 C-4.06809331 175.19894696 0 86.41983852 0 0 Z M13 13 C11.00781306 117.50340097 11.00781306 117.50340097 19 222 C19.27481201 223.92054199 19.27481201 223.92054199 19.55517578 225.87988281 C20.77388723 234.34825447 22.06539931 242.8038077 23.40771484 251.25341797 C23.91630242 254.47055931 24.40766992 257.6896837 24.89453125 260.91015625 C28.76995365 285.63329497 34.8786904 310.51995447 43.03271484 334.17773438 C44.13609547 337.39708824 45.20228155 340.62786905 46.26953125 343.859375 C51.74171242 360.26606465 57.94631012 376.21105426 65 392 C65.50402344 393.1329248 66.00804687 394.26584961 66.52734375 395.43310547 C83.32749113 432.97682634 103.81114825 468.72232555 128 502 C128.55155762 502.7640918 129.10311523 503.52818359 129.67138672 504.31542969 C137.32546043 514.90806315 145.24507535 525.21591568 153.58056641 535.28076172 C155.57220029 537.69305718 157.53318419 540.12995367 159.5 542.5625 C167.95983422 552.87823935 176.77109993 562.88212476 185.87133789 572.63574219 C187.83824924 574.74603071 189.79512179 576.86458823 191.73901367 578.99609375 C198.51036113 586.41122252 205.46039573 593.61783934 212.57421875 600.70458984 C214.26681347 602.39175958 215.95390597 604.08430196 217.640625 605.77734375 C222.68371758 610.82352389 227.75001765 615.79131248 233.18017578 620.42529297 C236.49609791 623.29458432 239.63665417 626.35271671 242.8125 629.375 C248.1924857 634.46063619 253.64503788 639.29078536 259.4375 643.90234375 C262.16146959 646.13217861 264.73335185 648.47954118 267.3125 650.875 C271.83600651 655.0338108 276.52597623 658.85347905 281.3815918 662.60839844 C286.21154709 666.35117304 290.9258898 670.21964072 295.625 674.125 C302.26635328 679.63531933 309.02406284 684.91925964 316 690 C320.2884948 687.21183446 324.36713735 684.2429742 328.375 681.0625 C328.97223877 680.59086426 329.56947754 680.11922852 330.18481445 679.63330078 C336.9077901 674.30808555 343.55860523 668.89390912 350.20019531 663.46777344 C351.77310294 662.18503868 353.35098284 660.90840587 354.9296875 659.6328125 C365.98674399 650.67561243 376.69499028 641.31527831 387.12109375 631.6328125 C389.36387845 629.58174481 391.6266178 627.56993813 393.91796875 625.57421875 C405.59307847 615.38922714 416.59990255 604.50186429 427.5625 593.5625 C428.12684753 593.00074066 428.69119507 592.43898132 429.27264404 591.86019897 C434.84605526 586.30695851 440.36893165 580.75172888 445.48120117 574.76391602 C448.01816019 571.81752011 450.70760339 569.01530776 453.375 566.1875 C458.02639178 561.21681045 462.4515005 556.13778808 466.70703125 550.8203125 C468.83451082 548.20354887 471.01960911 545.65571036 473.2355957 543.11450195 C480.55776807 534.70397832 487.32083616 525.92556282 494 517 C494.56477051 516.25089355 495.12954102 515.50178711 495.71142578 514.72998047 C542.15511385 453.08034316 577.44966139 383.27632169 597.30664062 308.59570312 C597.90218222 306.36619671 598.51473349 304.14299903 599.140625 301.921875 C609.44732868 264.78502207 614.55511235 226.2817847 617.6875 187.9375 C617.74834778 187.21507111 617.80919556 186.49264221 617.87188721 185.74832153 C622.60779235 128.6624997 620 69.46533337 620 13 C419.69 13 219.38 13 13 13 Z " fill="#D40A26" transform="translate(14,13)"/>
<path d="M0 0 C2.51014435 0.89907921 4.48128574 2.10775353 6.70922852 3.57470703 C7.59634521 4.15188477 8.48346191 4.7290625 9.39746094 5.32373047 C10.34339111 5.9440918 11.28932129 6.56445312 12.26391602 7.20361328 C21.30739301 13.04328081 30.44907249 18.51083879 39.94116211 23.58496094 C42.15934444 24.77709226 44.36224087 25.99443139 46.56469727 27.21533203 C59.66589931 34.39312576 73.28421704 40.20545978 87.13891602 45.76611328 C87.98953613 46.10771484 88.84015625 46.44931641 89.71655273 46.80126953 C129.87755534 62.71584714 171.96883962 70.20549893 215.01391602 71.32861328 C216.58814247 71.37195402 218.16236131 71.41557231 219.73657227 71.45947266 C223.53727367 71.56487318 227.33805708 71.6665624 231.13891602 71.76611328 C224.92971543 85.57822529 217.75100416 98.67830577 210.13891602 111.76611328 C209.64907227 112.6157666 209.15922852 113.46541992 208.65454102 114.34082031 C193.31786015 140.87980894 175.32983311 165.88815439 156.13891602 189.76611328 C155.39383789 190.69423828 154.64875977 191.62236328 153.88110352 192.57861328 C144.82645829 203.74276367 135.43336536 214.58765078 125.64697266 225.11450195 C124.56947095 226.29457303 123.50781436 227.48919143 122.45703125 228.69311523 C115.0379504 237.13526649 107.04530042 245.01033715 99.09130859 252.9440918 C96.57542316 255.45460402 94.06494415 257.97043393 91.55493164 260.48681641 C89.93611164 262.10497577 88.31698156 263.722825 86.69750977 265.34033203 C85.9577037 266.08216232 85.21789764 266.82399261 84.45567322 267.58830261 C80.38946809 271.63648345 76.23536105 275.52075332 71.88290405 279.26023865 C69.30177423 281.48895687 66.82177836 283.81676178 64.32641602 286.14111328 C59.62996948 290.48491541 54.77616647 294.57027755 49.79125977 298.58251953 C47.14623965 300.76008396 44.60679077 303.01930091 42.07641602 305.32861328 C38.15349237 308.8949075 34.12649116 312.25853836 29.96313477 315.53955078 C27.83059381 317.22080714 25.70963265 318.91300005 23.59594727 320.61767578 C15.88992893 326.82750502 8.10454764 332.89201622 0.13891602 338.76611328 C-7.34257894 334.21487052 -13.97835816 328.69227797 -20.72436523 323.14501953 C-24.51124675 320.03509279 -28.36309999 317.01756901 -32.23608398 314.01611328 C-37.17113431 310.17644034 -41.86019707 306.15598732 -46.46264648 301.91845703 C-48.88202264 299.74732306 -51.37842963 297.72521487 -53.92358398 295.70361328 C-59.78639333 290.96826727 -65.22340694 285.81641458 -70.671875 280.61352539 C-71.35693115 279.96005127 -72.0419873 279.30657715 -72.74780273 278.63330078 C-73.34810303 278.05692871 -73.94840332 277.48055664 -74.56689453 276.88671875 C-76.53402717 275.06842418 -78.5363148 273.31731057 -80.56518555 271.5690918 C-85.13682468 267.58214227 -89.42647501 263.34482227 -93.70874023 259.05126953 C-94.52426865 258.23669785 -95.33979706 257.42212616 -96.18003845 256.58287048 C-97.89306407 254.87052135 -99.60484364 253.15692486 -101.31542969 251.44213867 C-103.91611951 248.83609313 -106.52210355 246.23542806 -109.12866211 243.63525391 C-110.80150885 241.96174629 -112.47404532 240.28792846 -114.14624023 238.61376953 C-114.91621841 237.84581558 -115.68619659 237.07786163 -116.47950745 236.28663635 C-120.60640636 232.14202506 -124.57484237 227.91539007 -128.38673401 223.47857666 C-130.44736616 221.08514419 -132.59314932 218.77332202 -134.73608398 216.45361328 C-138.75488991 212.04258155 -142.58973722 207.52875971 -146.33374023 202.88330078 C-148.21156315 200.55373386 -150.12132515 198.25353932 -152.04467773 195.96142578 C-160.76602685 185.54075971 -168.92905634 174.7972091 -176.86108398 163.76611328 C-177.63814697 162.69127686 -177.63814697 162.69127686 -178.4309082 161.59472656 C-197.42814164 135.27443494 -213.80308479 107.49707977 -228.86108398 78.76611328 C-229.2488501 78.0585791 -229.63661621 77.35104492 -230.03613281 76.62207031 C-230.86108398 74.76611328 -230.86108398 74.76611328 -230.86108398 71.76611328 C-229.7257019 71.69880005 -229.7257019 71.69880005 -228.56738281 71.63012695 C-150.55897205 66.92348079 -66.41620516 52.50292542 -4.20874023 1.21533203 C-1.86108398 -0.23388672 -1.86108398 -0.23388672 0 0 Z M-8.36108398 21.07861328 C-68.1068036 61.87717803 -137.195434 77.05449135 -207.86108398 84.76611328 C-207.27845171 88.49009078 -206.24622063 91.24781805 -204.37670898 94.51220703 C-203.86060059 95.42043213 -203.34449219 96.32865723 -202.81274414 97.2644043 C-202.25119629 98.23434326 -201.68964844 99.20428223 -201.11108398 100.20361328 C-200.52762207 101.22060303 -199.94416016 102.23759277 -199.34301758 103.28540039 C-198.12261511 105.40709122 -196.89843895 107.52661552 -195.6706543 109.64404297 C-193.98232513 112.55693469 -192.3077027 115.47731782 -190.63452148 118.39892578 C-182.99728485 131.63135084 -174.65432599 144.27640922 -165.86108398 156.76611328 C-165.29357422 157.5759668 -164.72606445 158.38582031 -164.14135742 159.22021484 C-156.92144964 169.49257923 -149.31861693 179.36530845 -141.30102539 189.02636719 C-139.28162079 191.46622429 -137.29237438 193.93030892 -135.29858398 196.39111328 C-120.12287559 214.86588871 -103.73916155 231.97521947 -86.86108398 248.89111328 C-86.18105316 249.57382294 -85.50102234 250.25653259 -84.80038452 250.95993042 C-77.99706135 257.78355927 -71.21329272 264.52928949 -63.86108398 270.76611328 C-61.90632645 272.53974925 -59.98009256 274.34197383 -58.04858398 276.14111328 C-53.42327445 280.41451299 -48.66026497 284.45495057 -43.75170898 288.40283203 C-41.11338399 290.55984098 -38.53730193 292.76928553 -35.96875 295.0078125 C-28.15113627 301.813113 -20.00550103 308.11561058 -11.73022461 314.35205078 C-8.07608104 317.11652303 -4.46786153 319.94029042 -0.86108398 322.76611328 C7.43359955 317.7201808 14.78143334 311.48805505 22.24975586 305.32324219 C24.76511726 303.24997067 27.29665546 301.19677523 29.82641602 299.14111328 C38.68140458 291.88161816 47.41362574 284.50237464 55.88891602 276.80126953 C57.88880977 274.99233785 59.91161034 273.21719527 61.95141602 271.45361328 C72.84704761 261.92944975 83.19261163 251.87377752 93.40698242 241.62841797 C95.5287261 239.50126544 97.65583093 237.37957767 99.78344727 235.25830078 C101.16007042 233.88101745 102.53638367 232.5034243 103.91235352 231.12548828 C104.53540375 230.50446228 105.15845398 229.88343628 105.80038452 229.24359131 C109.55952525 225.46464131 113.13174687 221.56817803 116.61224365 217.53089905 C118.6945571 215.12380947 120.85432341 212.7913541 123.01391602 210.45361328 C127.93463381 205.05119871 132.56684155 199.46442469 137.13891602 193.76611328 C138.05116891 192.64590812 138.96395404 191.52613623 139.87719727 190.40673828 C160.72868574 164.74741417 179.4081736 137.29554674 195.61352539 108.47753906 C197.13497382 105.77312065 198.67453647 103.07965961 200.21704102 100.38720703 C201.15047518 98.74332399 202.08283248 97.09882884 203.01391602 95.45361328 C203.43753418 94.71208008 203.86115234 93.97054687 204.29760742 93.20654297 C206.55568208 89.23290277 206.55568208 89.23290277 207.13891602 84.76611328 C206.19910889 84.66588867 205.25930176 84.56566406 204.29101562 84.46240234 C185.79380051 82.47689939 167.39958594 80.393508 149.13891602 76.76611328 C148.08816895 76.5629248 147.03742188 76.35973633 145.95483398 76.15039062 C119.74476126 71.03669583 93.78002998 64.16683196 69.13891602 53.76611328 C67.49656982 53.0782373 67.49656982 53.0782373 65.82104492 52.37646484 C44.08000619 43.18508303 23.51509017 32.34038218 4.13891602 18.76611328 C-1.22689336 15.18890703 -3.69841975 17.79716369 -8.36108398 21.07861328 Z " fill="#21201C" transform="translate(330.861083984375,348.23388671875)"/>
<path d="M0 0 C-0.37511719 0.46148437 -0.75023437 0.92296875 -1.13671875 1.3984375 C-9.46564055 12.01414136 -13.05636153 21.44094857 -12 35 C-10.56583809 40.71435497 -8.59409398 45.19076291 -4 49 C-1.11126112 49.63828469 -1.11126112 49.63828469 2.078125 49.609375 C3.81835938 49.65771484 3.81835938 49.65771484 5.59375 49.70703125 C6.8003125 49.72121094 8.006875 49.73539062 9.25 49.75 C10.47203125 49.77964844 11.6940625 49.80929687 12.953125 49.83984375 C15.96881644 49.91052402 18.9837355 49.96323175 22 50 C21.67837891 49.25758057 21.35675781 48.51516113 21.02539062 47.75024414 C18.28947204 40.41211966 18.86529924 30.75945341 21.09765625 23.36328125 C23.96452448 17.27023063 27.39080388 12.73946408 33 9 C33.886875 8.401875 34.77375 7.80375 35.6875 7.1875 C39.78238922 5.08471905 43.41914954 4.84113032 48 4.8125 C49.03125 4.79832031 50.0625 4.78414063 51.125 4.76953125 C53.96545203 4.99723053 55.59107948 5.53495939 58 7 C57.41992188 7.30550781 56.83984375 7.61101562 56.2421875 7.92578125 C48.90081768 12.22641869 44.9085434 17.91360855 42.359375 26.04296875 C41.02495422 33.30976019 41.85743301 40.31123357 45 47 C47.69172612 49.69172612 49.33642408 49.38649503 53.1015625 49.6328125 C54.31328125 49.71660156 55.525 49.80039062 56.7734375 49.88671875 C58.04445313 49.96535156 59.31546875 50.04398437 60.625 50.125 C61.90375 50.21136719 63.1825 50.29773438 64.5 50.38671875 C67.66621514 50.59937499 70.83275207 50.80342963 74 51 C73.67 50.01 73.34 49.02 73 48 C72.26064578 40.0367914 72.78830393 32.94127035 77 26 C80.59280847 21.80694024 84.52820061 19.07290184 90 18 C94.81729513 17.7166297 99.33605325 17.65669736 104 19 C102.43405073 22.84369366 99.90538994 25.09461006 97 28 C93.81613753 32.4220312 91.86496071 35.77020605 91.75 41.25 C91.72421875 41.97703125 91.6984375 42.7040625 91.671875 43.453125 C92.17519092 47.35981523 92.80397156 49.66470815 95 53 C98.65616411 54.29932394 102.33540928 54.53204287 106.1875 54.8125 C108.22305841 55.00224451 110.25823094 55.19618044 112.29296875 55.39453125 C113.27185059 55.48557129 114.25073242 55.57661133 115.25927734 55.67041016 C118.96332237 56.11584582 122.39674266 57.03735575 126 58 C127.15242188 58.10828125 128.30484375 58.2165625 129.4921875 58.328125 C134.08303911 59.20744179 137.2523019 61.21700654 141.125 63.75 C142.15947266 64.39582031 142.15947266 64.39582031 143.21484375 65.0546875 C147.31802525 67.67507492 150.69502397 70.42496756 154 74 C151.64527263 73.88241834 149.29149901 73.75589893 146.9375 73.625 C145.62652344 73.55539062 144.31554687 73.48578125 142.96484375 73.4140625 C139.10005407 73.14180836 135.2963569 72.63871405 131.4609375 72.09375 C96.48734563 67.34064576 61.12003227 66.60681313 25.87973404 66.62393951 C23.22266255 66.62498615 20.56560891 66.62267406 17.90853882 66.62005615 C-10.69113055 66.60975844 -38.83742016 68.10050651 -67.24169922 71.65625 C-69.67171709 71.95908813 -72.10278032 72.24814555 -74.53515625 72.53125 C-85.83093261 73.91018506 -95.66348754 76.25744037 -106 81 C-117.35786734 86.2009803 -130.44686955 91.31564767 -142.9375 86.98046875 C-146.75634715 85.14320362 -150.28657565 83.32857956 -153 80 C-153.5 76.625 -153.5 76.625 -153 73 C-150.82463821 70.28079776 -149.11436156 68.45885476 -145.875 67.125 C-142.86142133 65.3168528 -142.33074303 62.1605147 -141 59 C-136.44021857 54.5873083 -130.89531937 54.61240193 -124.82421875 54.63671875 C-121.06271037 55.12056423 -118.73788363 56.54644243 -115.75390625 58.80859375 C-111.0468298 62.00605103 -105.0237451 61.45831143 -99.60644531 60.63720703 C-97.10162787 60.15414216 -94.61404438 59.62098899 -92.125 59.0625 C-91.27164063 58.88009766 -90.41828125 58.69769531 -89.5390625 58.50976562 C-85.14709363 57.61585329 -85.14709363 57.61585329 -81 56 C-81.28875 55.36835938 -81.5775 54.73671875 -81.875 54.0859375 C-85.69506835 44.88063391 -86.83092672 35.34441393 -83.5625 25.75 C-79.2446244 16.60272347 -72.28439178 10.16842789 -63.15234375 5.984375 C-58.07738097 4.39962826 -53.25098616 4.49724601 -48 5 C-48.845625 5.928125 -49.69125 6.85625 -50.5625 7.8125 C-58.16212076 16.71181837 -63.56113468 25.54485755 -63.32421875 37.5 C-62.70766609 42.25414096 -60.52795751 45.88026212 -57.76953125 49.70703125 C-55.06799208 51.68100358 -52.79956158 51.32299915 -49.5 51.25 C-48.25992188 51.22421875 -47.01984375 51.1984375 -45.7421875 51.171875 C-40.80743688 50.94522675 -35.90769029 50.56087889 -31 50 C-30.79693077 46.84135216 -30.79693077 46.84135216 -32.5 43.625 C-35.32383788 36.27491479 -35.08127134 28.03632888 -32.375 20.6875 C-28.15363334 11.58056564 -22.01641713 4.40656685 -12.5625 0.625 C-8.3188166 -0.11950586 -4.2938641 -0.17525976 0 0 Z " fill="#20201A" transform="translate(329,400)"/>
<path d="M0 0 C5.90560658 4.17040331 9.87151237 9.37819185 13.58984375 15.52734375 C14.00363281 16.16285156 14.41742188 16.79835938 14.84375 17.453125 C16.67056699 22.53186752 13.82336481 28.24362217 12.21484375 33.15234375 C4.6778936 56.75289473 1.30582172 81.26978593 11.58984375 104.52734375 C12.15179443 105.80279053 12.15179443 105.80279053 12.72509766 107.10400391 C14.29125463 110.62801685 15.86204934 114.14692484 17.51733398 117.63012695 C21.09009783 125.20656815 23.8668887 133.02947673 22.58984375 141.52734375 C18.81785169 148.93162446 12.87501202 152.12356993 5.52734375 155.21484375 C4.46676758 155.67600586 4.46676758 155.67600586 3.38476562 156.14648438 C-16.6556156 164.7459719 -39.19001916 155.76667943 -58.41015625 148.52734375 C-61.01444443 147.56120543 -63.62009797 146.59885229 -66.22631836 145.63793945 C-67.83814216 145.04191933 -69.4484541 144.44178707 -71.05688477 143.83666992 C-75.46666195 142.18767846 -79.86522044 140.75813878 -84.41015625 139.52734375 C-84.41015625 139.19734375 -84.41015625 138.86734375 -84.41015625 138.52734375 C-83.26160156 138.429375 -82.11304688 138.33140625 -80.9296875 138.23046875 C-63.82490338 136.64121698 -47.55699333 133.01647542 -35.66796875 119.5546875 C-25.57215671 106.57745271 -24.29730984 92.03934663 -25.69921875 76.27734375 C-28.21751235 57.31607429 -40.14166072 42.21773148 -54.80810547 30.63330078 C-60.26038033 26.48440755 -65.80969004 22.47336677 -71.41015625 18.52734375 C-65.93491221 7.03036796 -51.57738234 0.62637446 -40.2578125 -3.52734375 C-27.30431605 -7.82740704 -11.68760051 -7.14137017 0 0 Z " fill="#FEFDFD" transform="translate(221.41015625,100.47265625)"/>
<path d="M0 0 C8.29823864 4.23739845 13.15173858 10.73944079 16.5703125 19.3125 C21.02700934 34.59981105 21.65678135 50.94729913 13.91796875 65.27734375 C6.43760849 76.57377185 -3.41993038 83.82534861 -16.4296875 87.3125 C-22.3696875 87.3125 -28.3096875 87.3125 -34.4296875 87.3125 C-34.4296875 99.1925 -34.4296875 111.0725 -34.4296875 123.3125 C-44.9896875 123.3125 -55.5496875 123.3125 -66.4296875 123.3125 C-66.4296875 83.0525 -66.4296875 42.7925 -66.4296875 1.3125 C-55.8696875 1.3125 -45.3096875 1.3125 -34.4296875 1.3125 C-33.9346875 3.2925 -33.9346875 3.2925 -33.4296875 5.3125 C-32.67042969 4.81878906 -31.91117188 4.32507813 -31.12890625 3.81640625 C-30.13503906 3.17574219 -29.14117187 2.53507813 -28.1171875 1.875 C-27.13105469 1.23691406 -26.14492187 0.59882812 -25.12890625 -0.05859375 C-17.30372277 -4.78088248 -8.12744818 -3.33433771 0 0 Z M-34.4296875 28.3125 C-34.4296875 39.2025 -34.4296875 50.0925 -34.4296875 61.3125 C-24.29017611 62.03124389 -24.29017611 62.03124389 -17.4296875 57.3125 C-12.63637366 50.93882928 -10.63542507 45.38277365 -11.4296875 37.3125 C-12.57227172 32.19607507 -13.9054116 27.37303958 -18.4296875 24.3125 C-24.59730963 24.02771411 -24.59730963 24.02771411 -34.4296875 28.3125 Z " fill="#FFFFFF" transform="translate(281.4296875,842.6875)"/>
<path d="M0 0 C-1.32720588 21.65441176 -1.32720588 21.65441176 -4 27 C-8.99360796 26.5006392 -13.87796786 25.85419174 -18.8125 24.9375 C-30.94020637 22.82488524 -30.94020637 22.82488524 -42 27 C-43.35502546 28.15287573 -43.35502546 28.15287573 -43.4375 31.25 C-43.37381442 35.09278324 -43.37381442 35.09278324 -40.7109375 37.3671875 C-35.12764086 41.70654576 -28.38764139 44.36695564 -22.02929688 47.36328125 C-13.88434389 51.30026418 -5.43454016 55.67359914 -0.5625 63.625 C-0.11003906 64.33914063 0.34242188 65.05328125 0.80859375 65.7890625 C6.32594382 76.02781705 6.07510423 87.11767917 3.03125 98.109375 C0.05873055 106.44143708 -5.39299183 112.54231637 -13 117 C-31.6389205 124.89215553 -53.30379846 123.94888048 -72.05078125 116.84375 C-74.065986 115.96621138 -76.04123965 114.99718709 -78 114 C-77.39795395 107.81842856 -75.55317819 102.38166239 -73.4375 96.5625 C-73.10814453 95.64017578 -72.77878906 94.71785156 -72.43945312 93.76757812 C-71.63217353 91.5095352 -70.81891273 89.25384435 -70 87 C-69.43192627 87.15146484 -68.86385254 87.30292969 -68.27856445 87.45898438 C-50.39680916 92.59777853 -50.39680916 92.59777853 -32.25 90.8125 C-29.85894614 89.16752277 -29.85894614 89.16752277 -28.9375 86.625 C-29.02018428 83.15226009 -29.83912099 81.71852521 -32 79 C-36.90821754 75.31501425 -42.18629898 73.07723816 -47.8125 70.6875 C-54.93729938 67.56065093 -61.41152599 64.55113454 -67 59 C-67.97646484 58.04480469 -67.97646484 58.04480469 -68.97265625 57.0703125 C-75.77760023 49.88809237 -77.5553339 42.88294549 -77.4375 33.125 C-77.42920166 32.24094482 -77.42090332 31.35688965 -77.41235352 30.44604492 C-77.24381861 23.94755497 -76.51287326 18.59766451 -73 13 C-72.51402344 12.21496094 -72.02804688 11.42992187 -71.52734375 10.62109375 C-65.00313825 1.25893597 -55.23503767 -3.319863 -44.28125 -5.5546875 C-30.38580035 -7.44049852 -12.45936778 -7.22187897 0 0 Z " fill="#FFFFFF" transform="translate(195,809)"/>
<path d="M0 0 C8.69617729 6.73689991 13.53540401 16.3988611 16 27 C16.2873552 29.94366386 16.33442158 32.8562189 16.3125 35.8125 C16.30686035 36.60785156 16.3012207 37.40320313 16.29541016 38.22265625 C16.04381751 50.41867192 11.62989904 60.22281311 3.375 69.25 C-8.24773289 80.24929128 -22.40114596 81.58795212 -37.55859375 81.3125 C-50.13253093 80.79354129 -61.60944085 75.95640772 -70.3125 66.75 C-79.27119576 55.94526997 -82.12341032 43.84954288 -81 30 C-79.04805477 17.84609102 -73.76498695 6.69174831 -63.64453125 -0.7265625 C-44.60894836 -12.70865033 -18.69439841 -12.64536349 0 0 Z M-46.375 23.3125 C-50.43391353 30.02531853 -50.56777912 36.47920449 -49 44 C-46.29736374 49.3087498 -42.71659045 53.09446985 -37 55 C-30.5823662 55.7979296 -25.93903661 55.22236686 -20.625 51.4296875 C-16.63715869 47.92115404 -15.24563905 43.82012526 -14.796875 38.66796875 C-14.67749525 32.35079012 -15.04325013 27.08955897 -19.65234375 22.2734375 C-24.17836221 18.23542526 -27.53872714 16.62637627 -33.80859375 16.71875 C-38.87365273 17.36881105 -42.76972557 19.80210122 -46.375 23.3125 Z " fill="#FFFFFF" transform="translate(389,849)"/>
<path d="M0 0 C-0.70576172 1.051875 -0.70576172 1.051875 -1.42578125 2.125 C-7.27881844 11.04391381 -11.31424244 18.0883292 -10 29 C-8.9279075 33.06158119 -7.33922797 36.49115804 -5 40 C-2.77501085 40.41570008 -2.77501085 40.41570008 -0.2109375 40.29296875 C1.20058594 40.2784668 1.20058594 40.2784668 2.640625 40.26367188 C3.62546875 40.23853516 4.6103125 40.21339844 5.625 40.1875 C6.61757813 40.17396484 7.61015625 40.16042969 8.6328125 40.14648438 C11.08908072 40.11105743 13.54427285 40.06166196 16 40 C15.67773438 39.29488281 15.35546875 38.58976562 15.0234375 37.86328125 C12.86941981 31.83696459 12.89609804 24.58660532 15.5 18.6875 C19.52993291 11.86215587 26.52148454 6.5346179 34 4 C36.99841702 3.44802932 39.95584611 3.14093305 43 3 C42.41992188 3.69222656 42.41992188 3.69222656 41.828125 4.3984375 C35.44477537 12.39342491 32.2643613 19.87327473 32.59765625 30.21875 C33.22394397 34.54803989 34.86274962 37.86274962 38 41 C39.48638992 41.15655027 40.97949127 41.25066943 42.47265625 41.31640625 C43.82133789 41.37924805 43.82133789 41.37924805 45.19726562 41.44335938 C46.14279297 41.48267578 47.08832031 41.52199219 48.0625 41.5625 C49.4865918 41.62727539 49.4865918 41.62727539 50.93945312 41.69335938 C53.29281353 41.79979276 55.64628354 41.90181008 58 42 C57.76095947 41.07429199 57.76095947 41.07429199 57.51708984 40.12988281 C56.20500867 34.72544646 56.18339849 29.74338278 58.9375 24.8125 C62.96316539 19.06646479 69.3513325 15.08296862 76 13 C78.3125 13.375 78.3125 13.375 80 14 C79.57847656 14.61488281 79.15695312 15.22976563 78.72265625 15.86328125 C78.17480469 16.67152344 77.62695312 17.47976563 77.0625 18.3125 C76.51722656 19.11300781 75.97195313 19.91351563 75.41015625 20.73828125 C73.20247908 24.27912635 72.81860554 27.15653629 72.75 31.25 C72.72421875 32.16265625 72.6984375 33.0753125 72.671875 34.015625 C73.10069712 37.91586428 74.01008095 40.60855685 76 44 C79.05366572 45.31969919 79.05366572 45.31969919 82.6875 45.625 C84.0479523 45.83829055 85.40732124 46.05858575 86.765625 46.28515625 C87.46623047 46.39746582 88.16683594 46.50977539 88.88867188 46.62548828 C101.76832531 48.91010766 112.43428837 54.41291984 123 62 C123 62.33 123 62.66 123 63 C116.15796597 62.47444264 109.34906682 61.8305568 102.5378418 60.99731445 C54.84609054 55.27009808 5.85095101 53.0269308 -42 58 C-43.43727853 58.14154793 -44.87461955 58.28246228 -46.31201172 58.42285156 C-50.18065645 58.80409944 -54.04640941 59.20783156 -57.91101074 59.62805176 C-59.40078971 59.7896595 -60.89093707 59.94791511 -62.38146973 60.10241699 C-70.7705297 60.9870186 -78.36670579 62.24716734 -86 66 C-87.10730469 66.53882813 -88.21460938 67.07765625 -89.35546875 67.6328125 C-90.29003906 68.12523437 -91.22460938 68.61765625 -92.1875 69.125 C-99.61172674 72.87021502 -106.61037802 75.32192172 -115 74 C-118.88527523 72.26099994 -121.99955544 70.00044456 -125 67 C-125.4375 63.6875 -125.4375 63.6875 -125 60 C-122.6875 57.0625 -122.6875 57.0625 -120 55 C-119.01 55 -118.02 55 -117 55 C-117.12375 54.278125 -117.2475 53.55625 -117.375 52.8125 C-117 50 -117 50 -114.75 47.1875 C-110.80925618 44.20607807 -106.67300949 44.48213118 -101.90234375 44.53125 C-98.64545284 45.05726199 -96.76755381 46.2600033 -94 48 C-85.64909017 48.68450081 -77.26694681 47.13607122 -69 46 C-69.28875 45.44054687 -69.5775 44.88109375 -69.875 44.3046875 C-73.5519238 36.36355346 -74.52671815 28.18775834 -72.41015625 19.609375 C-69.42712895 12.62606684 -62.76581886 6.84271961 -55.8125 4 C-52.32681801 3.08572276 -49.57643427 2.73176743 -46 3 C-46.556875 3.94875 -47.11375 4.8975 -47.6875 5.875 C-48.45913031 7.24955291 -49.2298759 8.62460264 -50 10 C-50.45503906 10.77214844 -50.91007812 11.54429687 -51.37890625 12.33984375 C-55.13437195 19.11252121 -56.28695104 24.6683457 -54.453125 32.265625 C-53.06700561 36.42398317 -51.51358561 39.2289763 -48 42 C-45.06768066 42.52174209 -45.06768066 42.52174209 -41.875 42.3125 C-40.73417969 42.27769531 -39.59335937 42.24289062 -38.41796875 42.20703125 C-33.92695613 41.9350042 -29.46391219 41.56428687 -25 41 C-25.3609375 40.443125 -25.721875 39.88625 -26.09375 39.3125 C-29.85724068 33.12364866 -31.09106982 29.26651007 -29.59375 22.0390625 C-27.23682269 14.19297552 -21.33037092 8.04593257 -14.3125 4.0625 C-12.88581546 3.35282844 -11.44937655 2.66209524 -10 2 C-9.0925 1.566875 -8.185 1.13375 -7.25 0.6875 C-4.72980189 -0.08256053 -2.62106293 -0.04773459 0 0 Z " fill="#20201A" transform="translate(338,470)"/>
<path d="M0 0 C6.16586877 5.40990018 9.76995133 12.74780347 11.0390625 20.7890625 C11.53687934 28.76993561 11.53117469 36.13400872 9.0390625 43.7890625 C0.29808044 45.35602258 -8.44319381 46.48705245 -17.2734375 47.4140625 C-18.49611328 47.548125 -19.71878906 47.6821875 -20.97851562 47.8203125 C-26.66563787 48.42578559 -32.24050064 48.97495557 -37.9609375 48.7890625 C-34.92831074 53.93181765 -34.92831074 53.93181765 -29.9609375 56.7890625 C-27.36606577 57.03980291 -24.93084333 57.16879827 -22.3359375 57.1640625 C-21.23487671 57.16599609 -21.23487671 57.16599609 -20.11157227 57.16796875 C-11.47202402 57.00731788 -3.2819681 54.96907519 5.0390625 52.7890625 C5.74110288 55.86927027 6.42311458 58.95357986 7.1015625 62.0390625 C7.30072266 62.91175781 7.49988281 63.78445313 7.70507812 64.68359375 C7.88876953 65.52792969 8.07246094 66.37226562 8.26171875 67.2421875 C8.43453369 68.01723633 8.60734863 68.79228516 8.78540039 69.59082031 C9.06271403 71.99402724 8.91175429 73.53646303 8.0390625 75.7890625 C5.6328125 77.203125 5.6328125 77.203125 2.5390625 78.4140625 C1.53875 78.81882812 0.5384375 79.22359375 -0.4921875 79.640625 C-8.53347604 82.3029435 -15.93583709 83.12949187 -24.3984375 83.1015625 C-25.85733398 83.12573242 -25.85733398 83.12573242 -27.34570312 83.15039062 C-39.00428638 83.15817859 -49.09956689 79.75605212 -57.96875 72.04296875 C-68.22432222 61.36563057 -69.44378141 47.91294032 -69.23828125 33.89453125 C-68.85486487 23.55373425 -65.44866295 14.80423788 -58.9609375 6.7890625 C-58.47109375 6.16386719 -57.98125 5.53867187 -57.4765625 4.89453125 C-43.79214131 -10.65286807 -16.28221434 -11.67946824 0 0 Z M-36.7109375 21.0390625 C-38.18575111 24.28365245 -38.51470067 27.26874975 -38.9609375 30.7890625 C-31.51538218 29.80608188 -24.20065943 28.81618464 -16.9609375 26.7890625 C-16.50332591 22.8536028 -16.66351008 21.21661441 -18.9609375 17.9140625 C-22.34806177 15.51484948 -24.00299464 15.15263334 -28.03515625 15.43359375 C-32.05330625 16.17528067 -34.24217339 17.86493722 -36.7109375 21.0390625 Z " fill="#FFFFFF" transform="translate(94.9609375,847.2109375)"/>
<path d="M0 0 C9.57 0 19.14 0 29 0 C29 8.91 29 17.82 29 27 C37.91 27 46.82 27 56 27 C56 35.58 56 44.16 56 53 C47.09 53 38.18 53 29 53 C29.33 63.56 29.66 74.12 30 85 C35.94324157 85 40.82881759 84.89066911 46.5625 84 C47.78066406 83.814375 48.99882813 83.62875 50.25390625 83.4375 C51.16011719 83.293125 52.06632813 83.14875 53 83 C54.66594452 90.31074682 55.51172287 97.52165033 56 105 C52.02379802 106.72848643 48.0228638 108.38315522 44 110 C42.81664062 110.495 42.81664062 110.495 41.609375 111 C31.24530195 114.76875384 17.34742951 114.79105242 7.20703125 110.3984375 C1.63801222 106.86974934 -1.54534408 101.34758946 -3 95 C-3.79722063 89.54453113 -4.13812474 84.28875508 -4.09765625 78.78125 C-4.0962413 78.03790405 -4.09482635 77.29455811 -4.09336853 76.52868652 C-4.08783109 74.18574771 -4.07529091 71.84290927 -4.0625 69.5 C-4.05747689 67.89843889 -4.05291542 66.29687627 -4.04882812 64.6953125 C-4.03873882 60.79680649 -4.01915209 56.8985138 -4 53 C-8.95 53 -13.9 53 -19 53 C-19 44.42 -19 35.84 -19 27 C-13.72 26.67 -8.44 26.34 -3 26 C-2.01 17.42 -1.02 8.84 0 0 Z " fill="#FFFFFF" transform="translate(507,817)"/>
<path d="M0 0 C15.49016599 2.2081726 27.68080894 10.70875378 37.0859375 23.1328125 C46.72514971 37.57195895 52.88603403 52.37742757 49.4140625 69.96875 C46.83667575 77.629973 41.47606795 82.45661629 34.56640625 86.3828125 C10.23167656 96.97601294 -21.69469974 81.79698734 -44.8671875 73.609375 C-45.52960449 73.37621582 -46.19202148 73.14305664 -46.87451172 72.90283203 C-50.02347384 71.77620701 -53.05306709 70.58688124 -56 69 C-54.69546875 68.84144531 -53.3909375 68.68289062 -52.046875 68.51953125 C-35.04427511 66.31157057 -19.8279223 62.00552358 -8.52734375 48.15234375 C1.73940205 33.68437205 2.39611502 17.07231955 0 0 Z " fill="#FEFCFD" transform="translate(519,172)"/>
<path d="M0 0 C0.82540283 0.00128906 1.65080566 0.00257813 2.5012207 0.00390625 C9.24202544 0.1091183 15.32293566 1.27280715 21.75 3.3125 C21.27572253 7.08396518 20.79474135 10.85454552 20.3125 14.625 C20.17779297 15.69685547 20.04308594 16.76871094 19.90429688 17.87304688 C19.77216797 18.90107422 19.64003906 19.92910156 19.50390625 20.98828125 C19.32323608 22.4100769 19.32323608 22.4100769 19.13891602 23.8605957 C18.75 26.3125 18.75 26.3125 17.75 29.3125 C17.06035156 29.2403125 16.37070312 29.168125 15.66015625 29.09375 C9.65411341 28.50056058 3.7843 28.21357705 -2.25 28.3125 C-1.10139227 31.7583232 -0.63533156 31.95918023 2.390625 33.65234375 C3.13183594 34.07580078 3.87304688 34.49925781 4.63671875 34.93554688 C5.80654297 35.58620117 5.80654297 35.58620117 7 36.25 C20.07469434 43.60313754 20.07469434 43.60313754 23.5 49.375 C23.90734375 50.04660156 24.3146875 50.71820312 24.734375 51.41015625 C27.97913428 57.48783999 27.48826481 64.71522242 26.13671875 71.30078125 C23.99118391 78.13435698 20.94544941 82.62926029 14.75 86.3125 C1.57299943 92.87171806 -15.89656595 92.33419793 -29.625 87.8125 C-31.85960026 87.02867671 -34.05130529 86.19449788 -36.25 85.3125 C-35.68737174 79.10222353 -34.24833221 73.68419827 -32.1875 67.8125 C-31.90583984 66.99007812 -31.62417969 66.16765625 -31.33398438 65.3203125 C-30.64622757 63.31532657 -29.94908924 61.31356277 -29.25 59.3125 C-27.83318366 59.62432069 -26.41655349 59.93698737 -25 60.25 C-24.21109375 60.42402344 -23.4221875 60.59804688 -22.609375 60.77734375 C-21.10535455 61.11848746 -19.60600167 61.48145018 -18.11425781 61.87280273 C-15.70767147 62.44041169 -13.46872025 62.40748316 -11 62.375 C-10.10796875 62.36597656 -9.2159375 62.35695313 -8.296875 62.34765625 C-7.28367187 62.33025391 -7.28367187 62.33025391 -6.25 62.3125 C-5.92 61.3225 -5.59 60.3325 -5.25 59.3125 C-5.75337891 59.05146484 -6.25675781 58.79042969 -6.77539062 58.52148438 C-30.09236316 46.31800929 -30.09236316 46.31800929 -34.25 35.3125 C-36.40580873 27.66917815 -35.19414986 20.54122568 -32.25 13.3125 C-27.59376714 5.83430783 -19.7546559 2.66692085 -11.42504883 0.70068359 C-7.61941222 0.02148703 -3.85733427 -0.02513689 0 0 Z " fill="#FFFFFF" transform="translate(608.25,839.6875)"/>
<path d="M0 0 C-0.49371094 0.89203125 -0.98742187 1.7840625 -1.49609375 2.703125 C-2.14346768 3.88528608 -2.79058989 5.06758504 -3.4375 6.25 C-3.92573242 7.12978516 -3.92573242 7.12978516 -4.42382812 8.02734375 C-7.48876512 13.65166113 -8.85816199 18.55249345 -8 25 C-6.90186448 28.12968624 -5.52096197 31.05580855 -4 34 C-3.67 34.66 -3.34 35.32 -3 36 C2.61 36.33 8.22 36.66 14 37 C13.67 36.34 13.34 35.68 13 35 C11.68849511 19.67412854 11.68849511 19.67412854 16.3125 13.64453125 C21.70006265 8.39415191 28.21183756 4.20818098 35.875 3.875 C36.57625 3.91625 37.2775 3.9575 38 4 C38 4.66 38 5.32 38 6 C37.34 6 36.68 6 36 6 C35.62875 6.7734375 35.62875 6.7734375 35.25 7.5625 C33.90560781 10.18406477 32.42192479 12.69567204 30.90234375 15.21875 C29.16543575 18.64745151 28.80150007 22.00249761 28.6875 25.8125 C28.65011719 26.62332031 28.61273438 27.43414063 28.57421875 28.26953125 C29.17521203 32.12360743 30.25445137 35.22009246 33 38 C36.15274536 39.25504164 39.33234857 39.60131971 42.6875 40 C50.49554757 41.22512084 56.74716916 42.59547898 62 49 C63.2109375 51.21875 63.2109375 51.21875 64 53 C55.6482882 52.66776455 47.33870125 52.17367384 39.02734375 51.265625 C13.1844714 48.44289151 -12.18565151 47.48811699 -37.99462891 51.546875 C-41.23437654 52.03533736 -44.47873995 52.44313775 -47.73046875 52.84375 C-60.45143637 54.48595409 -70.75264829 56.77486149 -82 63 C-87.59266152 65.64818079 -92.83505077 66.99711353 -99 66 C-102.87729583 64.58342365 -106.07442061 62.92557939 -109 60 C-109.4375 56.625 -109.4375 56.625 -109 53 C-106.625 50.5625 -106.625 50.5625 -104 49 C-103.34 49 -102.68 49 -102 49 C-101.938125 48.2575 -101.87625 47.515 -101.8125 46.75 C-101 44 -101 44 -99.125 41.6875 C-92.75807855 38.24936242 -85.65887482 39.63179239 -78.94921875 41.55078125 C-71.89538295 43.17641475 -64.09805163 41.74297363 -57 41 C-57.495 39.948125 -57.99 38.89625 -58.5 37.8125 C-61.05104872 30.94053623 -61.49769434 22.51384647 -58.5625 15.6875 C-54.12455765 8.28570215 -47.26313345 3.16737926 -39 1 C-35.5 0.8125 -35.5 0.8125 -33 1 C-33.38671875 1.556875 -33.7734375 2.11375 -34.171875 2.6875 C-42.15964974 14.27798617 -42.15964974 14.27798617 -43 28 C-41.91569355 31.91229491 -40.40010693 35.64500791 -37 38 C-34.18872957 38.21714241 -31.6116655 38.28284276 -28.8125 38.1875 C-28.06291016 38.17396484 -27.31332031 38.16042969 -26.54101562 38.14648438 C-24.69370233 38.11118539 -22.84675934 38.05737917 -21 38 C-21.66 36.948125 -22.32 35.89625 -23 34.8125 C-25.84834706 29.03383907 -25.99583413 23.29922985 -25 17 C-21.81617031 8.9262885 -15.14473522 4.42153148 -7.53515625 0.83984375 C-4.86659729 -0.0441935 -2.79099142 -0.15948522 0 0 Z " fill="#21201A" transform="translate(357,535)"/>
<path d="M0 0 C6.11528918 4.66506306 12.32610017 11.1961964 14.35546875 18.796875 C15.48610335 27.78811208 14.80937133 35.38380353 9.35546875 42.796875 C4.65416512 48.19315395 -0.51301282 51.74214568 -7.64453125 52.796875 C-12.96061163 53.13619928 -18.26009054 53.04237116 -23.58007812 52.85302734 C-25.31448416 52.80585216 -27.05070031 52.8336033 -28.78515625 52.87890625 C-32.60012924 52.84965032 -34.73453817 52.66770854 -37.55078125 49.97265625 C-39.33203125 47.671875 -39.33203125 47.671875 -40.78125 45.4140625 C-45.44332446 38.86565603 -51.50832486 34.18057371 -58.08203125 29.671875 C-58.79423828 29.17300781 -59.50644531 28.67414063 -60.24023438 28.16015625 C-64.94865442 24.88436174 -69.75320012 21.79183664 -74.64453125 18.796875 C-57.10041438 -2.69466816 -25.55852731 -16.41596985 0 0 Z " fill="#FEFDFD" transform="translate(546.64453125,98.203125)"/>
<path d="M0 0 C3.56673642 1.64903658 5.35780708 3.35130163 7.75 6.5 C8.36359375 7.2940625 8.9771875 8.088125 9.609375 8.90625 C11 11 11 11 11 13 C11.76570313 12.56300781 11.76570313 12.56300781 12.546875 12.1171875 C34.03773585 0 34.03773585 0 45 0 C45 9.57 45 19.14 45 29 C37.625 30.25 37.625 30.25 35.36962891 30.61425781 C29.29120068 31.70232312 25.04311899 33.5827524 19 36 C18.67 52.83 18.34 69.66 18 87 C7.44 87 -3.12 87 -14 87 C-13.99097656 83.10832031 -13.98195313 79.21664062 -13.97265625 75.20703125 C-13.98771031 71.40068718 -14.01465931 67.59459789 -14.04272461 63.78833008 C-14.05579228 61.16108385 -14.05666532 58.53374552 -14.04467773 55.90649414 C-13.41276614 37.04924138 -13.41276614 37.04924138 -20.59936523 20.22143555 C-22 18 -22 18 -22.00439453 15.90649414 C-20.59589727 13.23295133 -18.83885669 12.18321271 -16.30859375 10.546875 C-15.36435547 9.928125 -14.42011719 9.309375 -13.44726562 8.671875 C-12.45404297 8.03765625 -11.46082031 7.4034375 -10.4375 6.75 C-9.44041016 6.1003125 -8.44332031 5.450625 -7.41601562 4.78125 C-4.95058019 3.17694752 -2.47861587 1.58383269 0 0 Z " fill="#FFFFFF" transform="translate(436,840)"/>
<path d="M0 0 C5.41039493 4.63748137 5.41039493 4.63748137 5.90625 8.36328125 C6.05062437 12.03881199 6.00907988 14.53421476 4.25 17.8125 C2.625 19.25 2.625 19.25 0.625 19.25 C0.625 19.91 0.625 20.57 0.625 21.25 C1.223125 21.476875 1.82125 21.70375 2.4375 21.9375 C5.36127001 23.69176201 6.26347463 25.11849164 7.625 28.25 C8.17000788 33.15507088 8.1893646 35.21857504 5.8125 39.5625 C1.39095745 44.99468085 1.39095745 44.99468085 -2.375 46.25 C-7.96914356 46.74241379 -12.80391058 46.99420025 -17.9375 44.5625 C-22.00261144 40.70585581 -23.55556826 37.97666557 -23.9375 32.375 C-23.8250044 27.36519572 -22.15707724 24.91532759 -18.6875 21.4296875 C-18.254375 21.04039062 -17.82125 20.65109375 -17.375 20.25 C-18.014375 19.63125 -18.65375 19.0125 -19.3125 18.375 C-22.4277176 15.16538187 -22.77977495 12.83946068 -22.72265625 8.3515625 C-22.09020089 4.52840536 -20.18415644 2.87187935 -17.375 0.25 C-11.99413161 -3.03830846 -5.45664651 -2.82937227 0 0 Z " fill="#D50F2A" transform="translate(228.375,334.75)"/>
<path d="M0 0 C4.74895789 4.30719436 6.86807217 9.12285646 7.18359375 15.53125 C7.18490539 17.33343869 7.16506747 19.13575629 7.125 20.9375 C7.13208984 21.83597656 7.13917969 22.73445313 7.14648438 23.66015625 C7.08843605 29.79541797 6.63256202 36.27202887 2.23583984 40.99780273 C-2.79302864 45.29726426 -6.10071702 45.78175948 -12.54296875 45.72265625 C-16.37974783 45.32761412 -18.50115682 44.03258601 -21.3125 41.4375 C-23.39257422 38.4119375 -23.3125 37.29274891 -23.3125 33.4375 C-20.27913814 33.20856703 -17.33784949 33.07274155 -14.3125 33.4375 C-12.25 35.4375 -12.25 35.4375 -11.3125 37.4375 C-8.90372743 37.32408466 -8.90372743 37.32408466 -6.3125 36.4375 C-3.71061744 33.11785674 -3.3125 31.74433959 -3.3125 27.4375 C-3.828125 27.7675 -4.34375 28.0975 -4.875 28.4375 C-8.25093074 29.82249723 -10.68665116 29.81258781 -14.3125 29.4375 C-18.18163171 27.35412139 -21.05653599 25.23701834 -23.3125 21.4375 C-24.9706131 15.8909949 -25.40763743 9.92959809 -22.8125 4.625 C-17.31718902 -3.64688917 -8.32579798 -3.9272632 0 0 Z " fill="#D50F2A" transform="translate(446.3125,335.5625)"/>
<path d="M0 0 C3.46056456 1.93522834 5.45476286 3.42678858 6.75 7.3125 C6.94109062 12.08107952 6.37343486 15.38679369 3.6875 19.375 C3.048125 20.014375 2.40875 20.65375 1.75 21.3125 C2.348125 21.56 2.94625 21.8075 3.5625 22.0625 C6.22957184 23.58654105 7.31182071 24.57995935 8.75 27.3125 C9.2930873 32.92440215 8.93046236 36.4869709 5.75 41.3125 C0.55349188 46.11927001 -3.6540618 46.6663045 -10.51953125 46.59375 C-14.36535443 46.19761371 -16.43370077 44.91757679 -19.25 42.3125 C-21.82702109 38.87647188 -22.25 37.71177132 -22.25 33.3125 C-17.795 32.8175 -17.795 32.8175 -13.25 32.3125 C-12.858125 33.116875 -12.46625 33.92125 -12.0625 34.75 C-10.47362829 37.46527789 -10.47362829 37.46527789 -7.8125 38.375 C-5.13897187 38.54033517 -5.13897187 38.54033517 -2.9375 36.75 C-0.8133141 33.68173148 -0.86014864 31.9771028 -1.25 28.3125 C-1.58 27.3225 -1.91 26.3325 -2.25 25.3125 C-4.89 24.9825 -7.53 24.6525 -10.25 24.3125 C-10.25 22.0025 -10.25 19.6925 -10.25 17.3125 C-8.27 16.6525 -6.29 15.9925 -4.25 15.3125 C-3.57198966 12.41176819 -3.57198966 12.41176819 -3.25 9.3125 C-5.07786272 7.10392762 -5.07786272 7.10392762 -7.6875 6.875 C-10.50299859 7.04833949 -10.50299859 7.04833949 -12.0625 9.8125 C-12.454375 10.6375 -12.84625 11.4625 -13.25 12.3125 C-15.89 11.9825 -18.53 11.6525 -21.25 11.3125 C-21.62810643 8.00406877 -21.40283119 6.55938115 -19.625 3.6875 C-13.81274897 -2.12475103 -7.49794462 -3.37819483 0 0 Z " fill="#D50E29" transform="translate(481.25,334.6875)"/>
<path d="M0 0 C2.64 0 5.28 0 8 0 C8 15.84 8 31.68 8 48 C5.03 48 2.06 48 -1 48 C-2.91219585 46.08780415 -2.24435298 42.66354496 -2.31640625 40.12109375 C-2.33718735 39.4344313 -2.35796844 38.74776886 -2.37937927 38.04029846 C-2.44494143 35.83947065 -2.50379015 33.63852025 -2.5625 31.4375 C-2.60567892 29.94855486 -2.649293 28.45962227 -2.69335938 26.97070312 C-2.8006293 23.31393447 -2.90187772 19.65702682 -3 16 C-4.6396875 16.99 -4.6396875 16.99 -6.3125 18 C-8.93707538 19.58464929 -9.8256378 20 -13 20 C-13.78824394 14.92020573 -13.78824394 14.92020573 -13 12 C-10.88804305 10.12270493 -8.69490727 8.8438122 -6.23828125 7.453125 C-3.67900769 6.02055101 -3.67900769 6.02055101 -1.9375 2.625 C-1.298125 1.75875 -0.65875 0.8925 0 0 Z " fill="#D61832" transform="translate(184,333)"/>
<path d="M0 0 C2.62350995 1.00904229 3.69768093 1.76272616 5.4375 3.9375 C6.31592208 8.23464587 6.12868704 11.86232016 3.75 15.5625 C1.4375 16.9375 1.4375 16.9375 -1.125 16.9375 C-4.18693494 15.68132156 -5.10723448 14.92462396 -6.5625 11.9375 C-7.25961408 7.79732247 -7.21367251 4.92631752 -4.875 1.375 C-2.5625 -0.0625 -2.5625 -0.0625 0 0 Z " fill="#FDF6F7" transform="translate(437.5625,341.0625)"/>
<path d="M0 0 C2.11933507 1.62126591 2.90860636 2.50539913 3.3984375 5.15625 C3.39070312 5.9296875 3.38296875 6.703125 3.375 7.5 C3.38273438 8.2734375 3.39046875 9.046875 3.3984375 9.84375 C2.90440524 12.51733636 2.20188602 13.43083985 0 15 C-3.5625 14.875 -3.5625 14.875 -7 14 C-9.48038907 10.2794164 -9.46337203 8.40203429 -9 4 C-6.4639774 0.33685625 -4.42995618 -0.79512034 0 0 Z " fill="#FDF5F6" transform="translate(223,359)"/>
<path d="M0 0 C3 0.25 3 0.25 5 2.25 C5.3125 5.75 5.3125 5.75 5 9.25 C2 11.25 2 11.25 -1.125 11 C-2.548125 10.62875 -2.548125 10.62875 -4 10.25 C-5.38125018 7.48749964 -5.19079306 5.30268901 -5 2.25 C-3 0.25 -3 0.25 0 0 Z " fill="#FDF5F6" transform="translate(220,340.75)"/>
<path d="M0 0 C4.455 0.99 4.455 0.99 9 2 C9 2.33 9 2.66 9 3 C4.05 3 -0.9 3 -6 3 C-6 2.67 -6 2.34 -6 2 C-4.02 2 -2.04 2 0 2 C0 1.34 0 0.68 0 0 Z " fill="#F3BDC4" transform="translate(110,234)"/>
</svg>
