<?xml version="1.0" encoding="UTF-8"?>
<svg id="inverted_horizontal" data-name="inverted horizontal" xmlns="http://www.w3.org/2000/svg" viewBox="0 0 1460 480">
  <defs>
    <style>
      .cls-1 {
        fill: #fff;
      }

      .cls-2 {
        fill: #009c59;
      }
    </style>
  </defs>
  <path class="cls-1" d="M417.81855,83.98999l-10.11005,202.17001c-4.16992,83.45999-72.89996,148.84-156.46497,148.84s-152.29501-65.38-156.465-148.84l-10.11002-202.17001c36.57501-26.48999,109.07501-38.98999,166.57501-38.98999s130,12.5,166.57501,38.98999Z"/>
  <circle class="cls-2" cx="251.24354" cy="385" r="30"/>
  <path class="cls-2" d="M397.26856,94.53l-9.53503,190.63c-2.625,52.495-34.625,96.84998-79.60999,117.465l-1.995-39.89502c-20.33997-13.065-34.21497-35.405-35.56-61.22998-.005-.05499-.005-.10501-.01001-.16l-1.47504-29.54001c-.03998-.82001-.28998-1.60001-.70996-2.27499-.42505-.67499-1.01501-1.23999-1.73499-1.63501-3.15503-1.73499-8.87003-2.88998-15.39502-2.88998s-12.23999,1.155-15.39499,2.88998c-1.44,.79001-2.36502,2.27002-2.44501,3.91l-1.47501,29.54001c-.005,.06-.005,.12-.01001,.17999-1.34998,25.815-15.22498,48.14999-35.56,61.215l-1.995,39.89001c-13.82001-6.33002-26.41501-14.905-37.31-25.27002-24.565-23.36499-40.48001-55.82498-42.29999-92.19498l-9.535-190.63c23.85999-16.595,86.03719-28.59097,137.01999-29.45001l-3.01001,60.20999c-29.22498,1.42001-53.46997,7.94501-64.34,16.77502v.005l-3.05499,61.16998,21.29001,56.77499c6.64999-8.63498,30.14999-15.01498,58.12-15.01498s51.46997,6.38,58.12,15.01498l13.88501-37.02499c-9.09497-10.39499-37.89001-17.98999-72.005-17.98999-13.0122,0-26.40244,1.63415-37.495,4.85l-7.11499-18.98c12.89657-3.90659,28.5734-5.87,44.60999-5.87,37.91003,0,69.84998,8.51999,79.505,20.13498l-1.05499-21.16998c-10.77502-11.01001-41.82501-18.965-78.45001-18.965-16.03659,0-32.13415,2.31707-45.22501,6l1.01001-20.22c12.81256-3.19463,29.25158-5.78,44.215-5.78,35.5,0,65.76501,7.47501,77.40002,17.95999l-1.04504-20.88998v-.005c-10.87-8.83002-35.11499-15.35501-64.33997-16.77502l-3.01001-60.20999c51.00719,1.05416,113.16003,12.85501,137.02002,29.45001Z"/>
  <g>
    <path class="cls-1" d="M518.36792,273.56317h68.53715c.53818-11.73728,1.07636-23.47456,1.61498-35.21173h-68.20761c.68369-12.379,1.36738-24.75811,2.05063-37.13699h65.26151c.52161-11.2788,1.04278-22.5576,1.56394-33.83628h-64.9566c.64295-11.64527,1.28634-23.29065,1.92929-34.93592h66.26668c.53146-11.55337,1.06337-23.10675,1.59439-34.66012h-105.59534c-3.56129,58.59361-7.12079,117.18733-10.68208,175.78104h40.62306Z"/>
    <path class="cls-1" d="M739.0085,273.56317c1.47081-58.63972,2.94297-117.27934,4.41467-175.91895h-38.03112c-.52878,17.37629-1.05621,34.75258-1.58498,52.12897-.11193,25.9961-.21581,51.99219-.31297,77.9884h-1.78423c-11.95633-43.3725-23.67358-86.74499-35.15621-130.11737h-55.56266c-2.55881,58.63961-5.11628,117.27922-7.67374,175.91895h39.10389c.67519-17.65153,1.35127-35.30307,2.02735-52.9546,.28521-26.54603,.57803-53.09194,.87891-79.63786h1.62707c11.87261,44.19745,23.99461,88.3949,36.36733,132.59246h55.68668Z"/>
    <path class="cls-1" d="M780.19884,269.16103c7.76642,5.31731,17.60855,7.97854,29.49683,7.97865,8.84771-.00011,15.9864-1.37544,21.41117-4.12633,5.42387-2.75078,9.56274-6.48713,12.4184-11.20951,2.85745-4.72216,4.95017-9.97208,6.2974-15.74955,.49967-.00179,.99935-.00347,1.49947-.00526-.49878,9.17131-.99756,18.34273-1.49947,27.51414h38.96689c.05194-11.3248,.10477-22.6495,.1576-33.97419h-.00045c.10701-23.1073,.21447-46.21472,.32192-69.32203h-60.89519c-.13969,10.68297-.27939,21.36595-.41908,32.04892,7.61778-.03671,15.23555-.07343,22.85377-.11014-.08059,8.10547-.16118,16.21094-.24133,24.31653-1.22098,2.66157-2.84715,5.13631-4.88435,7.42883-2.03944,2.29229-4.67302,4.12633-7.89806,5.50178-3.22728,1.37544-6.95065,2.06317-11.16832,2.06317-9.35544-.00022-16.17535-2.68261-20.4369-8.04671-4.26916-5.36399-6.30725-12.99866-6.14025-22.90079,.2279-13.47987,.45535-26.95973,.68369-40.43949,.23103-13.66131,3.59353-23.7479,10.0745-30.25977,6.47694-6.5084,16.65846-9.76433,30.56557-9.76422,9.39081,.00011,17.68646,1.12281,24.89993,3.36876,7.20989,2.24763,13.65907,4.79245,19.34174,7.63479-1.06964-11.87518-2.13346-23.75037-3.19146-35.62544-3.49726-1.92504-7.73643-3.734-12.71704-5.43193-4.97613-1.6958-10.52089-3.09453-16.6195-4.19618-6.10219-1.0993-12.74659-1.64935-19.93319-1.64946-23.45195-.00011-41.40615,6.213-53.95395,18.63655-12.54645,12.4269-19.13981,30.74109-19.69186,54.94971-.3161,13.98368-.6322,27.96736-.94875,41.95105-.32103,14.12158,1.25769,26.22466,4.75451,36.31137,3.49592,10.08816,9.12127,17.79156,16.89576,23.10675Z"/>
    <path class="cls-1" d="M909.15792,97.78212c-.11238,58.59361-.22342,117.18733-.33446,175.78104,13.90936,.00011,27.82051,.00011,41.73076,0-.22252-58.59372-.4446-117.18744-.66757-175.78104h-40.72873Z"/>
    <path class="cls-1" d="M1102.65139,97.64422h-38.03067c.34476,17.37629,.68951,34.75258,1.03472,52.12897,1.1959,25.9961,2.39852,51.99219,3.6083,77.9884h-1.78467c-14.13636-43.3725-28.03497-86.74499-41.69584-130.11737h-55.56311c.38953,58.63961,.77906,117.27922,1.16814,175.91895h39.10389c-.21178-17.65153-.42221-35.30307-.63444-52.9546-1.04904-26.54603-2.09048-53.09194-3.1234-79.63786h1.62662c14.09338,44.19745,28.43704,88.3949,43.03188,132.59246h55.68668c-1.47663-58.63972-2.95147-117.27934-4.42811-175.91895Z"/>
    <path class="cls-1" d="M1235.75427,238.35144h-68.20672c-.4155-12.379-.83145-24.75811-1.24739-37.13699h65.26062c-.48087-11.2788-.95995-22.5576-1.44081-33.83628h-64.95616c-.39132-11.64527-.78219-23.29065-1.17352-34.93592h66.26623c-.49475-11.55337-.98905-23.10675-1.4838-34.66012h-105.59534c1.64274,58.59361,3.28593,117.18733,4.92867,175.78104h109.16066c-.5046-11.73728-1.00785-23.47456-1.51245-35.21173Z"/>
    <path class="cls-1" d="M1351.67752,263.93506c9.84123-8.71115,14.21292-21.59508,13.17597-38.65034-.06134-1.0083-.12313-2.0166-.18402-3.0249-.59325-9.81134-2.73074-17.78944-6.378-23.93416-3.6486-6.14114-8.89875-11.34741-15.74418-15.60986-6.84275-4.26446-15.41599-8.41183-25.71973-12.44884-7.78478-2.93356-13.87667-5.66106-18.27209-8.18282-4.39632-2.52165-7.51704-5.06669-9.37021-7.63479-1.85318-2.56642-2.85969-5.54655-3.03341-8.94039-.01657-.32058-.03179-.64116-.04836-.96174-.16521-3.20915,.42221-5.91571,1.7596-8.11655,1.33112-2.19939,3.73277-3.89552,7.19332-5.08807,3.45786-1.19154,8.12775-1.78915,13.99443-1.78915,8.48773,.00034,16.45205,1.10098,23.89476,3.3025,7.44182,2.19928,14.05666,4.76794,19.83962,7.70105-1.7493-11.87462-3.49547-23.74913-5.23493-35.62365-5.48118-2.84021-12.23751-5.3172-20.26541-7.42704-8.03104-2.10805-17.34394-3.16269-27.94766-3.16281-18.60029-.00011-32.49532,4.14961-41.74285,12.44705-9.2435,8.29979-13.54266,20.19769-12.84912,35.69349,.03268,.73306,.06582,1.46611,.09805,2.19928,.43296,9.628,2.51045,17.67493,6.25576,24.14012,3.74531,6.46374,9.15664,12.01376,16.25191,16.64323,7.09034,4.63127,15.80238,9.00844,26.1321,13.13478,6.97214,2.66089,12.55182,5.08975,16.73278,7.28914,4.17379,2.2014,7.24884,4.56343,9.21619,7.08497,1.96377,2.52165,3.05535,5.70773,3.26623,9.55826,.03224,.59638,.06537,1.19277,.0985,1.78915,.30401,5.50166-1.46186,9.628-5.30074,12.379-3.83441,2.751-10.39105,4.12656-19.65246,4.12633-9.26097,0-18.06255-1.26094-26.38686-3.78247-8.32565-2.52176-15.62195-5.29582-21.89025-8.32251,1.66826,12.70014,3.34279,25.40027,5.02315,38.10052,3.85232,1.74259,8.34848,3.39384,13.48714,4.95196,5.13642,1.56002,10.79312,2.81883,16.97097,3.78247,6.17741,.9614,12.85852,1.44361,20.04781,1.4435,21.20208,.00011,36.74836-4.35333,46.58198-13.06672Z"/>
  </g>
  <g>
    <path class="cls-1" d="M533.20453,342.49656c-5.07867-1.44518-11.5977-2.53251-19.56292-3.26489-6.13532-.57646-10.76133-1.2606-13.87667-2.05063-3.11445-.78768-5.19284-1.79072-6.23472-3.00341-1.04681-1.21247-1.50976-2.70444-1.40589-4.47736,.10387-1.73341,.74503-3.20556,1.92302-4.41826,1.18023-1.21426,3.15295-2.13839,5.91459-2.77417,2.76522-.63578,6.57813-.95267,11.44636-.95278,6.58037,.00011,12.72868,.6444,18.44492,1.93601,5.71759,1.28959,10.76178,2.97464,15.13615,5.05404-.37699-4.79491-.75488-9.58983-1.13008-14.38485-3.65308-1.57793-8.20118-3.00296-13.63176-4.27498-5.43148-1.26944-12.01767-1.90523-19.75186-1.90556-11.54352-.00011-20.29855,1.8196-26.27179,5.45879-5.97548,3.63908-9.18485,9.02277-9.61692,16.14714-.00716,.11518-.01433,.23036-.02104,.34565-.29954,4.93024,.62101,8.90614,2.76029,11.92947,2.13749,3.02378,5.69699,5.34373,10.66327,6.9614,4.96673,1.61722,11.51352,2.812,19.64396,3.58189,5.79639,.499,10.31583,1.09762,13.54177,1.79094,3.22594,.69309,5.47446,1.65651,6.74066,2.887,1.26664,1.2334,1.84243,2.92819,1.72692,5.08449-.00313,.05787-.00672,.11574-.0094,.17372-.16611,3.15732-1.85049,5.44984-5.04016,6.87364-3.19325,1.42581-8.39773,2.13872-15.61031,2.13839-7.13646,.00022-13.85876-.87611-20.16646-2.6291-6.30546-1.75188-11.62546-3.68778-15.96088-5.80624,.28969,5.23784,.57982,10.47578,.87129,15.71373,2.49031,1.0008,5.4579,2.03127,8.91263,3.09117,3.45339,1.05845,7.33525,1.94373,11.65367,2.65597,4.32199,.71268,8.97576,1.06897,13.96219,1.06919,12.8039-.00067,22.43738-1.89571,28.87224-5.68983,6.43754-3.79344,9.85108-9.69437,10.25807-17.70526,.00761-.15469,.01567-.30927,.02328-.46385,.26103-5.27489-.76697-9.41443-3.09341-12.42019-2.32778-3.00319-6.03234-5.22765-11.11101-6.67126Z"/>
    <path class="cls-1" d="M567.58034,323.22959h30.85213c-.88517,20.12303-1.77035,40.24596-2.65552,60.3691h17.25887c.83816-20.12315,1.67677-40.24607,2.51538-60.3691h30.79258c.1679-4.48631,.33625-8.97262,.5046-13.45894h-78.61971c-.21626,4.48631-.43206,8.97262-.64832,13.45894Z"/>
    <path class="cls-1" d="M733.5018,348.93679c-.18894,7.3948-2.18226,13.04702-5.98712,16.95665-3.80575,3.90795-9.65318,5.86377-17.53333,5.86355-7.92134,.00034-13.67654-1.9556-17.25618-5.86355-3.58771-3.90963-5.25239-9.56184-5.01554-16.95665,.4155-13.05541,.8301-26.11083,1.24471-39.16613h-17.08783c-.44684,13.09414-.89279,26.18829-1.33918,39.28254-.4146,12.09491,2.56553,21.24058,8.95158,27.44083,6.38785,6.20002,16.43056,9.30014,30.09993,9.30037,13.71101,.00022,23.93371-3.0999,30.63273-9.30037,6.70529-6.20069,10.18867-15.34625,10.46717-27.44083,.30446-13.09426,.60892-26.1884,.91338-39.28254h-17.08828c-.33401,13.0553-.66802,26.11072-1.00203,39.16613Z"/>
    <path class="cls-1" d="M774.00442,323.22959h30.85213c-.32237,20.12303-.64429,40.24596-.96577,60.3691h17.25976c.27491-20.12315,.54982-40.24607,.82518-60.3691h30.79213c.04209-4.48631,.08507-8.97262,.1276-13.45894h-78.61926c-.09089,4.48631-.18133,8.97262-.27178,13.45894Z"/>
    <path class="cls-1" d="M949.94217,309.77066h-78.61881c-.03179,4.48631-.06224,8.97262-.09402,13.45894h30.85123c-.05641,20.12303-.11283,40.24596-.16924,60.3691h17.25976c.0103-20.12315,.01925-40.24607,.0291-60.3691h30.79168c-.01701-4.48631-.03313-8.97262-.0497-13.45894Z"/>
    <path class="cls-1" d="M1048.8246,369.73501c-.16074-9.47409-.32192-18.94818-.48311-28.42226h-38.94987c.04925,4.217,.0985,8.43411,.14865,12.65122,7.76329-.05339,15.52703-.10678,23.29076-.16007,.03671,2.47956,.07343,4.95901,.11059,7.43846-1.03114,1.8881-2.55971,3.65017-4.59556,5.28507-2.03317,1.63894-4.55123,2.93692-7.55823,3.90067-3.0061,.96129-6.56828,1.44395-10.68656,1.4435-9.13381,.00022-16.01998-2.17633-20.64241-6.52799-4.62153-4.35166-6.9596-10.37874-7.02094-18.08136-.00269-.34688-.00537-.69377-.00851-1.04054-.06268-7.93231,2.39628-14.03719,7.3657-18.31239,4.96763-4.27453,12.56839-6.41169,22.81079-6.41158,6.93229,.00045,13.08149,.70205,18.46059,2.10794,5.37328,1.40544,10.26524,3.07102,14.66245,4.99673-.60489-4.69831-1.20844-9.39652-1.81109-14.09472-2.62776-1.27101-5.62311-2.41609-8.98113-3.43682-3.36205-1.02073-7.08363-1.85866-11.17638-2.51448-4.0932-.65392-8.56429-.98155-13.42267-.98144-15.15854,.00011-26.59192,3.42786-34.32566,10.28359-7.7324,6.85595-11.58203,16.38735-11.51532,28.59419,.00224,.32774,.00403,.65549,.00582,.98323,.04388,8.1254,1.69065,15.03821,4.93673,20.73912,3.24967,5.69912,7.86582,10.05044,13.86055,13.05597,5.99205,3.0033,13.0797,4.50389,21.25088,4.50422,6.12368-.00034,11.12758-.71268,14.99691-2.13659,3.86888-1.42324,6.84454-3.35074,8.93098-5.77758,2.07839-2.42482,3.51652-5.14001,4.29244-8.14521l.55206,.00201c-.07567,4.64022-.15089,9.28055-.22655,13.92078h15.96357c-.0788-4.62119-.15716-9.2425-.23596-13.86369h.00045Z"/>
    <path class="cls-1" d="M1105.19364,309.77066c-10.49045,24.60935-21.09283,49.21869-31.80535,73.82804h17.84809c2.57627-6.21994,5.13195-12.43989,7.69479-18.65983h40.51202c2.85745,6.21994,5.70773,12.43989,8.57906,18.65983h17.85033c-11.91872-24.60935-23.72731-49.21869-35.42575-73.82804h-25.25319Zm-.80861,41.9403c4.30811-10.49493,8.59697-20.98985,12.86613-31.48478,.5834-.00011,1.16725-.00011,1.75109,0,4.76704,10.49493,9.55378,20.98985,14.35978,31.48478h-28.97701Z"/>
    <path class="cls-1" d="M1261.7901,358.32491c-1.58364-2.94621-3.82948-5.21847-6.73484-6.81633-1.82273-1.00226-4.12768-1.7211-6.8123-2.21629-.00851-.19555-.01701-.39099-.02552-.58653,5.95444-.61463,10.31001-2.35845,13.06941-5.22776,2.75895-2.86853,4.01529-6.92188,3.77173-12.1605-.0103-.21133-.01925-.42266-.02955-.63399-.31162-6.70126-2.9273-11.86309-7.83806-15.4827-4.91121-3.6195-12.47436-5.43014-22.7011-5.43014h-46.01559c.88831,24.60935,1.77751,49.21869,2.66582,73.82804h16.9065c-.32192-8.38945-.6434-16.77867-.96621-25.16801,8.20073,.03213,16.40146,.06436,24.60218,.0966,3.8362,0,6.83066,.49072,8.98695,1.47216,2.15271,.98289,3.83172,2.50564,5.01374,4.56511,1.1865,2.05936,2.14734,4.72787,2.8776,8.00014,.86682,3.67793,1.73542,7.35596,2.60448,11.034h18.3209c-1.20351-4.73704-2.40434-9.47409-3.60338-14.21113-1.14352-4.42878-2.50732-8.11678-4.09275-11.06265Zm-27.88274-12.50615c-9.12217,.03224-18.24389,.06459-27.36606,.09693-.29371-7.65818-.58788-15.31626-.88159-22.97444h27.51873c5.02539,.00034,8.69682,.96375,11.02281,2.88879,2.3242,1.92728,3.56353,4.60306,3.71262,8.03059,.00851,.21133,.01836,.42266,.02776,.63399,.14865,3.42932-.87846,6.17338-3.09341,8.23296-2.21361,2.06149-5.86176,3.09162-10.94087,3.09117Z"/>
    <path class="cls-1" d="M1363.84922,309.77066h-78.61971c.22118,4.48631,.44147,8.97262,.6631,13.45894h30.85213c1.07546,20.12303,2.15047,40.24596,3.22594,60.3691h17.25932c-1.12158-20.12315-2.24405-40.24607-3.36608-60.3691h30.79213c-.26954-4.48631-.53818-8.97262-.80682-13.45894Z"/>
  </g>
</svg>