<?xml version="1.0" encoding="UTF-8"?>
<svg xmlns="http://www.w3.org/2000/svg" xmlns:xlink="http://www.w3.org/1999/xlink" width="400px" height="97px" viewBox="0 0 396 97" version="1.1">
<g id="surface1">
<path style=" stroke:none;fill-rule:nonzero;fill:rgb(98.8%,98.8%,98.8%);fill-opacity:1;" d="M 88.480469 64.210938 L 83.949219 64.210938 L 83.949219 42.785156 C 83.949219 36.449219 82.621094 30.273438 74.492188 30.273438 C 66.675781 30.273438 65.269531 37.390625 65.269531 43.332031 L 65.269531 64.210938 L 60.738281 64.210938 L 60.738281 42.785156 C 60.738281 36.449219 59.253906 30.273438 51.203125 30.273438 C 46.828125 30.273438 42.292969 34.023438 42.292969 38.484375 L 42.292969 64.210938 L 37.757812 64.210938 L 37.757812 25.636719 L 41.746094 25.636719 L 41.824219 31.445312 C 44.089844 27.300781 48.3125 25.738281 51.359375 25.738281 C 56.59375 25.738281 60.738281 27.769531 63.238281 33.398438 C 65.425781 27.847656 69.648438 25.738281 74.492188 25.738281 C 84.890625 25.738281 88.480469 33.011719 88.480469 42.785156 Z M 88.480469 64.210938 "/>
<path style=" stroke:none;fill-rule:nonzero;fill:rgb(98.8%,98.8%,98.8%);fill-opacity:1;" d="M 125.296875 64.253906 L 96.140625 64.253906 L 96.140625 59.796875 L 119.511719 30.136719 L 97.78125 30.136719 L 97.78125 25.679688 L 125.296875 25.679688 L 125.296875 29.902344 L 101.769531 59.796875 L 125.296875 59.796875 Z M 125.296875 64.253906 "/>
<path style=" stroke:none;fill-rule:nonzero;fill:rgb(98.8%,98.8%,98.8%);fill-opacity:1;" d="M 222.082031 37.007812 C 222.113281 36.21875 221.839844 35.449219 221.308594 34.859375 C 220.796875 34.304688 219.894531 33.820312 218.601562 33.398438 C 217.132812 32.945312 216.019531 32.363281 215.261719 31.652344 C 214.507812 30.9375 214.128906 29.984375 214.128906 28.785156 C 214.09375 27.640625 214.554688 26.535156 215.394531 25.761719 C 216.242188 24.980469 217.335938 24.589844 218.667969 24.585938 C 220.074219 24.585938 221.199219 25.050781 222.054688 25.972656 C 222.902344 26.886719 223.351562 28.101562 223.300781 29.351562 L 223.265625 29.417969 L 222.015625 29.417969 C 222.015625 28.347656 221.71875 27.46875 221.125 26.785156 C 220.527344 26.101562 219.710938 25.761719 218.667969 25.761719 C 217.65625 25.761719 216.871094 26.042969 216.308594 26.613281 C 215.75 27.183594 215.445312 27.957031 215.46875 28.753906 C 215.449219 29.507812 215.746094 30.234375 216.28125 30.765625 C 216.824219 31.308594 217.746094 31.78125 219.046875 32.1875 C 220.476562 32.628906 221.566406 33.230469 222.308594 33.988281 C 223.050781 34.746094 223.417969 35.742188 223.417969 36.976562 C 223.417969 38.269531 222.980469 39.296875 222.109375 40.050781 C 221.234375 40.808594 220.109375 41.1875 218.734375 41.1875 C 217.453125 41.210938 216.203125 40.78125 215.210938 39.96875 C 214.207031 39.15625 213.726562 37.976562 213.761719 36.433594 L 213.785156 36.367188 L 215.023438 36.367188 C 215.023438 37.628906 215.390625 38.5625 216.117188 39.160156 C 216.855469 39.761719 217.785156 40.082031 218.734375 40.058594 C 219.738281 40.058594 220.546875 39.78125 221.160156 39.222656 C 221.777344 38.65625 222.113281 37.847656 222.082031 37.007812 Z M 222.082031 37.007812 "/>
<path style=" stroke:none;fill-rule:nonzero;fill:rgb(98.8%,98.8%,98.8%);fill-opacity:1;" d="M 227.785156 25.90625 L 227.785156 28.964844 L 229.867188 28.964844 L 229.867188 30.09375 L 227.785156 30.09375 L 227.785156 37.863281 C 227.785156 38.640625 227.894531 39.191406 228.117188 39.515625 C 228.300781 39.820312 228.632812 40.003906 228.992188 40 C 229.164062 40 229.339844 39.988281 229.511719 39.96875 C 229.679688 39.945312 229.871094 39.914062 230.085938 39.867188 L 230.265625 40.886719 C 230.042969 40.988281 229.8125 41.0625 229.574219 41.105469 C 229.289062 41.160156 229 41.1875 228.714844 41.1875 C 228.0625 41.214844 227.4375 40.914062 227.046875 40.390625 C 226.644531 39.859375 226.445312 39.015625 226.445312 37.867188 L 226.445312 30.09375 L 224.78125 30.09375 L 224.78125 28.964844 L 226.445312 28.964844 L 226.445312 25.90625 Z M 227.785156 25.90625 "/>
<path style=" stroke:none;fill-rule:nonzero;fill:rgb(98.8%,98.8%,98.8%);fill-opacity:1;" d="M 238.605469 40.953125 C 238.539062 40.539062 238.488281 40.199219 238.453125 39.933594 C 238.421875 39.667969 238.40625 39.398438 238.40625 39.128906 C 238.050781 39.71875 237.566406 40.222656 236.992188 40.605469 C 236.421875 40.992188 235.75 41.191406 235.0625 41.1875 C 234.070312 41.1875 233.308594 40.878906 232.765625 40.261719 C 232.226562 39.644531 231.960938 38.8125 231.960938 37.761719 C 231.917969 36.742188 232.351562 35.757812 233.132812 35.097656 C 233.917969 34.4375 234.976562 34.105469 236.3125 34.105469 L 238.40625 34.105469 L 238.40625 32.628906 C 238.40625 31.785156 238.191406 31.117188 237.761719 30.636719 C 237.335938 30.15625 236.738281 29.917969 235.96875 29.917969 C 235.3125 29.894531 234.671875 30.140625 234.203125 30.605469 C 233.75 31.046875 233.496094 31.65625 233.511719 32.289062 L 232.269531 32.277344 L 232.246094 32.210938 C 232.214844 31.296875 232.589844 30.414062 233.273438 29.800781 C 234.011719 29.085938 235.007812 28.703125 236.035156 28.742188 C 237.144531 28.742188 238.035156 29.082031 238.714844 29.757812 C 239.394531 30.429688 239.734375 31.398438 239.734375 32.65625 L 239.734375 38.539062 C 239.734375 38.96875 239.75 39.382812 239.789062 39.78125 C 239.824219 40.175781 239.890625 40.570312 239.988281 40.953125 Z M 235.226562 39.988281 C 235.933594 40 236.625 39.777344 237.191406 39.355469 C 237.75 38.945312 238.175781 38.378906 238.40625 37.726562 L 238.40625 35.136719 L 236.277344 35.136719 C 235.371094 35.136719 234.644531 35.394531 234.101562 35.90625 C 233.570312 36.394531 233.273438 37.085938 233.289062 37.808594 C 233.265625 38.375 233.445312 38.933594 233.796875 39.378906 C 234.152344 39.792969 234.679688 40.019531 235.226562 39.988281 Z M 235.226562 39.988281 "/>
<path style=" stroke:none;fill-rule:nonzero;fill:rgb(98.8%,98.8%,98.8%);fill-opacity:1;" d="M 242.335938 35.070312 C 242.335938 33.148438 242.671875 31.617188 243.34375 30.464844 C 244.015625 29.316406 244.957031 28.742188 246.167969 28.742188 C 246.773438 28.726562 247.375 28.890625 247.890625 29.207031 C 248.402344 29.539062 248.828125 29.992188 249.125 30.527344 L 249.125 23.667969 L 250.457031 23.667969 L 250.457031 40.953125 L 249.28125 40.953125 L 249.171875 39.402344 C 248.871094 39.945312 248.441406 40.398438 247.917969 40.726562 C 247.386719 41.042969 246.777344 41.199219 246.160156 41.1875 C 244.960938 41.1875 244.027344 40.652344 243.351562 39.585938 C 242.675781 38.519531 242.335938 37.089844 242.335938 35.300781 Z M 243.6875 35.300781 C 243.6875 36.742188 243.914062 37.886719 244.367188 38.734375 C 244.746094 39.53125 245.5625 40.03125 246.445312 40 C 247.035156 40.019531 247.613281 39.832031 248.082031 39.46875 C 248.550781 39.070312 248.910156 38.5625 249.125 37.984375 L 249.125 32.109375 C 248.914062 31.515625 248.566406 30.980469 248.109375 30.542969 C 247.660156 30.136719 247.074219 29.917969 246.46875 29.9375 C 245.53125 29.9375 244.832031 30.410156 244.375 31.359375 C 243.917969 32.304688 243.6875 33.539062 243.6875 35.070312 Z M 243.6875 35.300781 "/>
<path style=" stroke:none;fill-rule:nonzero;fill:rgb(98.8%,98.8%,98.8%);fill-opacity:1;" d="M 255.460938 25.90625 L 255.460938 28.964844 L 257.542969 28.964844 L 257.542969 30.09375 L 255.460938 30.09375 L 255.460938 37.863281 C 255.460938 38.640625 255.570312 39.191406 255.792969 39.515625 C 255.976562 39.820312 256.308594 40.003906 256.667969 40 C 256.839844 40 257.015625 39.988281 257.1875 39.96875 C 257.355469 39.945312 257.546875 39.914062 257.761719 39.867188 L 257.941406 40.886719 C 257.71875 40.988281 257.488281 41.0625 257.25 41.105469 C 256.964844 41.160156 256.675781 41.1875 256.390625 41.1875 C 255.738281 41.214844 255.113281 40.914062 254.722656 40.390625 C 254.320312 39.859375 254.121094 39.015625 254.121094 37.867188 L 254.121094 30.09375 L 252.457031 30.09375 L 252.457031 28.964844 L 254.121094 28.964844 L 254.121094 25.90625 Z M 255.460938 25.90625 "/>
<path style=" stroke:none;fill-rule:nonzero;fill:rgb(98.8%,98.8%,98.8%);fill-opacity:1;" d="M 261.195312 28.964844 L 261.308594 30.824219 C 261.582031 30.210938 262.019531 29.679688 262.570312 29.285156 C 263.113281 28.917969 263.761719 28.726562 264.421875 28.742188 C 265.085938 28.722656 265.738281 28.949219 266.246094 29.378906 C 266.742188 29.804688 267.101562 30.449219 267.332031 31.3125 C 267.578125 30.585938 268.011719 29.9375 268.589844 29.429688 C 269.140625 28.96875 269.839844 28.722656 270.554688 28.742188 C 271.539062 28.707031 272.46875 29.195312 272.996094 30.023438 C 273.578125 30.875 273.867188 32.183594 273.867188 33.949219 L 273.867188 40.953125 L 272.527344 40.953125 L 272.527344 33.929688 C 272.527344 32.457031 272.328125 31.425781 271.929688 30.824219 C 271.5625 30.242188 270.910156 29.902344 270.222656 29.925781 C 269.480469 29.910156 268.789062 30.289062 268.40625 30.925781 C 267.941406 31.683594 267.667969 32.542969 267.609375 33.429688 L 267.609375 40.953125 L 266.28125 40.953125 L 266.28125 33.941406 C 266.28125 32.496094 266.078125 31.472656 265.664062 30.859375 C 265.300781 30.269531 264.648438 29.917969 263.953125 29.9375 C 263.328125 29.910156 262.71875 30.140625 262.265625 30.578125 C 261.808594 31.0625 261.492188 31.667969 261.351562 32.320312 L 261.351562 40.953125 L 260.023438 40.953125 L 260.023438 28.964844 Z M 261.195312 28.964844 "/>
<path style=" stroke:none;fill-rule:nonzero;fill:rgb(98.8%,98.8%,98.8%);fill-opacity:1;" d="M 280.699219 41.1875 C 279.472656 41.21875 278.304688 40.679688 277.53125 39.730469 C 276.710938 38.757812 276.300781 37.519531 276.300781 36.011719 L 276.300781 34.015625 C 276.300781 32.503906 276.714844 31.246094 277.539062 30.246094 C 278.359375 29.242188 279.351562 28.742188 280.511719 28.742188 C 281.765625 28.742188 282.742188 29.191406 283.433594 30.085938 C 284.128906 30.976562 284.476562 32.179688 284.476562 33.691406 L 284.476562 35.003906 L 277.621094 35.003906 L 277.621094 36 C 277.621094 37.160156 277.898438 38.128906 278.449219 38.902344 C 278.953125 39.644531 279.800781 40.082031 280.699219 40.058594 C 281.285156 40.074219 281.867188 39.953125 282.398438 39.710938 C 282.875 39.480469 283.292969 39.140625 283.621094 38.726562 L 284.164062 39.664062 C 283.792969 40.136719 283.3125 40.519531 282.765625 40.773438 C 282.117188 41.0625 281.410156 41.203125 280.699219 41.1875 Z M 280.511719 29.917969 C 279.675781 29.917969 278.992188 30.296875 278.457031 31.058594 C 277.898438 31.890625 277.609375 32.871094 277.621094 33.871094 L 283.148438 33.871094 L 283.148438 33.363281 C 283.179688 32.488281 282.933594 31.625 282.449219 30.898438 C 282.011719 30.257812 281.28125 29.890625 280.511719 29.917969 Z M 280.511719 29.917969 "/>
<path style=" stroke:none;fill-rule:nonzero;fill:rgb(98.8%,98.8%,98.8%);fill-opacity:1;" d="M 286.367188 35.070312 C 286.367188 33.148438 286.703125 31.617188 287.378906 30.464844 C 288.050781 29.316406 288.992188 28.742188 290.199219 28.742188 C 290.808594 28.726562 291.40625 28.890625 291.921875 29.207031 C 292.4375 29.539062 292.859375 29.992188 293.160156 30.527344 L 293.160156 23.667969 L 294.488281 23.667969 L 294.488281 40.953125 L 293.3125 40.953125 L 293.203125 39.402344 C 292.90625 39.945312 292.472656 40.398438 291.949219 40.726562 C 291.417969 41.042969 290.808594 41.199219 290.191406 41.1875 C 288.996094 41.1875 288.058594 40.652344 287.382812 39.585938 C 286.707031 38.519531 286.371094 37.089844 286.367188 35.300781 Z M 287.71875 35.300781 C 287.71875 36.742188 287.945312 37.886719 288.402344 38.734375 C 288.78125 39.53125 289.597656 40.03125 290.480469 40 C 291.070312 40.019531 291.648438 39.832031 292.113281 39.46875 C 292.582031 39.070312 292.941406 38.5625 293.160156 37.984375 L 293.160156 32.109375 C 292.945312 31.515625 292.597656 30.980469 292.140625 30.542969 C 291.691406 30.136719 291.105469 29.917969 290.5 29.9375 C 289.5625 29.9375 288.863281 30.410156 288.40625 31.359375 C 287.949219 32.304688 287.71875 33.539062 287.71875 35.070312 Z M 287.71875 35.300781 "/>
<path style=" stroke:none;fill-rule:nonzero;fill:rgb(98.8%,98.8%,98.8%);fill-opacity:1;" d="M 299.003906 25.550781 L 297.664062 25.550781 L 297.664062 23.667969 L 299.003906 23.667969 Z M 299.003906 40.953125 L 297.664062 40.953125 L 297.664062 28.964844 L 299.003906 28.964844 Z M 299.003906 40.953125 "/>
<path style=" stroke:none;fill-rule:nonzero;fill:rgb(98.8%,98.8%,98.8%);fill-opacity:1;" d="M 306.011719 41.1875 C 304.789062 41.21875 303.621094 40.679688 302.847656 39.730469 C 302.027344 38.757812 301.617188 37.519531 301.617188 36.011719 L 301.617188 34.015625 C 301.617188 32.503906 302.03125 31.246094 302.851562 30.246094 C 303.675781 29.242188 304.667969 28.742188 305.828125 28.742188 C 307.082031 28.742188 308.054688 29.191406 308.75 30.085938 C 309.445312 30.976562 309.792969 32.179688 309.792969 33.691406 L 309.792969 35.003906 L 302.933594 35.003906 L 302.933594 36 C 302.933594 37.160156 303.210938 38.128906 303.765625 38.902344 C 304.269531 39.644531 305.117188 40.082031 306.011719 40.058594 C 306.597656 40.074219 307.179688 39.953125 307.714844 39.710938 C 308.191406 39.480469 308.609375 39.140625 308.9375 38.726562 L 309.480469 39.664062 C 309.105469 40.136719 308.628906 40.519531 308.082031 40.773438 C 307.429688 41.0625 306.726562 41.203125 306.011719 41.1875 Z M 305.828125 29.917969 C 304.992188 29.917969 304.308594 30.296875 303.769531 31.058594 C 303.214844 31.890625 302.921875 32.871094 302.933594 33.871094 L 308.460938 33.871094 L 308.460938 33.363281 C 308.496094 32.488281 308.25 31.625 307.761719 30.898438 C 307.328125 30.257812 306.597656 29.890625 305.828125 29.917969 Z M 305.828125 29.917969 "/>
<path style=" stroke:none;fill-rule:nonzero;fill:rgb(98.8%,98.8%,98.8%);fill-opacity:1;" d="M 313.300781 28.964844 L 313.410156 30.945312 C 313.683594 30.300781 314.125 29.742188 314.683594 29.320312 C 315.222656 28.929688 315.871094 28.726562 316.535156 28.742188 C 317.605469 28.742188 318.425781 29.140625 319 29.933594 C 319.570312 30.726562 319.859375 31.960938 319.859375 33.640625 L 319.859375 40.953125 L 318.519531 40.953125 L 318.519531 33.648438 C 318.519531 32.285156 318.320312 31.324219 317.921875 30.769531 C 317.519531 30.214844 316.863281 29.902344 316.179688 29.9375 C 315.546875 29.921875 314.929688 30.164062 314.476562 30.609375 C 313.988281 31.109375 313.632812 31.726562 313.445312 32.398438 L 313.445312 40.953125 L 312.117188 40.953125 L 312.117188 28.964844 Z M 313.300781 28.964844 "/>
<path style=" stroke:none;fill-rule:nonzero;fill:rgb(98.8%,98.8%,98.8%);fill-opacity:1;" d="M 323.722656 39.824219 L 329.804688 39.824219 L 329.804688 40.953125 L 322.238281 40.953125 L 322.238281 39.957031 L 327.90625 30.148438 L 322.371094 30.148438 L 322.371094 28.964844 L 329.425781 28.964844 L 329.425781 29.972656 Z M 323.722656 39.824219 "/>
<path style=" stroke:none;fill-rule:nonzero;fill:rgb(98.8%,98.8%,98.8%);fill-opacity:1;" d="M 335.683594 41.1875 C 334.457031 41.21875 333.289062 40.679688 332.515625 39.730469 C 331.695312 38.757812 331.285156 37.519531 331.289062 36.011719 L 331.289062 34.015625 C 331.289062 32.503906 331.699219 31.246094 332.523438 30.246094 C 333.34375 29.242188 334.335938 28.742188 335.496094 28.742188 C 336.75 28.742188 337.726562 29.191406 338.417969 30.085938 C 339.113281 30.976562 339.460938 32.179688 339.460938 33.691406 L 339.460938 35.003906 L 332.605469 35.003906 L 332.605469 36 C 332.605469 37.160156 332.882812 38.128906 333.4375 38.902344 C 333.9375 39.644531 334.785156 40.082031 335.683594 40.058594 C 336.269531 40.074219 336.851562 39.953125 337.382812 39.710938 C 337.859375 39.480469 338.277344 39.140625 338.605469 38.726562 L 339.152344 39.664062 C 338.777344 40.136719 338.296875 40.519531 337.75 40.773438 C 337.101562 41.0625 336.394531 41.203125 335.683594 41.1875 Z M 335.496094 29.917969 C 334.660156 29.917969 333.976562 30.296875 333.441406 31.058594 C 332.882812 31.890625 332.59375 32.871094 332.605469 33.871094 L 338.132812 33.871094 L 338.132812 33.363281 C 338.164062 32.488281 337.921875 31.625 337.433594 30.898438 C 337 30.257812 336.265625 29.890625 335.496094 29.917969 Z M 335.496094 29.917969 "/>
<path style=" stroke:none;fill-rule:nonzero;fill:rgb(98.8%,98.8%,98.8%);fill-opacity:1;" d="M 342.96875 28.964844 L 343.082031 30.945312 C 343.355469 30.300781 343.792969 29.742188 344.351562 29.320312 C 344.890625 28.929688 345.539062 28.726562 346.203125 28.742188 C 347.273438 28.742188 348.097656 29.140625 348.671875 29.933594 C 349.242188 30.726562 349.527344 31.960938 349.527344 33.640625 L 349.527344 40.953125 L 348.1875 40.953125 L 348.1875 33.648438 C 348.1875 32.285156 347.988281 31.324219 347.589844 30.769531 C 347.1875 30.214844 346.53125 29.902344 345.851562 29.9375 C 345.214844 29.921875 344.597656 30.164062 344.144531 30.609375 C 343.65625 31.109375 343.300781 31.726562 343.117188 32.398438 L 343.117188 40.953125 L 341.785156 40.953125 L 341.785156 28.964844 Z M 342.96875 28.964844 "/>
<path style=" stroke:none;fill-rule:nonzero;fill:rgb(98.8%,98.8%,98.8%);fill-opacity:1;" d="M 354.476562 25.90625 L 354.476562 28.964844 L 356.558594 28.964844 L 356.558594 30.09375 L 354.476562 30.09375 L 354.476562 37.863281 C 354.476562 38.640625 354.585938 39.191406 354.808594 39.515625 C 354.996094 39.820312 355.328125 40.003906 355.683594 40 C 355.859375 40 356.03125 39.988281 356.203125 39.96875 C 356.375 39.945312 356.566406 39.914062 356.78125 39.867188 L 356.957031 40.886719 C 356.738281 40.988281 356.503906 41.0625 356.265625 41.105469 C 355.980469 41.160156 355.695312 41.1875 355.40625 41.1875 C 354.753906 41.214844 354.128906 40.914062 353.742188 40.390625 C 353.339844 39.859375 353.136719 39.015625 353.136719 37.867188 L 353.136719 30.09375 L 351.476562 30.09375 L 351.476562 28.964844 L 353.136719 28.964844 L 353.136719 25.90625 Z M 354.476562 25.90625 "/>
<path style=" stroke:none;fill-rule:nonzero;fill:rgb(98.8%,98.8%,98.8%);fill-opacity:1;" d="M 363.714844 30.160156 L 362.839844 30.09375 C 362.261719 30.078125 361.703125 30.304688 361.296875 30.71875 C 360.855469 31.207031 360.546875 31.800781 360.402344 32.445312 L 360.402344 40.953125 L 359.074219 40.953125 L 359.074219 28.964844 L 360.246094 28.964844 L 360.402344 30.945312 C 360.636719 30.324219 361.019531 29.765625 361.515625 29.324219 C 361.96875 28.941406 362.542969 28.734375 363.136719 28.742188 C 363.277344 28.742188 363.417969 28.753906 363.558594 28.78125 C 363.671875 28.800781 363.78125 28.828125 363.890625 28.863281 Z M 363.714844 30.160156 "/>
<path style=" stroke:none;fill-rule:nonzero;fill:rgb(98.8%,98.8%,98.8%);fill-opacity:1;" d="M 372.175781 39.082031 C 371.898438 39.703125 371.460938 40.242188 370.910156 40.640625 C 370.371094 41.007812 369.726562 41.199219 369.074219 41.1875 C 368.078125 41.222656 367.136719 40.738281 366.585938 39.90625 C 365.992188 39.054688 365.695312 37.726562 365.695312 35.921875 L 365.695312 28.964844 L 367.023438 28.964844 L 367.023438 35.945312 C 367.023438 37.402344 367.214844 38.441406 367.59375 39.066406 C 367.929688 39.664062 368.566406 40.023438 369.25 40 C 369.921875 40.03125 370.585938 39.8125 371.105469 39.386719 C 371.605469 38.9375 371.964844 38.347656 372.128906 37.695312 L 372.128906 28.964844 L 373.460938 28.964844 L 373.460938 40.953125 L 372.261719 40.953125 Z M 372.175781 39.082031 "/>
<path style=" stroke:none;fill-rule:nonzero;fill:rgb(98.8%,98.8%,98.8%);fill-opacity:1;" d="M 377.597656 28.964844 L 377.710938 30.824219 C 377.988281 30.210938 378.421875 29.679688 378.972656 29.285156 C 379.519531 28.917969 380.164062 28.726562 380.824219 28.742188 C 381.488281 28.722656 382.140625 28.949219 382.648438 29.378906 C 383.144531 29.804688 383.503906 30.449219 383.734375 31.3125 C 383.984375 30.585938 384.417969 29.9375 384.992188 29.429688 C 385.542969 28.96875 386.242188 28.722656 386.957031 28.742188 C 387.941406 28.707031 388.871094 29.195312 389.398438 30.023438 C 389.980469 30.875 390.269531 32.183594 390.269531 33.949219 L 390.269531 40.953125 L 388.929688 40.953125 L 388.929688 33.929688 C 388.929688 32.457031 388.730469 31.425781 388.332031 30.824219 C 387.964844 30.242188 387.3125 29.902344 386.625 29.925781 C 385.886719 29.910156 385.191406 30.289062 384.808594 30.925781 C 384.34375 31.683594 384.070312 32.542969 384.011719 33.429688 L 384.011719 40.953125 L 382.683594 40.953125 L 382.683594 33.941406 C 382.683594 32.496094 382.480469 31.472656 382.066406 30.859375 C 381.703125 30.269531 381.050781 29.917969 380.359375 29.9375 C 379.730469 29.910156 379.121094 30.140625 378.667969 30.578125 C 378.210938 31.0625 377.894531 31.667969 377.753906 32.320312 L 377.753906 40.953125 L 376.425781 40.953125 L 376.425781 28.964844 Z M 377.597656 28.964844 "/>
<path style=" stroke:none;fill-rule:nonzero;fill:rgb(98.8%,98.8%,98.8%);fill-opacity:1;" d="M 222.082031 60.207031 C 222.113281 59.417969 221.839844 58.644531 221.308594 58.058594 C 220.796875 57.503906 219.894531 57.019531 218.601562 56.59375 C 217.132812 56.144531 216.019531 55.5625 215.261719 54.847656 C 214.507812 54.136719 214.128906 53.183594 214.128906 51.984375 C 214.09375 50.839844 214.554688 49.734375 215.394531 48.957031 C 216.242188 48.175781 217.335938 47.785156 218.667969 47.785156 C 220.074219 47.785156 221.199219 48.246094 222.054688 49.171875 C 222.902344 50.085938 223.351562 51.300781 223.300781 52.546875 L 223.265625 52.617188 L 222.015625 52.617188 C 222.015625 51.546875 221.71875 50.667969 221.125 49.984375 C 220.527344 49.300781 219.710938 48.957031 218.667969 48.957031 C 217.65625 48.957031 216.871094 49.242188 216.308594 49.8125 C 215.75 50.382812 215.445312 51.15625 215.46875 51.953125 C 215.449219 52.707031 215.746094 53.433594 216.28125 53.960938 C 216.824219 54.507812 217.746094 54.980469 219.046875 55.386719 C 220.476562 55.828125 221.566406 56.429688 222.308594 57.1875 C 223.050781 57.945312 223.417969 58.941406 223.417969 60.171875 C 223.417969 61.46875 222.980469 62.492188 222.109375 63.25 C 221.234375 64.007812 220.109375 64.386719 218.734375 64.382812 C 217.453125 64.410156 216.203125 63.976562 215.210938 63.167969 C 214.207031 62.355469 213.726562 61.175781 213.761719 59.632812 L 213.785156 59.566406 L 215.023438 59.566406 C 215.023438 60.828125 215.390625 61.757812 216.117188 62.359375 C 216.855469 62.960938 217.785156 63.277344 218.734375 63.257812 C 219.738281 63.257812 220.546875 62.976562 221.160156 62.421875 C 221.777344 61.855469 222.113281 61.046875 222.082031 60.207031 Z M 222.082031 60.207031 "/>
<path style=" stroke:none;fill-rule:nonzero;fill:rgb(98.8%,98.8%,98.8%);fill-opacity:1;" d="M 227.785156 49.101562 L 227.785156 52.160156 L 229.867188 52.160156 L 229.867188 53.292969 L 227.785156 53.292969 L 227.785156 61.0625 C 227.785156 61.835938 227.894531 62.386719 228.117188 62.710938 C 228.300781 63.015625 228.632812 63.203125 228.992188 63.199219 C 229.164062 63.199219 229.339844 63.1875 229.511719 63.167969 C 229.679688 63.144531 229.871094 63.109375 230.085938 63.066406 L 230.265625 64.085938 C 230.042969 64.1875 229.8125 64.261719 229.574219 64.304688 C 229.289062 64.355469 229 64.382812 228.714844 64.382812 C 228.0625 64.410156 227.4375 64.113281 227.046875 63.589844 C 226.644531 63.058594 226.445312 62.214844 226.445312 61.066406 L 226.445312 53.292969 L 224.78125 53.292969 L 224.78125 52.160156 L 226.445312 52.160156 L 226.445312 49.101562 Z M 227.785156 49.101562 "/>
<path style=" stroke:none;fill-rule:nonzero;fill:rgb(98.8%,98.8%,98.8%);fill-opacity:1;" d="M 238.828125 62.28125 C 238.550781 62.902344 238.113281 63.4375 237.5625 63.835938 C 237.023438 64.207031 236.378906 64.398438 235.726562 64.382812 C 234.730469 64.417969 233.789062 63.9375 233.238281 63.105469 C 232.644531 62.25 232.347656 60.921875 232.347656 59.121094 L 232.347656 52.160156 L 233.675781 52.160156 L 233.675781 59.144531 C 233.675781 60.597656 233.867188 61.640625 234.246094 62.265625 C 234.582031 62.859375 235.21875 63.222656 235.902344 63.199219 C 236.574219 63.230469 237.238281 63.011719 237.757812 62.585938 C 238.257812 62.132812 238.613281 61.546875 238.78125 60.894531 L 238.78125 52.160156 L 240.109375 52.160156 L 240.109375 64.152344 L 238.914062 64.152344 Z M 238.828125 62.28125 "/>
<path style=" stroke:none;fill-rule:nonzero;fill:rgb(98.8%,98.8%,98.8%);fill-opacity:1;" d="M 245.070312 49.101562 L 245.070312 52.160156 L 247.152344 52.160156 L 247.152344 53.292969 L 245.070312 53.292969 L 245.070312 61.0625 C 245.070312 61.835938 245.179688 62.386719 245.402344 62.710938 C 245.589844 63.015625 245.921875 63.203125 246.277344 63.199219 C 246.453125 63.199219 246.625 63.1875 246.796875 63.167969 C 246.96875 63.144531 247.160156 63.109375 247.375 63.066406 L 247.550781 64.085938 C 247.332031 64.1875 247.097656 64.261719 246.859375 64.304688 C 246.578125 64.355469 246.289062 64.382812 246 64.382812 C 245.347656 64.410156 244.722656 64.113281 244.335938 63.589844 C 243.933594 63.058594 243.730469 62.214844 243.730469 61.066406 L 243.730469 53.292969 L 242.070312 53.292969 L 242.070312 52.160156 L 243.730469 52.160156 L 243.730469 49.101562 Z M 245.070312 49.101562 "/>
<path style=" stroke:none;fill-rule:nonzero;fill:rgb(98.8%,98.8%,98.8%);fill-opacity:1;" d="M 251.625 49.101562 L 251.625 52.160156 L 253.710938 52.160156 L 253.710938 53.292969 L 251.625 53.292969 L 251.625 61.0625 C 251.625 61.835938 251.738281 62.386719 251.960938 62.710938 C 252.144531 63.015625 252.476562 63.203125 252.835938 63.199219 C 253.007812 63.199219 253.183594 63.1875 253.355469 63.167969 C 253.523438 63.144531 253.714844 63.109375 253.929688 63.066406 L 254.109375 64.085938 C 253.886719 64.1875 253.65625 64.261719 253.417969 64.304688 C 253.132812 64.355469 252.84375 64.382812 252.558594 64.382812 C 251.90625 64.410156 251.28125 64.113281 250.890625 63.589844 C 250.488281 63.058594 250.289062 62.214844 250.289062 61.066406 L 250.289062 53.292969 L 248.625 53.292969 L 248.625 52.160156 L 250.289062 52.160156 L 250.289062 49.101562 Z M 251.625 49.101562 "/>
<path style=" stroke:none;fill-rule:nonzero;fill:rgb(98.8%,98.8%,98.8%);fill-opacity:1;" d="M 255.792969 57.570312 C 255.792969 55.871094 256.136719 54.507812 256.824219 53.480469 C 257.429688 52.496094 258.511719 51.910156 259.667969 51.941406 C 260.292969 51.925781 260.90625 52.097656 261.433594 52.433594 C 261.964844 52.789062 262.394531 53.269531 262.691406 53.835938 L 262.824219 52.160156 L 263.953125 52.160156 L 263.953125 64.164062 C 263.953125 65.699219 263.597656 66.890625 262.878906 67.734375 C 262.164062 68.574219 261.148438 68.996094 259.835938 68.996094 C 259.320312 68.988281 258.808594 68.917969 258.3125 68.78125 C 257.808594 68.652344 257.324219 68.457031 256.867188 68.207031 L 257.230469 67.042969 C 257.605469 67.277344 258.011719 67.460938 258.441406 67.582031 C 258.886719 67.710938 259.347656 67.777344 259.8125 67.777344 C 260.765625 67.777344 261.46875 67.472656 261.925781 66.855469 C 262.382812 66.242188 262.613281 65.34375 262.613281 64.164062 L 262.613281 62.710938 C 262.304688 63.222656 261.875 63.648438 261.363281 63.953125 C 260.839844 64.25 260.246094 64.398438 259.644531 64.382812 C 258.523438 64.425781 257.460938 63.894531 256.816406 62.972656 C 256.132812 62.03125 255.792969 60.777344 255.792969 59.210938 Z M 257.132812 59.210938 C 257.132812 60.421875 257.363281 61.390625 257.828125 62.113281 C 258.292969 62.835938 258.996094 63.199219 259.933594 63.199219 C 260.519531 63.21875 261.097656 63.03125 261.5625 62.671875 C 262.03125 62.285156 262.394531 61.785156 262.613281 61.21875 L 262.613281 55.277344 C 262.394531 54.691406 262.046875 54.160156 261.589844 53.730469 C 261.140625 53.328125 260.554688 53.117188 259.957031 53.136719 C 259.074219 53.105469 258.25 53.582031 257.839844 54.367188 C 257.367188 55.1875 257.132812 56.257812 257.132812 57.570312 Z M 257.132812 59.210938 "/>
<path style=" stroke:none;fill-rule:nonzero;fill:rgb(98.8%,98.8%,98.8%);fill-opacity:1;" d="M 273.179688 64.152344 C 273.113281 63.738281 273.0625 63.398438 273.027344 63.132812 C 272.996094 62.863281 272.980469 62.59375 272.980469 62.324219 C 272.625 62.917969 272.140625 63.421875 271.566406 63.804688 C 270.996094 64.1875 270.324219 64.390625 269.636719 64.382812 C 268.644531 64.382812 267.882812 64.078125 267.339844 63.460938 C 266.800781 62.84375 266.535156 62.007812 266.535156 60.960938 C 266.492188 59.9375 266.925781 58.957031 267.707031 58.296875 C 268.492188 57.632812 269.550781 57.304688 270.886719 57.304688 L 272.980469 57.304688 L 272.980469 55.828125 C 272.980469 54.980469 272.765625 54.316406 272.335938 53.835938 C 271.910156 53.355469 271.3125 53.113281 270.542969 53.113281 C 269.886719 53.09375 269.246094 53.339844 268.777344 53.800781 C 268.324219 54.242188 268.070312 54.855469 268.085938 55.488281 L 266.84375 55.472656 L 266.820312 55.410156 C 266.789062 54.496094 267.164062 53.613281 267.847656 53 C 268.585938 52.285156 269.582031 51.902344 270.609375 51.941406 C 271.71875 51.941406 272.609375 52.277344 273.289062 52.953125 C 273.96875 53.628906 274.308594 54.597656 274.308594 55.855469 L 274.308594 61.738281 C 274.308594 62.164062 274.324219 62.578125 274.363281 62.976562 C 274.398438 63.375 274.464844 63.765625 274.5625 64.152344 Z M 269.800781 63.1875 C 270.507812 63.199219 271.199219 62.972656 271.765625 62.550781 C 272.324219 62.144531 272.75 61.578125 272.980469 60.925781 L 272.980469 58.335938 L 270.851562 58.335938 C 269.945312 58.335938 269.21875 58.59375 268.679688 59.105469 C 268.144531 59.589844 267.847656 60.285156 267.863281 61.003906 C 267.839844 61.574219 268.019531 62.132812 268.371094 62.578125 C 268.726562 62.992188 269.253906 63.21875 269.800781 63.1875 Z M 269.800781 63.1875 "/>
<path style=" stroke:none;fill-rule:nonzero;fill:rgb(98.8%,98.8%,98.8%);fill-opacity:1;" d="M 281.984375 53.359375 L 281.109375 53.292969 C 280.53125 53.277344 279.972656 53.503906 279.570312 53.917969 C 279.125 54.40625 278.816406 55 278.671875 55.640625 L 278.671875 64.152344 L 277.34375 64.152344 L 277.34375 52.160156 L 278.519531 52.160156 L 278.671875 54.144531 C 278.90625 53.519531 279.289062 52.964844 279.785156 52.523438 C 280.238281 52.136719 280.8125 51.929688 281.40625 51.941406 C 281.546875 51.941406 281.6875 51.953125 281.828125 51.980469 C 281.941406 52 282.050781 52.027344 282.160156 52.0625 Z M 281.984375 53.359375 "/>
<path style=" stroke:none;fill-rule:nonzero;fill:rgb(98.8%,98.8%,98.8%);fill-opacity:1;" d="M 286.3125 49.101562 L 286.3125 52.160156 L 288.394531 52.160156 L 288.394531 53.292969 L 286.3125 53.292969 L 286.3125 61.0625 C 286.3125 61.835938 286.421875 62.386719 286.644531 62.710938 C 286.832031 63.015625 287.164062 63.203125 287.519531 63.199219 C 287.695312 63.199219 287.867188 63.1875 288.039062 63.167969 C 288.210938 63.144531 288.402344 63.109375 288.617188 63.066406 L 288.792969 64.085938 C 288.574219 64.1875 288.339844 64.261719 288.101562 64.304688 C 287.816406 64.355469 287.53125 64.382812 287.242188 64.382812 C 286.589844 64.410156 285.964844 64.113281 285.574219 63.589844 C 285.175781 63.058594 284.972656 62.214844 284.972656 61.066406 L 284.972656 53.292969 L 283.3125 53.292969 L 283.3125 52.160156 L 284.972656 52.160156 L 284.972656 49.101562 Z M 286.3125 49.101562 "/>
<path style=" stroke:none;fill-rule:nonzero;fill:rgb(98.8%,98.8%,98.8%);fill-opacity:1;" d="M 16.265625 64.84375 C 8.863281 64.84375 2.496094 62.214844 0.746094 54.96875 L 4.964844 54.015625 C 6.398438 58.953125 11.171875 60.546875 16.183594 60.546875 C 20.242188 60.546875 25.972656 58.792969 25.972656 53.457031 C 25.972656 42.707031 1.78125 48.839844 1.78125 35.222656 C 1.78125 28.136719 8.144531 25.03125 14.910156 25.03125 C 21.277344 25.03125 25.574219 26.863281 28.679688 32.039062 L 24.9375 34.027344 C 22.789062 30.445312 19.207031 29.332031 15.230469 29.332031 C 11.886719 29.332031 6.476562 30.285156 6.476562 35.222656 C 6.476562 44.539062 30.667969 38.726562 30.667969 53.300781 C 30.667969 60.863281 23.425781 64.84375 16.265625 64.84375 Z M 16.265625 64.84375 "/>
<path style=" stroke:none;fill-rule:nonzero;fill:rgb(98.8%,98.8%,98.8%);fill-opacity:1;" d="M 8.207031 92.871094 L 3.960938 92.871094 L 2.96875 96.101562 L 1.976562 96.101562 L 5.664062 84.449219 L 6.535156 84.449219 L 10.183594 96.101562 L 9.191406 96.101562 Z M 4.234375 91.992188 L 7.945312 91.992188 L 6.121094 85.992188 L 6.074219 85.992188 Z M 4.234375 91.992188 "/>
<path style=" stroke:none;fill-rule:nonzero;fill:rgb(98.8%,98.8%,98.8%);fill-opacity:1;" d="M 14.207031 84.449219 L 17.445312 94.65625 L 17.492188 94.65625 L 20.738281 84.449219 L 21.980469 84.449219 L 21.980469 96.101562 L 21.027344 96.101562 L 21.027344 90.988281 L 21.125 86.226562 L 21.078125 86.21875 L 17.789062 96.101562 L 17.148438 96.101562 L 13.867188 86.234375 L 13.820312 86.242188 L 13.917969 90.988281 L 13.917969 96.101562 L 12.972656 96.101562 L 12.972656 84.449219 Z M 14.207031 84.449219 "/>
<path style=" stroke:none;fill-rule:nonzero;fill:rgb(98.8%,98.8%,98.8%);fill-opacity:1;" d="M 31.492188 95.285156 L 36.195312 95.285156 L 36.195312 96.101562 L 30.523438 96.101562 L 30.523438 84.449219 L 31.492188 84.449219 Z M 31.492188 95.285156 "/>
<path style=" stroke:none;fill-rule:nonzero;fill:rgb(98.8%,98.8%,98.8%);fill-opacity:1;" d="M 44.476562 92.871094 L 40.230469 92.871094 L 39.238281 96.101562 L 38.25 96.101562 L 41.933594 84.449219 L 42.804688 84.449219 L 46.453125 96.101562 L 45.460938 96.101562 Z M 40.503906 91.992188 L 44.214844 91.992188 L 42.390625 85.992188 L 42.34375 85.992188 Z M 40.503906 91.992188 "/>
<path style=" stroke:none;fill-rule:nonzero;fill:rgb(98.8%,98.8%,98.8%);fill-opacity:1;" d="M 56.464844 96.101562 L 55.507812 96.101562 L 50.308594 86.347656 L 50.257812 86.355469 L 50.257812 96.101562 L 49.292969 96.101562 L 49.292969 84.449219 L 50.257812 84.449219 L 55.460938 94.207031 L 55.507812 94.195312 L 55.507812 84.449219 L 56.464844 84.449219 Z M 56.464844 96.101562 "/>
<path style=" stroke:none;fill-rule:nonzero;fill:rgb(98.8%,98.8%,98.8%);fill-opacity:1;" d="M 60.335938 96.101562 L 60.335938 84.449219 L 63.191406 84.449219 C 64.347656 84.425781 65.449219 84.953125 66.15625 85.875 C 66.925781 86.824219 67.308594 88.042969 67.308594 89.53125 L 67.308594 91.039062 C 67.308594 92.53125 66.925781 93.746094 66.15625 94.691406 C 65.449219 95.605469 64.347656 96.128906 63.191406 96.101562 Z M 61.292969 85.296875 L 61.292969 95.285156 L 63.191406 95.285156 C 64.105469 95.300781 64.964844 94.851562 65.472656 94.089844 C 66.058594 93.296875 66.347656 92.28125 66.351562 91.046875 L 66.351562 89.515625 C 66.351562 88.292969 66.058594 87.28125 65.472656 86.488281 C 64.960938 85.730469 64.101562 85.285156 63.191406 85.296875 Z M 61.292969 85.296875 "/>
<path style=" stroke:none;fill-rule:nonzero;fill:rgb(98.8%,98.8%,98.8%);fill-opacity:1;" d="M 76.183594 90.46875 L 71.609375 90.46875 L 71.609375 95.285156 L 76.863281 95.285156 L 76.863281 96.101562 L 70.648438 96.101562 L 70.648438 84.449219 L 76.816406 84.449219 L 76.816406 85.296875 L 71.609375 85.296875 L 71.609375 89.652344 L 76.183594 89.652344 Z M 76.183594 90.46875 "/>
<path style=" stroke:none;fill-rule:nonzero;fill:rgb(98.8%,98.8%,98.8%);fill-opacity:1;" d="M 85.324219 93.253906 C 85.347656 92.683594 85.148438 92.125 84.769531 91.699219 C 84.398438 91.300781 83.746094 90.949219 82.8125 90.644531 C 81.75 90.320312 80.949219 89.898438 80.402344 89.386719 C 79.84375 88.84375 79.546875 88.089844 79.582031 87.316406 C 79.554688 86.488281 79.886719 85.691406 80.496094 85.128906 C 81.144531 84.550781 81.992188 84.246094 82.859375 84.28125 C 83.78125 84.242188 84.671875 84.609375 85.304688 85.28125 C 85.917969 85.941406 86.242188 86.820312 86.203125 87.722656 L 86.179688 87.773438 L 85.277344 87.773438 C 85.304688 87.082031 85.074219 86.402344 84.632812 85.871094 C 84.183594 85.367188 83.53125 85.09375 82.859375 85.128906 C 82.128906 85.128906 81.5625 85.335938 81.15625 85.746094 C 80.75 86.15625 80.53125 86.714844 80.546875 87.292969 C 80.535156 87.835938 80.75 88.363281 81.136719 88.746094 C 81.527344 89.136719 82.191406 89.480469 83.132812 89.773438 C 84.167969 90.09375 84.953125 90.523438 85.488281 91.070312 C 86.039062 91.652344 86.328125 92.429688 86.292969 93.230469 C 86.328125 94.074219 85.980469 94.890625 85.34375 95.449219 C 84.660156 96.015625 83.792969 96.308594 82.910156 96.269531 C 81.980469 96.289062 81.078125 95.976562 80.359375 95.390625 C 79.636719 94.804688 79.289062 93.953125 79.316406 92.835938 L 79.332031 92.789062 L 80.226562 92.789062 C 80.226562 93.703125 80.492188 94.375 81.015625 94.808594 C 81.550781 95.242188 82.222656 95.472656 82.910156 95.457031 C 83.546875 95.484375 84.175781 95.269531 84.660156 94.851562 C 85.105469 94.445312 85.347656 93.859375 85.324219 93.253906 Z M 85.324219 93.253906 "/>
<path style=" stroke:none;fill-rule:nonzero;fill:rgb(98.8%,98.8%,98.8%);fill-opacity:1;" d="M 90.679688 84.449219 L 93.917969 94.65625 L 93.96875 94.65625 L 97.214844 84.449219 L 98.457031 84.449219 L 98.457031 96.101562 L 97.503906 96.101562 L 97.503906 90.988281 L 97.597656 86.226562 L 97.550781 86.21875 L 94.265625 96.101562 L 93.625 96.101562 L 90.34375 86.234375 L 90.296875 86.242188 L 90.394531 90.988281 L 90.394531 96.101562 L 89.449219 96.101562 L 89.449219 84.449219 Z M 90.679688 84.449219 "/>
<path style=" stroke:none;fill-rule:nonzero;fill:rgb(98.8%,98.8%,98.8%);fill-opacity:1;" d="M 107.820312 90.46875 L 103.246094 90.46875 L 103.246094 95.285156 L 108.5 95.285156 L 108.5 96.101562 L 102.285156 96.101562 L 102.285156 84.449219 L 108.453125 84.449219 L 108.453125 85.296875 L 103.246094 85.296875 L 103.246094 89.652344 L 107.820312 89.652344 Z M 107.820312 90.46875 "/>
<path style=" stroke:none;fill-rule:nonzero;fill:rgb(98.8%,98.8%,98.8%);fill-opacity:1;" d="M 111.535156 96.101562 L 111.535156 84.449219 L 114.390625 84.449219 C 115.546875 84.425781 116.648438 84.953125 117.355469 85.875 C 118.125 86.824219 118.507812 88.042969 118.507812 89.53125 L 118.507812 91.039062 C 118.507812 92.53125 118.125 93.746094 117.355469 94.691406 C 116.648438 95.605469 115.546875 96.128906 114.390625 96.101562 Z M 112.492188 85.296875 L 112.492188 95.285156 L 114.390625 95.285156 C 115.304688 95.300781 116.164062 94.851562 116.671875 94.089844 C 117.257812 93.296875 117.546875 92.28125 117.550781 91.046875 L 117.550781 89.515625 C 117.550781 88.292969 117.257812 87.28125 116.671875 86.488281 C 116.160156 85.730469 115.300781 85.285156 114.390625 85.296875 Z M 112.492188 85.296875 "/>
<path style=" stroke:none;fill-rule:nonzero;fill:rgb(98.8%,98.8%,98.8%);fill-opacity:1;" d="M 122.953125 96.101562 L 121.984375 96.101562 L 121.984375 84.449219 L 122.953125 84.449219 Z M 122.953125 96.101562 "/>
<path style=" stroke:none;fill-rule:nonzero;fill:rgb(98.8%,98.8%,98.8%);fill-opacity:1;" d="M 132.5 90.46875 L 127.925781 90.46875 L 127.925781 95.285156 L 133.179688 95.285156 L 133.179688 96.101562 L 126.964844 96.101562 L 126.964844 84.449219 L 133.132812 84.449219 L 133.132812 85.296875 L 127.925781 85.296875 L 127.925781 89.652344 L 132.5 89.652344 Z M 132.5 90.46875 "/>
<path style=" stroke:none;fill-rule:nonzero;fill:rgb(98.8%,98.8%,98.8%);fill-opacity:1;" d="M 143.390625 96.101562 L 142.429688 96.101562 L 137.234375 86.347656 L 137.183594 86.355469 L 137.183594 96.101562 L 136.21875 96.101562 L 136.21875 84.449219 L 137.183594 84.449219 L 142.386719 94.207031 L 142.429688 94.195312 L 142.429688 84.449219 L 143.390625 84.449219 Z M 143.390625 96.101562 "/>
<path style=" stroke:none;fill-rule:nonzero;fill:rgb(98.8%,98.8%,98.8%);fill-opacity:1;" d="M 147.652344 95.285156 L 153.25 95.285156 L 153.25 96.101562 L 146.636719 96.101562 L 146.636719 95.34375 L 152.003906 85.289062 L 146.761719 85.289062 L 146.761719 84.449219 L 153.042969 84.449219 L 153.042969 85.167969 Z M 147.652344 95.285156 "/>
<path style=" stroke:none;fill-rule:nonzero;fill:rgb(98.8%,98.8%,98.8%);fill-opacity:1;" d="M 162 90.46875 L 157.425781 90.46875 L 157.425781 95.285156 L 162.679688 95.285156 L 162.679688 96.101562 L 156.464844 96.101562 L 156.464844 84.449219 L 162.632812 84.449219 L 162.632812 85.296875 L 157.425781 85.296875 L 157.425781 89.652344 L 162 89.652344 Z M 162 90.46875 "/>
<path style=" stroke:none;fill-rule:nonzero;fill:rgb(98.8%,98.8%,98.8%);fill-opacity:1;" d="M 172.886719 96.101562 L 171.929688 96.101562 L 166.730469 86.347656 L 166.679688 86.355469 L 166.679688 96.101562 L 165.714844 96.101562 L 165.714844 84.449219 L 166.679688 84.449219 L 171.882812 94.207031 L 171.929688 94.195312 L 171.929688 84.449219 L 172.886719 84.449219 Z M 172.886719 96.101562 "/>
<path style=" stroke:none;fill-rule:nonzero;fill:rgb(98.8%,98.8%,98.8%);fill-opacity:1;" d="M 183.019531 85.296875 L 179.765625 85.296875 L 179.765625 96.101562 L 178.804688 96.101562 L 178.804688 85.296875 L 175.558594 85.296875 L 175.558594 84.449219 L 183.019531 84.449219 Z M 183.019531 85.296875 "/>
<path style=" stroke:none;fill-rule:nonzero;fill:rgb(98.8%,98.8%,98.8%);fill-opacity:1;" d="M 186.867188 90.828125 L 186.867188 96.101562 L 185.910156 96.101562 L 185.910156 84.457031 L 189.253906 84.457031 C 190.300781 84.457031 191.101562 84.730469 191.652344 85.28125 C 192.207031 85.828125 192.484375 86.628906 192.484375 87.679688 C 192.496094 88.257812 192.34375 88.832031 192.042969 89.332031 C 191.753906 89.8125 191.316406 90.183594 190.796875 90.398438 C 191.335938 90.539062 191.796875 90.890625 192.074219 91.375 C 192.347656 91.917969 192.480469 92.523438 192.460938 93.132812 L 192.460938 94.226562 C 192.457031 94.554688 192.492188 94.886719 192.5625 95.207031 C 192.621094 95.46875 192.742188 95.710938 192.914062 95.910156 L 192.914062 96.101562 L 191.933594 96.101562 C 191.75 95.871094 191.632812 95.59375 191.59375 95.300781 C 191.53125 94.941406 191.5 94.574219 191.5 94.210938 L 191.5 93.140625 C 191.535156 92.53125 191.34375 91.933594 190.964844 91.457031 C 190.597656 91.03125 190.054688 90.800781 189.492188 90.828125 Z M 186.867188 90.011719 L 189.140625 90.011719 C 189.960938 90.011719 190.5625 89.804688 190.945312 89.386719 C 191.347656 88.910156 191.550781 88.296875 191.519531 87.675781 C 191.519531 86.914062 191.332031 86.324219 190.957031 85.914062 C 190.585938 85.503906 190.019531 85.296875 189.253906 85.296875 L 186.867188 85.296875 Z M 186.867188 90.011719 "/>
<path style=" stroke:none;fill-rule:nonzero;fill:rgb(98.8%,98.8%,98.8%);fill-opacity:1;" d="M 202.835938 84.449219 L 202.835938 92.605469 C 202.835938 93.796875 202.515625 94.703125 201.882812 95.328125 C 201.25 95.957031 200.421875 96.273438 199.402344 96.269531 C 198.5 96.308594 197.621094 95.96875 196.980469 95.328125 C 196.363281 94.703125 196.050781 93.796875 196.050781 92.605469 L 196.050781 84.449219 L 196.996094 84.449219 L 196.996094 92.617188 C 196.996094 93.53125 197.21875 94.230469 197.664062 94.722656 C 198.105469 95.210938 198.742188 95.480469 199.402344 95.457031 C 200.078125 95.488281 200.730469 95.230469 201.207031 94.753906 C 201.65625 94.285156 201.882812 93.574219 201.882812 92.617188 L 201.882812 84.449219 Z M 202.835938 84.449219 "/>
<path style=" stroke:none;fill-rule:nonzero;fill:rgb(98.8%,98.8%,98.8%);fill-opacity:1;" d="M 207.644531 84.449219 L 210.886719 94.65625 L 210.933594 94.65625 L 214.179688 84.449219 L 215.421875 84.449219 L 215.421875 96.101562 L 214.46875 96.101562 L 214.46875 90.988281 L 214.5625 86.226562 L 214.515625 86.21875 L 211.230469 96.101562 L 210.589844 96.101562 L 207.308594 86.234375 L 207.261719 86.242188 L 207.359375 90.988281 L 207.359375 96.101562 L 206.414062 96.101562 L 206.414062 84.449219 Z M 207.644531 84.449219 "/>
<path style=" stroke:none;fill-rule:nonzero;fill:rgb(98.8%,98.8%,98.8%);fill-opacity:1;" d="M 223.964844 96.101562 L 223.964844 84.449219 L 226.890625 84.449219 C 227.894531 84.449219 228.679688 84.707031 229.246094 85.21875 C 229.8125 85.734375 230.09375 86.503906 230.089844 87.527344 C 230.105469 88.070312 229.953125 88.609375 229.652344 89.066406 C 229.375 89.496094 228.964844 89.820312 228.484375 89.992188 C 229.085938 90.113281 229.609375 90.472656 229.941406 90.984375 C 230.3125 91.539062 230.507812 92.195312 230.492188 92.863281 C 230.492188 93.910156 230.210938 94.710938 229.648438 95.269531 C 229.085938 95.824219 228.328125 96.101562 227.371094 96.101562 Z M 224.925781 89.675781 L 227.199219 89.675781 C 227.730469 89.691406 228.242188 89.480469 228.613281 89.09375 C 228.953125 88.722656 229.125 88.191406 229.125 87.496094 C 229.125 86.765625 228.933594 86.21875 228.554688 85.851562 C 228.171875 85.480469 227.617188 85.296875 226.890625 85.296875 L 224.925781 85.296875 Z M 224.925781 90.492188 L 224.925781 95.285156 L 227.371094 95.285156 C 227.96875 95.320312 228.550781 95.089844 228.960938 94.65625 C 229.339844 94.238281 229.53125 93.644531 229.53125 92.886719 C 229.558594 92.269531 229.382812 91.664062 229.027344 91.160156 C 228.664062 90.703125 228.105469 90.457031 227.523438 90.492188 Z M 224.925781 90.492188 "/>
<path style=" stroke:none;fill-rule:nonzero;fill:rgb(98.8%,98.8%,98.8%);fill-opacity:1;" d="M 239.046875 92.871094 L 234.800781 92.871094 L 233.808594 96.101562 L 232.816406 96.101562 L 236.503906 84.449219 L 237.375 84.449219 L 241.023438 96.101562 L 240.03125 96.101562 Z M 235.070312 91.992188 L 238.78125 91.992188 L 236.957031 85.992188 L 236.910156 85.992188 Z M 235.070312 91.992188 "/>
<path style=" stroke:none;fill-rule:nonzero;fill:rgb(98.8%,98.8%,98.8%);fill-opacity:1;" d="M 243.859375 96.101562 L 243.859375 84.449219 L 246.714844 84.449219 C 247.875 84.425781 248.976562 84.953125 249.683594 85.875 C 250.449219 86.824219 250.835938 88.042969 250.835938 89.53125 L 250.835938 91.039062 C 250.835938 92.53125 250.449219 93.746094 249.683594 94.691406 C 248.972656 95.605469 247.871094 96.128906 246.714844 96.101562 Z M 244.820312 85.296875 L 244.820312 95.285156 L 246.714844 95.285156 C 247.628906 95.300781 248.488281 94.851562 249 94.089844 C 249.582031 93.296875 249.875 92.28125 249.875 91.046875 L 249.875 89.515625 C 249.875 88.292969 249.582031 87.28125 249 86.488281 C 248.488281 85.730469 247.628906 85.285156 246.714844 85.296875 Z M 244.820312 85.296875 "/>
<path style=" stroke:none;fill-rule:nonzero;fill:rgb(98.8%,98.8%,98.8%);fill-opacity:1;" d="M 259.710938 90.46875 L 255.136719 90.46875 L 255.136719 95.285156 L 260.390625 95.285156 L 260.390625 96.101562 L 254.175781 96.101562 L 254.175781 84.449219 L 260.34375 84.449219 L 260.34375 85.296875 L 255.136719 85.296875 L 255.136719 89.652344 L 259.710938 89.652344 Z M 259.710938 90.46875 "/>
<path style=" stroke:none;fill-rule:nonzero;fill:rgb(98.8%,98.8%,98.8%);fill-opacity:1;" d="M 270.601562 96.101562 L 269.640625 96.101562 L 264.441406 86.347656 L 264.394531 86.355469 L 264.394531 96.101562 L 263.425781 96.101562 L 263.425781 84.449219 L 264.394531 84.449219 L 269.59375 94.207031 L 269.640625 94.195312 L 269.640625 84.449219 L 270.601562 84.449219 Z M 270.601562 96.101562 "/>
<path style=" stroke:none;fill-rule:nonzero;fill:rgb(98.8%,98.8%,98.8%);fill-opacity:1;" d="M 276.71875 91.542969 L 273.527344 91.542969 L 273.527344 90.726562 L 276.71875 90.726562 Z M 276.71875 91.542969 "/>
<path style=" stroke:none;fill-rule:nonzero;fill:rgb(98.8%,98.8%,98.8%);fill-opacity:1;" d="M 281.457031 92.765625 L 281.703125 94.34375 L 281.75 94.351562 L 282.082031 92.765625 L 284.03125 84.449219 L 284.910156 84.449219 L 286.878906 92.765625 L 287.199219 94.367188 L 287.246094 94.367188 L 287.511719 92.765625 L 289.152344 84.449219 L 290.125 84.449219 L 287.695312 96.101562 L 286.808594 96.101562 L 284.726562 87.210938 L 284.503906 86.128906 L 284.457031 86.128906 L 284.246094 87.210938 L 282.136719 96.101562 L 281.25 96.101562 L 278.824219 84.449219 L 279.792969 84.449219 Z M 281.457031 92.765625 "/>
<path style=" stroke:none;fill-rule:nonzero;fill:rgb(98.8%,98.8%,98.8%);fill-opacity:1;" d="M 299.746094 84.449219 L 299.746094 92.605469 C 299.746094 93.796875 299.429688 94.703125 298.796875 95.328125 C 298.164062 95.957031 297.335938 96.273438 296.316406 96.269531 C 295.414062 96.308594 294.535156 95.96875 293.890625 95.328125 C 293.273438 94.703125 292.964844 93.796875 292.964844 92.605469 L 292.964844 84.449219 L 293.910156 84.449219 L 293.910156 92.617188 C 293.910156 93.53125 294.132812 94.230469 294.578125 94.722656 C 295.019531 95.210938 295.65625 95.480469 296.316406 95.457031 C 296.988281 95.488281 297.644531 95.230469 298.121094 94.753906 C 298.570312 94.285156 298.796875 93.574219 298.796875 92.617188 L 298.796875 84.449219 Z M 295.429688 82.992188 L 294.125 82.992188 L 294.125 81.710938 L 295.429688 81.710938 Z M 298.691406 82.992188 L 297.40625 82.992188 L 297.40625 81.710938 L 298.691406 81.710938 Z M 298.691406 82.992188 "/>
<path style=" stroke:none;fill-rule:nonzero;fill:rgb(98.8%,98.8%,98.8%);fill-opacity:1;" d="M 304.320312 90.828125 L 304.320312 96.101562 L 303.359375 96.101562 L 303.359375 84.457031 L 306.707031 84.457031 C 307.75 84.457031 308.550781 84.730469 309.105469 85.28125 C 309.660156 85.828125 309.9375 86.628906 309.9375 87.679688 C 309.945312 88.257812 309.792969 88.832031 309.496094 89.332031 C 309.203125 89.8125 308.765625 90.183594 308.25 90.398438 C 308.789062 90.539062 309.25 90.890625 309.527344 91.375 C 309.800781 91.917969 309.933594 92.523438 309.914062 93.132812 L 309.914062 94.226562 C 309.910156 94.554688 309.941406 94.886719 310.015625 95.207031 C 310.074219 95.46875 310.191406 95.710938 310.367188 95.910156 L 310.367188 96.101562 L 309.386719 96.101562 C 309.203125 95.871094 309.085938 95.59375 309.046875 95.300781 C 308.980469 94.941406 308.949219 94.574219 308.953125 94.210938 L 308.953125 93.140625 C 308.984375 92.53125 308.792969 91.933594 308.414062 91.457031 C 308.046875 91.03125 307.503906 90.800781 306.945312 90.828125 Z M 304.320312 90.011719 L 306.59375 90.011719 C 307.414062 90.011719 308.015625 89.804688 308.394531 89.386719 C 308.796875 88.910156 309.003906 88.296875 308.96875 87.675781 C 308.96875 86.914062 308.78125 86.324219 308.410156 85.914062 C 308.035156 85.503906 307.46875 85.296875 306.707031 85.296875 L 304.320312 85.296875 Z M 304.320312 90.011719 "/>
<path style=" stroke:none;fill-rule:nonzero;fill:rgb(98.8%,98.8%,98.8%);fill-opacity:1;" d="M 319.570312 85.296875 L 316.316406 85.296875 L 316.316406 96.101562 L 315.355469 96.101562 L 315.355469 85.296875 L 312.109375 85.296875 L 312.109375 84.449219 L 319.570312 84.449219 Z M 319.570312 85.296875 "/>
<path style=" stroke:none;fill-rule:nonzero;fill:rgb(98.8%,98.8%,98.8%);fill-opacity:1;" d="M 329.105469 85.296875 L 325.847656 85.296875 L 325.847656 96.101562 L 324.886719 96.101562 L 324.886719 85.296875 L 321.640625 85.296875 L 321.640625 84.449219 L 329.105469 84.449219 Z M 329.105469 85.296875 "/>
<path style=" stroke:none;fill-rule:nonzero;fill:rgb(98.8%,98.8%,98.8%);fill-opacity:1;" d="M 337.546875 90.46875 L 332.96875 90.46875 L 332.96875 95.285156 L 338.226562 95.285156 L 338.226562 96.101562 L 332.011719 96.101562 L 332.011719 84.449219 L 338.179688 84.449219 L 338.179688 85.296875 L 332.972656 85.296875 L 332.972656 89.652344 L 337.546875 89.652344 Z M 337.546875 90.46875 "/>
<path style=" stroke:none;fill-rule:nonzero;fill:rgb(98.8%,98.8%,98.8%);fill-opacity:1;" d="M 342.449219 84.449219 L 345.6875 94.65625 L 345.738281 94.65625 L 348.984375 84.449219 L 350.222656 84.449219 L 350.222656 96.101562 L 349.269531 96.101562 L 349.269531 90.988281 L 349.367188 86.226562 L 349.320312 86.21875 L 346.03125 96.101562 L 345.390625 96.101562 L 342.109375 86.234375 L 342.066406 86.242188 L 342.160156 90.988281 L 342.160156 96.101562 L 341.214844 96.101562 L 341.214844 84.449219 Z M 342.449219 84.449219 "/>
<path style=" stroke:none;fill-rule:nonzero;fill:rgb(98.8%,98.8%,98.8%);fill-opacity:1;" d="M 354.054688 96.101562 L 354.054688 84.449219 L 356.980469 84.449219 C 357.984375 84.449219 358.769531 84.707031 359.332031 85.21875 C 359.898438 85.734375 360.179688 86.503906 360.179688 87.527344 C 360.191406 88.070312 360.039062 88.609375 359.742188 89.066406 C 359.460938 89.496094 359.050781 89.820312 358.570312 89.992188 C 359.171875 90.113281 359.695312 90.472656 360.027344 90.984375 C 360.402344 91.539062 360.59375 92.195312 360.578125 92.863281 C 360.578125 93.910156 360.296875 94.710938 359.734375 95.269531 C 359.171875 95.824219 358.414062 96.101562 357.460938 96.101562 Z M 355.011719 89.675781 L 357.285156 89.675781 C 357.816406 89.691406 358.332031 89.480469 358.699219 89.09375 C 359.042969 88.722656 359.210938 88.191406 359.210938 87.496094 C 359.210938 86.765625 359.023438 86.21875 358.640625 85.851562 C 358.257812 85.480469 357.707031 85.296875 356.980469 85.296875 L 355.011719 85.296875 Z M 355.011719 90.492188 L 355.011719 95.285156 L 357.460938 95.285156 C 358.054688 95.320312 358.636719 95.089844 359.050781 94.65625 C 359.429688 94.238281 359.621094 93.644531 359.621094 92.886719 C 359.648438 92.269531 359.46875 91.664062 359.113281 91.160156 C 358.75 90.703125 358.191406 90.457031 357.613281 90.492188 Z M 355.011719 90.492188 "/>
<path style=" stroke:none;fill-rule:nonzero;fill:rgb(98.8%,98.8%,98.8%);fill-opacity:1;" d="M 369.46875 90.46875 L 364.894531 90.46875 L 364.894531 95.285156 L 370.148438 95.285156 L 370.148438 96.101562 L 363.933594 96.101562 L 363.933594 84.449219 L 370.101562 84.449219 L 370.101562 85.296875 L 364.894531 85.296875 L 364.894531 89.652344 L 369.46875 89.652344 Z M 369.46875 90.46875 "/>
<path style=" stroke:none;fill-rule:nonzero;fill:rgb(98.8%,98.8%,98.8%);fill-opacity:1;" d="M 374.125 90.828125 L 374.125 96.101562 L 373.167969 96.101562 L 373.167969 84.457031 L 376.511719 84.457031 C 377.558594 84.457031 378.355469 84.730469 378.910156 85.28125 C 379.464844 85.828125 379.742188 86.628906 379.742188 87.679688 C 379.753906 88.257812 379.597656 88.832031 379.300781 89.332031 C 379.011719 89.8125 378.574219 90.183594 378.054688 90.398438 C 378.59375 90.539062 379.054688 90.890625 379.332031 91.375 C 379.605469 91.917969 379.738281 92.523438 379.71875 93.132812 L 379.71875 94.226562 C 379.714844 94.554688 379.75 94.886719 379.820312 95.207031 C 379.878906 95.46875 380 95.710938 380.171875 95.910156 L 380.171875 96.101562 L 379.191406 96.101562 C 379.007812 95.871094 378.890625 95.59375 378.851562 95.300781 C 378.789062 94.941406 378.757812 94.574219 378.757812 94.210938 L 378.757812 93.140625 C 378.792969 92.53125 378.601562 91.933594 378.222656 91.457031 C 377.851562 91.03125 377.3125 90.800781 376.75 90.828125 Z M 374.125 90.011719 L 376.398438 90.011719 C 377.21875 90.011719 377.820312 89.804688 378.203125 89.386719 C 378.605469 88.910156 378.808594 88.296875 378.773438 87.675781 C 378.773438 86.914062 378.589844 86.324219 378.214844 85.914062 C 377.84375 85.503906 377.273438 85.296875 376.511719 85.296875 L 374.125 85.296875 Z M 374.125 90.011719 "/>
<path style=" stroke:none;fill-rule:nonzero;fill:rgb(98.8%,98.8%,98.8%);fill-opacity:1;" d="M 390.449219 94.515625 C 390.175781 95.019531 389.769531 95.4375 389.273438 95.722656 C 388.609375 96.113281 387.851562 96.300781 387.085938 96.269531 C 385.917969 96.269531 384.976562 95.898438 384.265625 95.15625 C 383.550781 94.417969 383.195312 93.351562 383.199219 91.964844 L 383.199219 88.5 C 383.199219 87.140625 383.535156 86.097656 384.203125 85.371094 C 384.875 84.644531 385.773438 84.28125 386.898438 84.28125 C 388 84.28125 388.851562 84.570312 389.453125 85.140625 C 390.054688 85.714844 390.371094 86.515625 390.398438 87.539062 L 390.378906 87.585938 L 389.484375 87.585938 C 389.453125 86.804688 389.222656 86.199219 388.796875 85.769531 C 388.367188 85.34375 387.738281 85.128906 386.898438 85.128906 C 386.132812 85.09375 385.394531 85.410156 384.894531 85.992188 C 384.402344 86.566406 384.15625 87.398438 384.15625 88.488281 L 384.15625 91.976562 C 384.15625 93.109375 384.421875 93.972656 384.949219 94.5625 C 385.492188 95.164062 386.273438 95.492188 387.085938 95.457031 C 387.632812 95.480469 388.175781 95.359375 388.660156 95.101562 C 389.015625 94.90625 389.304688 94.605469 389.484375 94.242188 L 389.484375 91.203125 L 387.070312 91.203125 L 387.070312 90.367188 L 390.449219 90.367188 Z M 390.449219 94.515625 "/>
<path style=" stroke:none;fill-rule:nonzero;fill:rgb(95.686275%,60.784316%,0%);fill-opacity:1;" d="M 194.472656 25.886719 C 194.472656 39.574219 183.386719 50.667969 169.707031 50.667969 C 156.027344 50.667969 144.9375 39.570312 144.941406 25.882812 C 144.941406 12.195312 156.03125 1.101562 169.707031 1.101562 C 183.386719 1.105469 194.472656 12.199219 194.472656 25.886719 "/>
</g>
</svg>
