<svg id="svg" version="1.1" xmlns="http://www.w3.org/2000/svg" xmlns:xlink="http://www.w3.org/1999/xlink" width="400" height="89.8876404494382" viewBox="0, 0, 400,89.8876404494382"><g id="svgg"><path id="path0" d="M368.333 0.167 C 368.333 0.258,367.963 0.333,367.509 0.333 C 366.888 0.333,366.631 0.411,366.463 0.651 C 366.311 0.868,366.003 0.983,365.495 1.014 C 364.714 1.061,364.274 1.269,364.428 1.519 C 364.479 1.600,364.215 1.667,363.843 1.667 C 363.278 1.667,363.167 1.721,363.167 2.000 C 363.167 2.267,363.056 2.333,362.610 2.333 C 362.175 2.333,362.011 2.426,361.859 2.759 C 361.753 2.994,361.596 3.143,361.511 3.090 C 361.427 3.038,361.309 3.147,361.250 3.333 C 361.191 3.519,361.068 3.625,360.977 3.569 C 360.886 3.513,360.770 3.624,360.719 3.817 C 360.669 4.009,360.487 4.176,360.314 4.188 C 360.141 4.199,359.925 4.227,359.833 4.250 C 359.742 4.273,359.587 4.301,359.490 4.313 C 359.393 4.324,359.360 4.408,359.416 4.499 C 359.473 4.591,359.329 4.752,359.098 4.857 C 358.866 4.962,358.717 5.113,358.765 5.191 C 358.814 5.270,358.661 5.407,358.427 5.496 C 358.080 5.628,358.000 5.769,358.000 6.246 C 358.000 6.645,357.923 6.833,357.761 6.833 C 357.630 6.833,357.475 6.983,357.417 7.167 C 357.358 7.350,357.166 7.500,356.989 7.500 C 356.812 7.500,356.676 7.556,356.686 7.625 C 356.741 7.969,356.642 8.167,356.417 8.167 C 356.279 8.167,356.155 8.298,356.141 8.458 C 356.094 9.002,356.075 9.083,355.942 9.294 C 355.870 9.410,355.740 9.462,355.655 9.410 C 355.569 9.357,355.500 9.608,355.500 9.971 C 355.500 10.488,355.429 10.646,355.167 10.715 C 354.910 10.782,354.833 10.942,354.833 11.411 C 354.833 11.746,354.777 11.986,354.708 11.944 C 354.521 11.830,354.258 12.197,354.191 12.663 C 354.159 12.890,353.994 13.173,353.825 13.291 C 353.607 13.444,353.503 13.760,353.467 14.378 C 353.439 14.858,353.350 15.225,353.269 15.194 C 352.990 15.089,352.838 15.583,352.836 16.606 C 352.834 17.486,352.787 17.640,352.500 17.715 C 352.196 17.794,352.167 17.942,352.167 19.401 C 352.167 20.651,352.116 21.000,351.936 21.000 C 351.600 21.000,351.538 21.408,351.513 23.783 C 351.495 25.433,351.435 25.958,351.248 26.100 C 350.856 26.396,350.877 62.297,351.269 62.447 C 351.434 62.510,351.602 62.442,351.696 62.275 C 351.876 61.953,352.500 62.181,352.500 62.569 C 352.500 63.005,352.060 63.203,351.760 62.903 C 351.504 62.647,351.487 62.814,351.508 65.272 C 351.530 67.760,351.651 68.466,352.019 68.238 C 352.100 68.188,352.168 68.805,352.169 69.615 C 352.172 71.043,352.299 71.587,352.602 71.473 C 352.683 71.442,352.772 71.998,352.799 72.708 C 352.845 73.931,352.915 74.092,353.375 74.020 C 353.444 74.009,353.500 74.450,353.500 75.000 C 353.500 75.889,353.537 76.000,353.833 76.000 C 354.092 76.000,354.167 76.111,354.167 76.499 C 354.167 76.817,354.287 77.073,354.500 77.205 C 354.725 77.346,354.833 77.594,354.833 77.967 C 354.833 78.293,354.902 78.477,355.000 78.417 C 355.092 78.360,355.167 78.398,355.167 78.500 C 355.167 78.602,355.242 78.640,355.333 78.583 C 355.473 78.497,355.595 79.233,355.520 79.708 C 355.509 79.777,355.613 79.833,355.750 79.833 C 355.888 79.833,356.009 79.983,356.021 80.167 C 356.060 80.795,356.084 80.861,356.344 81.055 C 356.487 81.162,356.653 81.381,356.713 81.542 C 356.774 81.702,356.938 81.833,357.078 81.833 C 357.218 81.833,357.333 81.946,357.333 82.083 C 357.333 82.309,357.531 82.407,357.875 82.353 C 357.992 82.335,358.073 82.990,358.012 83.458 C 357.998 83.573,358.139 83.667,358.326 83.667 C 358.527 83.667,358.667 83.776,358.667 83.932 C 358.667 84.078,358.817 84.237,359.000 84.285 C 359.184 84.333,359.333 84.512,359.333 84.686 C 359.333 84.941,359.458 85.000,360.000 85.000 C 360.367 85.000,360.658 85.056,360.647 85.125 C 360.594 85.461,360.689 85.667,360.897 85.667 C 361.024 85.667,361.167 85.817,361.215 86.000 C 361.263 86.183,361.422 86.333,361.568 86.333 C 361.714 86.333,361.833 86.446,361.833 86.583 C 361.833 86.721,361.908 86.843,362.000 86.854 C 362.092 86.866,362.242 86.894,362.333 86.917 C 362.425 86.940,362.650 86.968,362.833 86.979 C 363.017 86.991,363.167 87.117,363.167 87.260 C 363.167 87.403,363.242 87.473,363.333 87.417 C 363.425 87.360,363.500 87.406,363.500 87.518 C 363.500 87.630,363.544 87.678,363.598 87.625 C 363.749 87.474,364.678 87.846,364.573 88.016 C 364.522 88.099,364.897 88.167,365.407 88.167 C 366.222 88.167,366.333 88.207,366.333 88.500 C 366.333 88.796,366.444 88.833,367.333 88.833 C 368.203 88.833,368.333 88.874,368.333 89.148 C 368.333 89.437,368.490 89.465,370.208 89.488 C 371.240 89.502,372.108 89.585,372.139 89.673 C 372.216 89.896,382.333 89.889,382.333 89.667 C 382.333 89.567,382.972 89.500,383.917 89.500 C 385.389 89.500,385.500 89.477,385.500 89.167 C 385.500 88.864,386.340 88.688,387.198 88.810 C 387.261 88.819,387.360 88.678,387.418 88.497 C 387.496 88.251,387.671 88.167,388.104 88.167 C 388.424 88.167,388.645 88.099,388.593 88.016 C 388.488 87.846,389.418 87.474,389.569 87.625 C 389.623 87.678,389.667 87.630,389.667 87.518 C 389.667 87.406,389.742 87.360,389.833 87.417 C 389.925 87.473,390.000 87.361,390.000 87.167 C 390.000 86.973,390.073 86.858,390.161 86.913 C 390.250 86.968,390.418 86.860,390.535 86.673 C 390.680 86.441,390.924 86.333,391.306 86.333 C 391.724 86.333,391.886 86.250,391.952 86.000 C 392.000 85.817,392.143 85.667,392.269 85.667 C 392.396 85.667,392.509 85.592,392.521 85.500 C 392.532 85.408,392.551 85.258,392.563 85.167 C 392.574 85.075,392.628 85.019,392.683 85.042 C 392.845 85.110,393.337 84.640,393.250 84.500 C 393.206 84.429,393.320 84.332,393.502 84.285 C 393.684 84.237,393.833 84.087,393.833 83.952 C 393.833 83.816,393.983 83.666,394.167 83.618 C 394.350 83.570,394.500 83.407,394.500 83.256 C 394.500 83.104,394.567 83.021,394.648 83.072 C 394.729 83.122,394.873 83.070,394.967 82.956 C 395.151 82.735,395.167 82.673,395.167 82.178 C 395.167 82.001,395.317 81.808,395.500 81.750 C 395.683 81.692,395.833 81.555,395.833 81.446 C 395.833 81.336,395.983 81.153,396.167 81.039 C 396.379 80.906,396.500 80.650,396.500 80.332 C 396.500 79.991,396.582 79.833,396.760 79.833 C 396.903 79.833,396.973 79.758,396.917 79.667 C 396.860 79.575,396.893 79.500,396.990 79.500 C 397.087 79.500,397.158 79.444,397.147 79.375 C 397.074 78.915,397.202 78.500,397.417 78.500 C 397.554 78.500,397.678 78.369,397.692 78.208 C 397.706 78.048,397.735 77.842,397.756 77.750 C 397.777 77.658,397.804 77.377,397.814 77.125 C 397.826 76.837,397.926 76.667,398.083 76.667 C 398.278 76.667,398.333 76.443,398.333 75.657 C 398.333 75.101,398.390 74.681,398.458 74.723 C 398.773 74.913,399.000 74.405,399.000 73.511 C 399.000 73.002,399.074 72.832,399.333 72.750 C 399.640 72.653,399.667 72.498,399.667 70.822 C 399.667 69.718,399.732 69.000,399.833 69.000 C 399.939 69.000,400.000 67.722,400.000 65.500 L 400.000 62.000 395.083 62.000 C 392.379 62.000,390.176 62.056,390.186 62.125 C 390.272 62.666,390.139 68.496,390.042 68.480 C 389.760 68.436,389.501 68.508,389.520 68.625 C 389.675 69.605,389.467 71.000,389.167 71.000 C 388.864 71.000,388.833 71.111,388.833 72.210 C 388.833 73.226,388.782 73.452,388.511 73.621 C 388.324 73.738,388.167 74.052,388.136 74.370 C 388.107 74.670,388.017 74.892,387.935 74.861 C 387.714 74.777,387.505 75.190,387.503 75.718 C 387.501 75.988,387.429 76.143,387.333 76.083 C 387.241 76.026,387.095 76.166,387.009 76.393 C 386.923 76.620,386.717 76.831,386.551 76.863 C 386.348 76.902,386.242 77.083,386.226 77.419 C 386.191 78.157,386.187 78.164,385.917 78.060 C 385.743 77.994,385.667 78.072,385.667 78.316 C 385.667 78.556,385.561 78.667,385.333 78.667 C 385.111 78.667,385.000 78.778,385.000 79.000 C 385.000 79.277,384.889 79.333,384.345 79.333 C 383.792 79.333,383.682 79.392,383.637 79.708 C 383.607 79.915,383.520 80.060,383.443 80.031 C 383.366 80.002,383.203 80.114,383.082 80.281 C 382.861 80.582,382.801 80.606,382.167 80.646 C 381.983 80.657,381.833 80.779,381.833 80.917 C 381.833 81.094,381.639 81.173,381.167 81.188 C 380.182 81.218,380.158 81.225,379.927 81.542 C 379.628 81.950,374.667 81.990,374.667 81.583 C 374.667 81.446,374.592 81.324,374.500 81.313 C 374.408 81.301,374.258 81.273,374.167 81.250 C 374.075 81.227,373.400 81.199,372.667 81.188 C 371.602 81.171,371.333 81.116,371.333 80.917 C 371.333 80.779,371.183 80.657,371.000 80.646 C 370.366 80.606,370.306 80.582,370.085 80.281 C 369.963 80.114,369.819 79.983,369.765 79.989 C 369.104 80.063,368.833 79.970,368.833 79.667 C 368.833 79.389,368.722 79.333,368.167 79.333 C 367.606 79.333,367.500 79.279,367.500 78.993 C 367.500 78.802,367.406 78.674,367.287 78.701 C 367.169 78.728,367.051 78.675,367.023 78.583 C 366.927 78.272,366.629 78.003,366.481 78.095 C 366.400 78.145,366.333 78.025,366.333 77.828 C 366.333 77.609,366.203 77.435,366.000 77.382 C 365.817 77.334,365.667 77.191,365.667 77.064 C 365.667 76.855,365.461 76.760,365.125 76.814 C 365.056 76.824,365.000 76.533,365.000 76.167 C 365.000 75.611,364.944 75.500,364.667 75.500 C 364.444 75.500,364.333 75.389,364.333 75.167 C 364.333 74.944,364.222 74.833,364.000 74.833 C 363.731 74.833,363.667 74.722,363.667 74.261 C 363.667 73.836,363.581 73.662,363.333 73.583 C 363.054 73.495,363.000 73.331,363.000 72.572 C 363.000 71.878,362.942 71.667,362.750 71.667 C 362.573 71.667,362.494 71.472,362.479 71.000 C 362.448 70.015,362.442 69.991,362.125 69.760 C 361.905 69.599,361.833 69.305,361.831 68.565 C 361.828 67.593,361.684 67.124,361.398 67.153 C 361.317 67.161,361.232 66.324,361.209 65.292 C 361.161 63.107,361.084 62.667,360.747 62.667 C 360.296 62.667,360.383 26.736,360.833 26.618 C 361.145 26.537,361.167 26.391,361.167 24.368 C 361.167 22.346,361.188 22.200,361.500 22.118 C 361.796 22.041,361.833 21.891,361.833 20.766 C 361.833 19.822,361.890 19.500,362.056 19.500 C 362.178 19.500,362.290 19.406,362.304 19.292 C 362.436 18.236,362.628 17.590,362.799 17.625 C 362.938 17.654,363.000 17.363,363.000 16.686 C 363.000 15.846,363.048 15.693,363.333 15.618 C 363.590 15.551,363.667 15.391,363.667 14.922 C 363.667 14.588,363.723 14.348,363.792 14.389 C 363.860 14.431,364.013 14.360,364.132 14.233 C 364.250 14.105,364.287 13.999,364.215 13.998 C 364.143 13.996,364.271 13.901,364.500 13.785 C 364.763 13.653,364.936 13.406,364.970 13.117 C 365.021 12.679,365.791 11.717,366.032 11.791 C 366.095 11.811,366.193 11.678,366.251 11.497 C 366.309 11.315,366.476 11.167,366.622 11.167 C 366.769 11.167,366.842 11.120,366.786 11.063 C 366.659 10.937,367.075 10.500,367.321 10.500 C 367.420 10.500,367.500 10.387,367.500 10.250 C 367.500 10.112,367.650 9.991,367.833 9.979 C 368.466 9.940,368.528 9.916,368.740 9.625 C 368.867 9.451,369.171 9.333,369.492 9.333 C 369.891 9.333,370.054 9.247,370.118 9.000 C 370.195 8.706,370.650 8.559,371.208 8.647 C 371.326 8.665,371.397 8.406,371.353 8.125 C 371.342 8.056,372.008 8.000,372.832 8.000 C 374.150 8.000,374.356 7.960,374.539 7.667 C 374.732 7.357,374.927 7.333,377.271 7.333 C 379.654 7.333,379.799 7.352,379.882 7.667 C 379.959 7.963,380.109 8.000,381.234 8.000 C 381.930 8.000,382.491 8.056,382.480 8.125 C 382.417 8.526,382.553 8.667,383.005 8.667 C 383.380 8.667,383.666 8.836,384.116 9.326 C 384.450 9.688,384.785 9.947,384.861 9.899 C 384.938 9.852,385.000 9.973,385.000 10.167 C 385.000 10.361,385.075 10.473,385.167 10.417 C 385.258 10.360,385.333 10.398,385.333 10.500 C 385.333 10.602,385.400 10.645,385.481 10.595 C 385.562 10.545,385.668 10.653,385.715 10.835 C 385.763 11.018,385.926 11.167,386.078 11.167 C 386.229 11.167,386.307 11.242,386.250 11.333 C 386.193 11.425,386.231 11.500,386.333 11.500 C 386.436 11.500,386.473 11.575,386.417 11.667 C 386.360 11.758,386.473 11.833,386.667 11.833 C 386.861 11.833,386.975 11.906,386.920 11.995 C 386.865 12.083,386.973 12.251,387.160 12.368 C 387.392 12.513,387.500 12.757,387.500 13.139 C 387.500 13.558,387.584 13.720,387.833 13.785 C 388.125 13.861,388.266 14.241,388.182 14.723 C 388.168 14.799,388.309 14.902,388.495 14.950 C 388.783 15.026,388.833 15.175,388.833 15.952 C 388.833 16.724,388.885 16.878,389.167 16.952 C 389.469 17.031,389.500 17.179,389.500 18.535 C 389.500 19.891,389.531 20.039,389.833 20.118 C 390.150 20.201,390.167 20.346,390.167 23.093 L 390.167 25.980 394.686 25.995 C 397.867 26.005,399.273 25.953,399.436 25.818 C 399.860 25.466,399.765 18.064,399.333 17.795 C 399.033 17.607,399.000 17.406,399.000 15.778 C 399.000 14.109,398.974 13.962,398.667 13.882 C 398.374 13.805,398.333 13.654,398.333 12.656 C 398.333 11.840,398.265 11.479,398.095 11.383 C 397.963 11.309,397.830 11.062,397.799 10.833 C 397.725 10.292,397.517 9.970,397.322 10.090 C 397.236 10.143,397.157 9.994,397.146 9.760 C 397.134 9.525,397.106 9.258,397.083 9.167 C 397.060 9.075,397.032 8.921,397.021 8.823 C 397.009 8.726,396.930 8.690,396.845 8.743 C 396.634 8.873,396.517 8.648,396.469 8.023 C 396.440 7.647,396.346 7.500,396.131 7.500 C 395.927 7.500,395.833 7.373,395.833 7.097 C 395.833 6.522,395.668 6.167,395.399 6.167 C 395.271 6.167,395.167 6.052,395.167 5.913 C 395.167 5.773,394.975 5.585,394.740 5.496 C 394.505 5.407,394.353 5.270,394.401 5.191 C 394.450 5.113,394.300 4.962,394.069 4.857 C 393.837 4.752,393.689 4.599,393.739 4.518 C 393.789 4.437,393.680 4.332,393.498 4.285 C 393.316 4.237,393.167 4.087,393.167 3.952 C 393.167 3.816,393.017 3.666,392.833 3.618 C 392.650 3.570,392.500 3.407,392.500 3.256 C 392.500 3.104,392.429 3.024,392.341 3.078 C 392.254 3.132,392.073 2.968,391.940 2.713 C 391.806 2.458,391.653 2.269,391.599 2.292 C 391.224 2.450,390.695 2.293,390.618 2.000 C 390.552 1.745,390.391 1.667,389.932 1.667 C 389.440 1.667,389.333 1.606,389.333 1.326 C 389.333 1.139,389.240 0.998,389.125 1.012 C 388.656 1.073,388.001 0.992,388.020 0.875 C 388.092 0.416,387.948 0.333,387.083 0.333 C 386.579 0.333,386.167 0.258,386.167 0.167 C 386.167 -0.165,382.536 -0.043,382.448 0.292 C 382.376 0.569,382.371 0.569,382.353 0.292 C 382.330 -0.049,368.333 -0.174,368.333 0.167 M240.611 1.111 C 240.364 1.358,240.523 1.667,240.897 1.667 C 241.439 1.667,241.495 1.967,241.498 4.861 C 241.500 7.619,241.457 7.833,240.899 7.833 C 240.559 7.833,240.500 7.914,240.500 8.383 C 240.500 9.375,240.045 9.333,250.950 9.333 L 261.000 9.333 261.000 48.486 C 261.000 70.021,261.045 87.756,261.099 87.898 C 261.249 88.288,270.418 88.288,270.568 87.898 C 270.622 87.756,270.667 70.021,270.667 48.486 L 270.667 9.333 280.749 9.333 C 290.650 9.333,290.834 9.327,291.039 9.000 C 291.153 8.817,291.333 8.667,291.439 8.667 C 291.883 8.667,292.066 1.633,291.633 1.200 C 291.415 0.982,240.829 0.894,240.611 1.111 M300.367 1.200 C 300.135 1.432,300.072 87.593,300.303 87.956 C 300.406 88.119,304.816 88.154,321.092 88.123 L 341.750 88.083 341.795 84.344 C 341.820 82.287,341.792 80.652,341.733 80.711 C 341.604 80.840,341.167 80.429,341.167 80.179 C 341.167 80.053,336.530 80.000,325.500 80.000 L 309.833 80.000 309.833 63.917 L 309.833 47.833 324.320 47.833 C 332.287 47.833,338.925 47.788,339.070 47.732 C 339.340 47.628,339.487 40.428,339.232 39.764 C 339.141 39.526,337.686 39.500,324.482 39.500 L 309.833 39.500 309.833 24.417 L 309.833 9.333 325.000 9.333 C 333.342 9.333,340.215 9.340,340.273 9.348 C 340.481 9.375,340.605 8.987,340.639 8.207 C 340.661 7.699,340.620 7.497,340.525 7.641 C 339.951 8.511,339.751 7.814,339.704 4.786 C 339.656 1.647,339.809 1.063,340.450 1.931 C 340.719 2.295,340.713 1.638,340.444 1.208 C 340.257 0.910,300.665 0.902,300.367 1.200 " stroke="none" fill="#2c84b4" fill-rule="evenodd"></path><path id="path1" d="M29.576 0.844 C 29.516 0.942,29.507 1.062,29.556 1.111 C 29.675 1.230,30.000 1.020,30.000 0.823 C 30.000 0.611,29.712 0.625,29.576 0.844 M53.531 0.844 C 53.571 0.964,53.703 1.095,53.823 1.135 C 53.948 1.177,54.010 1.115,53.969 0.990 C 53.929 0.869,53.797 0.738,53.677 0.698 C 53.552 0.656,53.490 0.719,53.531 0.844 M104.111 0.778 C 103.952 0.937,103.974 1.167,104.149 1.167 C 104.231 1.167,104.341 1.054,104.394 0.917 C 104.491 0.663,104.314 0.575,104.111 0.778 M168.500 1.417 C 168.500 1.554,168.622 1.667,168.770 1.667 C 168.992 1.667,169.003 1.621,168.833 1.417 C 168.719 1.279,168.598 1.167,168.563 1.167 C 168.528 1.167,168.500 1.279,168.500 1.417 M103.333 1.500 C 103.333 1.592,103.446 1.667,103.583 1.667 C 103.721 1.667,103.833 1.592,103.833 1.500 C 103.833 1.408,103.721 1.333,103.583 1.333 C 103.446 1.333,103.333 1.408,103.333 1.500 M188.833 3.417 C 188.833 3.554,188.908 3.667,189.000 3.667 C 189.092 3.667,189.167 3.554,189.167 3.417 C 189.167 3.279,189.092 3.167,189.000 3.167 C 188.908 3.167,188.833 3.279,188.833 3.417 M188.167 4.097 C 188.167 4.242,188.256 4.331,188.365 4.295 C 188.674 4.192,188.725 3.833,188.431 3.833 C 188.285 3.833,188.167 3.952,188.167 4.097 M226.273 3.949 C 226.086 4.137,226.159 4.333,226.417 4.333 C 226.554 4.333,226.667 4.263,226.667 4.177 C 226.667 3.966,226.406 3.816,226.273 3.949 M226.933 4.641 C 226.875 4.734,226.909 4.860,227.008 4.922 C 227.265 5.080,227.430 4.863,227.216 4.649 C 227.096 4.530,227.003 4.527,226.933 4.641 M186.243 5.344 C 186.183 5.442,186.173 5.562,186.222 5.611 C 186.342 5.730,186.667 5.520,186.667 5.323 C 186.667 5.111,186.379 5.125,186.243 5.344 M227.531 5.344 C 227.571 5.464,227.703 5.595,227.823 5.635 C 227.948 5.677,228.010 5.615,227.969 5.490 C 227.929 5.369,227.797 5.238,227.677 5.198 C 227.552 5.156,227.490 5.219,227.531 5.344 M185.000 6.583 C 184.830 6.788,184.841 6.833,185.063 6.833 C 185.212 6.833,185.333 6.721,185.333 6.583 C 185.333 6.446,185.305 6.333,185.270 6.333 C 185.236 6.333,185.114 6.446,185.000 6.583 M228.833 6.583 C 228.833 6.721,228.955 6.833,229.104 6.833 C 229.325 6.833,229.337 6.788,229.167 6.583 C 229.053 6.446,228.931 6.333,228.896 6.333 C 228.862 6.333,228.833 6.446,228.833 6.583 M183.667 7.931 C 183.667 8.076,183.756 8.165,183.865 8.128 C 184.174 8.025,184.225 7.667,183.931 7.667 C 183.785 7.667,183.667 7.785,183.667 7.931 M230.038 7.865 C 230.141 8.174,230.500 8.225,230.500 7.931 C 230.500 7.785,230.381 7.667,230.236 7.667 C 230.091 7.667,230.002 7.756,230.038 7.865 M230.692 8.492 C 230.763 8.707,230.992 8.745,231.012 8.546 C 231.019 8.479,230.935 8.395,230.825 8.358 C 230.715 8.322,230.655 8.382,230.692 8.492 M182.333 9.833 C 182.333 9.925,182.446 10.000,182.583 10.000 C 182.721 10.000,182.833 9.925,182.833 9.833 C 182.833 9.742,182.721 9.667,182.583 9.667 C 182.446 9.667,182.333 9.742,182.333 9.833 M232.667 11.083 C 232.667 11.221,232.788 11.333,232.937 11.333 C 233.159 11.333,233.170 11.288,233.000 11.083 C 232.886 10.946,232.764 10.833,232.730 10.833 C 232.695 10.833,232.667 10.946,232.667 11.083 M181.167 11.750 C 180.997 11.955,181.008 12.000,181.230 12.000 C 181.378 12.000,181.500 11.887,181.500 11.750 C 181.500 11.612,181.472 11.500,181.437 11.500 C 181.402 11.500,181.281 11.612,181.167 11.750 M211.940 15.250 C 211.992 15.387,212.103 15.500,212.184 15.500 C 212.266 15.500,212.333 15.387,212.333 15.250 C 212.333 15.112,212.223 15.000,212.089 15.000 C 211.939 15.000,211.881 15.098,211.940 15.250 M201.167 15.833 C 201.167 15.925,201.279 16.000,201.417 16.000 C 201.554 16.000,201.667 15.925,201.667 15.833 C 201.667 15.742,201.554 15.667,201.417 15.667 C 201.279 15.667,201.167 15.742,201.167 15.833 M200.500 16.500 C 200.500 16.592,200.612 16.667,200.750 16.667 C 200.887 16.667,201.000 16.592,201.000 16.500 C 201.000 16.408,200.887 16.333,200.750 16.333 C 200.612 16.333,200.500 16.408,200.500 16.500 M213.257 72.655 C 213.143 72.839,213.406 73.038,213.560 72.884 C 213.719 72.726,213.689 72.500,213.510 72.500 C 213.424 72.500,213.310 72.570,213.257 72.655 M212.611 73.278 C 212.419 73.470,212.490 73.667,212.750 73.667 C 212.887 73.667,213.000 73.554,213.000 73.417 C 213.000 73.156,212.803 73.086,212.611 73.278 M182.333 79.323 C 182.333 79.603,182.629 79.672,182.727 79.416 C 182.785 79.264,182.727 79.167,182.578 79.167 C 182.443 79.167,182.333 79.237,182.333 79.323 M3.858 80.492 C 3.930 80.707,4.159 80.745,4.179 80.546 C 4.186 80.479,4.102 80.395,3.992 80.358 C 3.882 80.322,3.822 80.382,3.858 80.492 M183.743 80.512 C 183.680 80.613,183.703 80.769,183.792 80.859 C 183.899 80.966,183.990 80.934,184.054 80.767 C 184.171 80.463,183.907 80.247,183.743 80.512 M230.667 80.667 C 230.667 80.758,230.779 80.833,230.917 80.833 C 231.054 80.833,231.167 80.758,231.167 80.667 C 231.167 80.575,231.054 80.500,230.917 80.500 C 230.779 80.500,230.667 80.575,230.667 80.667 M230.099 81.141 C 230.042 81.234,230.076 81.360,230.175 81.422 C 230.431 81.580,230.597 81.363,230.383 81.149 C 230.263 81.030,230.170 81.027,230.099 81.141 M4.500 81.922 C 4.500 82.191,4.760 82.253,4.906 82.017 C 4.957 81.935,4.886 81.825,4.749 81.773 C 4.598 81.715,4.500 81.773,4.500 81.922 M229.500 81.917 C 229.500 82.054,229.575 82.167,229.667 82.167 C 229.758 82.167,229.833 82.054,229.833 81.917 C 229.833 81.779,229.758 81.667,229.667 81.667 C 229.575 81.667,229.500 81.779,229.500 81.917 M5.198 82.510 C 5.238 82.631,5.369 82.762,5.490 82.802 C 5.615 82.844,5.677 82.781,5.635 82.656 C 5.595 82.536,5.464 82.405,5.344 82.365 C 5.219 82.323,5.156 82.385,5.198 82.510 M184.872 82.531 C 184.975 82.840,185.333 82.892,185.333 82.597 C 185.333 82.452,185.215 82.333,185.069 82.333 C 184.924 82.333,184.835 82.422,184.872 82.531 M228.833 82.597 C 228.833 82.892,229.192 82.840,229.295 82.531 C 229.331 82.422,229.242 82.333,229.097 82.333 C 228.952 82.333,228.833 82.452,228.833 82.597 M185.500 83.149 C 185.500 83.231,185.612 83.341,185.750 83.394 C 185.902 83.452,186.000 83.394,186.000 83.245 C 186.000 83.110,185.887 83.000,185.750 83.000 C 185.612 83.000,185.500 83.067,185.500 83.149 M228.167 83.245 C 228.167 83.394,228.264 83.452,228.417 83.394 C 228.554 83.341,228.667 83.231,228.667 83.149 C 228.667 83.067,228.554 83.000,228.417 83.000 C 228.279 83.000,228.167 83.110,228.167 83.245 M227.500 83.931 C 227.500 84.076,227.589 84.165,227.698 84.128 C 228.007 84.025,228.058 83.667,227.764 83.667 C 227.619 83.667,227.500 83.785,227.500 83.931 M7.667 84.500 C 7.667 84.592,7.779 84.667,7.917 84.667 C 8.054 84.667,8.167 84.592,8.167 84.500 C 8.167 84.408,8.054 84.333,7.917 84.333 C 7.779 84.333,7.667 84.408,7.667 84.500 M187.500 84.500 C 187.500 84.592,187.612 84.667,187.750 84.667 C 187.887 84.667,188.000 84.592,188.000 84.500 C 188.000 84.408,187.887 84.333,187.750 84.333 C 187.612 84.333,187.500 84.408,187.500 84.500 M8.333 85.083 C 8.333 85.236,8.414 85.334,8.512 85.301 C 8.611 85.269,8.692 85.170,8.692 85.083 C 8.692 84.996,8.611 84.898,8.512 84.865 C 8.414 84.832,8.333 84.931,8.333 85.083 M188.200 84.976 C 188.028 85.085,188.036 85.156,188.242 85.327 C 188.461 85.509,188.500 85.487,188.500 85.187 C 188.500 84.788,188.498 84.787,188.200 84.976 M225.000 85.750 C 225.000 85.888,225.075 86.000,225.167 86.000 C 225.258 86.000,225.333 85.888,225.333 85.750 C 225.333 85.612,225.258 85.500,225.167 85.500 C 225.075 85.500,225.000 85.612,225.000 85.750 M19.500 87.770 C 19.500 87.992,19.545 88.003,19.750 87.833 C 19.887 87.719,20.000 87.598,20.000 87.563 C 20.000 87.528,19.887 87.500,19.750 87.500 C 19.612 87.500,19.500 87.622,19.500 87.770 M28.833 87.563 C 28.833 87.598,28.946 87.719,29.083 87.833 C 29.288 88.003,29.333 87.992,29.333 87.770 C 29.333 87.622,29.221 87.500,29.083 87.500 C 28.946 87.500,28.833 87.528,28.833 87.563 M94.000 87.770 C 94.000 87.992,94.045 88.003,94.250 87.833 C 94.388 87.719,94.500 87.598,94.500 87.563 C 94.500 87.528,94.388 87.500,94.250 87.500 C 94.112 87.500,94.000 87.622,94.000 87.770 M103.449 87.607 C 103.316 87.740,103.466 88.000,103.677 88.000 C 103.763 88.000,103.833 87.888,103.833 87.750 C 103.833 87.492,103.637 87.419,103.449 87.607 " stroke="none" fill="#141414" fill-rule="evenodd"></path><path id="path2" d="M29.333 0.167 C 29.333 0.258,29.183 0.333,29.000 0.333 C 28.778 0.333,28.667 0.444,28.667 0.667 C 28.667 0.889,28.556 1.000,28.333 1.000 C 28.001 1.000,28.000 1.111,28.000 44.583 C 28.000 88.056,28.001 88.167,28.333 88.167 C 28.556 88.167,28.667 88.278,28.667 88.500 C 28.667 88.829,28.778 88.833,37.917 88.833 C 47.056 88.833,47.167 88.829,47.167 88.500 C 47.167 88.278,47.278 88.167,47.500 88.167 C 47.832 88.167,47.833 88.056,47.833 61.182 C 47.833 34.280,47.834 34.198,48.167 34.285 C 48.415 34.350,48.500 34.512,48.500 34.925 C 48.500 35.331,48.588 35.506,48.833 35.583 C 49.113 35.672,49.167 35.836,49.167 36.595 C 49.167 37.389,49.208 37.500,49.500 37.500 C 49.794 37.500,49.833 37.611,49.833 38.432 C 49.833 39.224,49.883 39.378,50.167 39.452 C 50.417 39.517,50.500 39.679,50.500 40.103 C 50.500 40.556,50.566 40.667,50.833 40.667 C 51.130 40.667,51.167 40.778,51.167 41.667 C 51.167 42.444,51.222 42.667,51.417 42.667 C 51.605 42.667,51.667 42.870,51.667 43.499 C 51.667 44.150,51.739 44.376,52.000 44.539 C 52.223 44.678,52.333 44.927,52.333 45.290 C 52.333 45.722,52.402 45.833,52.667 45.833 C 52.960 45.833,53.000 45.944,53.000 46.766 C 53.000 47.558,53.050 47.711,53.333 47.785 C 53.615 47.859,53.667 48.012,53.667 48.769 C 53.667 49.556,53.708 49.667,54.000 49.667 C 54.296 49.667,54.333 49.778,54.333 50.667 C 54.333 51.556,54.370 51.667,54.667 51.667 C 54.937 51.667,55.000 51.778,55.000 52.255 C 55.000 52.625,55.093 52.880,55.250 52.940 C 55.426 53.007,55.500 53.282,55.500 53.867 C 55.500 54.558,55.556 54.713,55.833 54.785 C 56.109 54.857,56.167 55.012,56.167 55.685 C 56.167 56.317,56.241 56.543,56.500 56.705 C 56.723 56.844,56.833 57.094,56.833 57.457 C 56.833 57.889,56.902 58.000,57.167 58.000 C 57.460 58.000,57.500 58.111,57.500 58.932 C 57.500 59.724,57.550 59.878,57.833 59.952 C 58.115 60.025,58.167 60.179,58.167 60.952 C 58.167 61.724,58.218 61.878,58.500 61.952 C 58.750 62.017,58.833 62.179,58.833 62.603 C 58.833 63.056,58.899 63.167,59.167 63.167 C 59.463 63.167,59.500 63.278,59.500 64.167 C 59.500 64.944,59.556 65.167,59.750 65.167 C 59.940 65.167,60.000 65.372,60.000 66.016 C 60.000 66.724,60.055 66.879,60.333 66.952 C 60.586 67.018,60.667 67.179,60.667 67.618 C 60.667 68.058,60.747 68.219,61.000 68.285 C 61.281 68.358,61.333 68.512,61.333 69.258 C 61.333 69.998,61.388 70.162,61.667 70.250 C 61.946 70.339,62.000 70.502,62.000 71.261 C 62.000 72.056,62.041 72.167,62.333 72.167 C 62.605 72.167,62.667 72.278,62.667 72.766 C 62.667 73.224,62.745 73.385,63.000 73.452 C 63.281 73.525,63.333 73.679,63.333 74.436 C 63.333 75.222,63.375 75.333,63.667 75.333 C 63.963 75.333,64.000 75.444,64.000 76.333 C 64.000 77.111,64.056 77.333,64.250 77.333 C 64.417 77.333,64.500 77.500,64.500 77.832 C 64.500 78.150,64.621 78.406,64.833 78.539 C 65.092 78.700,65.167 78.927,65.167 79.556 C 65.167 80.224,65.224 80.380,65.500 80.452 C 65.781 80.525,65.833 80.679,65.833 81.425 C 65.833 82.164,65.888 82.328,66.167 82.417 C 66.446 82.505,66.500 82.669,66.500 83.428 C 66.500 84.222,66.541 84.333,66.833 84.333 C 67.105 84.333,67.167 84.444,67.167 84.932 C 67.167 85.391,67.245 85.552,67.500 85.618 C 67.782 85.692,67.833 85.846,67.833 86.618 C 67.833 87.391,67.885 87.545,68.167 87.618 C 68.350 87.666,68.500 87.809,68.500 87.936 C 68.500 88.063,68.604 88.167,68.731 88.167 C 68.857 88.167,69.000 88.317,69.048 88.500 C 69.186 89.026,94.667 89.026,94.667 88.500 C 94.667 88.278,94.778 88.167,95.000 88.167 C 95.332 88.167,95.333 88.056,95.333 44.583 C 95.333 2.011,95.326 1.000,95.019 1.000 C 94.846 1.000,94.667 0.851,94.618 0.667 C 94.570 0.483,94.412 0.333,94.266 0.333 C 94.120 0.333,94.000 0.258,94.000 0.167 C 94.000 0.058,90.917 0.000,85.083 0.000 C 80.035 0.000,76.167 0.064,76.167 0.147 C 76.167 0.228,76.017 0.334,75.833 0.382 C 75.502 0.468,75.500 0.615,75.487 26.276 C 75.480 40.470,75.436 51.990,75.390 51.875 C 75.343 51.760,75.199 51.667,75.069 51.667 C 74.912 51.667,74.833 51.477,74.833 51.095 C 74.833 50.669,74.748 50.495,74.500 50.417 C 74.225 50.329,74.167 50.164,74.167 49.473 C 74.167 48.776,74.111 48.621,73.833 48.548 C 73.551 48.475,73.500 48.321,73.500 47.548 C 73.500 46.776,73.449 46.622,73.167 46.548 C 72.916 46.483,72.833 46.321,72.833 45.897 C 72.833 45.444,72.768 45.333,72.500 45.333 C 72.204 45.333,72.167 45.222,72.167 44.333 C 72.167 43.556,72.111 43.333,71.917 43.333 C 71.750 43.333,71.667 43.167,71.667 42.835 C 71.667 42.517,71.546 42.261,71.333 42.128 C 71.074 41.966,71.000 41.739,71.000 41.111 C 71.000 40.442,70.942 40.287,70.667 40.215 C 70.386 40.142,70.333 39.988,70.333 39.242 C 70.333 38.502,70.278 38.338,70.000 38.250 C 69.752 38.171,69.667 37.998,69.667 37.572 C 69.667 37.111,69.602 37.000,69.333 37.000 C 69.040 37.000,69.000 36.889,69.000 36.068 C 69.000 35.276,68.950 35.122,68.667 35.048 C 68.414 34.982,68.333 34.821,68.333 34.382 C 68.333 33.942,68.253 33.781,68.000 33.715 C 67.719 33.641,67.667 33.488,67.667 32.731 C 67.667 32.044,67.608 31.833,67.417 31.833 C 67.228 31.833,67.167 31.630,67.167 31.001 C 67.167 30.350,67.094 30.124,66.833 29.961 C 66.627 29.832,66.500 29.573,66.500 29.278 C 66.500 28.942,66.402 28.776,66.167 28.715 C 65.885 28.641,65.833 28.488,65.833 27.715 C 65.833 26.942,65.782 26.789,65.500 26.715 C 65.247 26.649,65.167 26.488,65.167 26.048 C 65.167 25.609,65.086 25.448,64.833 25.382 C 64.552 25.308,64.500 25.154,64.500 24.397 C 64.500 23.611,64.459 23.500,64.167 23.500 C 63.870 23.500,63.833 23.389,63.833 22.500 C 63.833 21.611,63.796 21.500,63.500 21.500 C 63.230 21.500,63.167 21.389,63.167 20.917 C 63.167 20.509,63.091 20.333,62.917 20.333 C 62.724 20.333,62.667 20.119,62.667 19.401 C 62.667 18.609,62.617 18.456,62.333 18.382 C 62.085 18.317,62.000 18.154,62.000 17.742 C 62.000 17.336,61.912 17.161,61.667 17.083 C 61.387 16.995,61.333 16.831,61.333 16.072 C 61.333 15.278,61.292 15.167,61.000 15.167 C 60.706 15.167,60.667 15.056,60.667 14.234 C 60.667 13.442,60.617 13.289,60.333 13.215 C 60.081 13.149,60.000 12.988,60.000 12.548 C 60.000 12.109,59.919 11.948,59.667 11.882 C 59.385 11.808,59.333 11.654,59.333 10.897 C 59.333 10.111,59.292 10.000,59.000 10.000 C 58.707 10.000,58.667 9.889,58.667 9.078 C 58.667 8.412,58.597 8.130,58.417 8.060 C 58.272 8.005,58.167 7.755,58.167 7.467 C 58.167 7.109,58.073 6.944,57.833 6.882 C 57.551 6.808,57.500 6.654,57.500 5.882 C 57.500 5.109,57.449 4.955,57.167 4.882 C 56.918 4.817,56.833 4.654,56.833 4.242 C 56.833 3.836,56.745 3.661,56.500 3.583 C 56.221 3.495,56.167 3.331,56.167 2.572 C 56.167 1.778,56.126 1.667,55.833 1.667 C 55.611 1.667,55.500 1.556,55.500 1.333 C 55.500 1.111,55.389 1.000,55.167 1.000 C 54.944 1.000,54.833 0.889,54.833 0.667 C 54.833 0.481,54.722 0.333,54.583 0.333 C 54.446 0.333,54.333 0.258,54.333 0.167 C 54.333 0.057,50.056 0.000,41.833 0.000 C 33.611 0.000,29.333 0.057,29.333 0.167 M103.667 0.167 C 103.667 0.258,103.554 0.333,103.417 0.333 C 103.278 0.333,103.167 0.481,103.167 0.667 C 103.167 0.889,103.056 1.000,102.833 1.000 C 102.501 1.000,102.500 1.111,102.500 44.583 C 102.500 88.056,102.501 88.167,102.833 88.167 C 103.056 88.167,103.167 88.278,103.167 88.500 C 103.167 88.829,103.278 88.833,112.417 88.833 C 121.556 88.833,121.667 88.829,121.667 88.500 C 121.667 88.278,121.778 88.167,122.000 88.167 C 122.332 88.167,122.333 88.056,122.333 61.182 C 122.333 34.280,122.334 34.198,122.667 34.285 C 122.919 34.351,123.000 34.512,123.000 34.952 C 123.000 35.391,123.081 35.552,123.333 35.618 C 123.615 35.692,123.667 35.846,123.667 36.603 C 123.667 37.389,123.708 37.500,124.000 37.500 C 124.296 37.500,124.333 37.611,124.333 38.500 C 124.333 39.389,124.370 39.500,124.667 39.500 C 124.937 39.500,125.000 39.611,125.000 40.083 C 125.000 40.491,125.075 40.667,125.250 40.667 C 125.442 40.667,125.500 40.881,125.500 41.599 C 125.500 42.391,125.550 42.544,125.833 42.618 C 126.114 42.692,126.167 42.846,126.167 43.592 C 126.167 44.331,126.222 44.495,126.500 44.583 C 126.748 44.662,126.833 44.836,126.833 45.261 C 126.833 45.722,126.898 45.833,127.167 45.833 C 127.460 45.833,127.500 45.944,127.500 46.766 C 127.500 47.558,127.550 47.711,127.833 47.785 C 128.115 47.859,128.167 48.012,128.167 48.769 C 128.167 49.556,128.208 49.667,128.500 49.667 C 128.778 49.667,128.833 49.778,128.833 50.333 C 128.833 50.815,128.903 51.000,129.083 51.000 C 129.272 51.000,129.333 51.204,129.333 51.832 C 129.333 52.483,129.406 52.709,129.667 52.872 C 129.926 53.034,130.000 53.261,130.000 53.889 C 130.000 54.558,130.058 54.713,130.333 54.785 C 130.614 54.858,130.667 55.012,130.667 55.758 C 130.667 56.498,130.722 56.662,131.000 56.750 C 131.248 56.829,131.333 57.002,131.333 57.428 C 131.333 57.889,131.398 58.000,131.667 58.000 C 131.960 58.000,132.000 58.111,132.000 58.932 C 132.000 59.724,132.050 59.878,132.333 59.952 C 132.615 60.025,132.667 60.179,132.667 60.952 C 132.667 61.724,132.718 61.878,133.000 61.952 C 133.250 62.017,133.333 62.179,133.333 62.603 C 133.333 62.993,133.410 63.167,133.583 63.167 C 133.768 63.167,133.833 63.360,133.833 63.903 C 133.833 64.798,133.960 65.167,134.268 65.167 C 134.436 65.167,134.500 65.401,134.500 66.016 C 134.500 66.724,134.555 66.879,134.833 66.952 C 135.086 67.018,135.167 67.179,135.167 67.618 C 135.167 68.058,135.247 68.219,135.500 68.285 C 135.782 68.359,135.833 68.512,135.833 69.285 C 135.833 70.058,135.885 70.211,136.167 70.285 C 136.448 70.359,136.500 70.512,136.500 71.269 C 136.500 72.056,136.541 72.167,136.833 72.167 C 137.111 72.167,137.167 72.278,137.167 72.833 C 137.167 73.389,137.222 73.500,137.500 73.500 C 137.793 73.500,137.833 73.611,137.833 74.417 C 137.833 75.120,137.891 75.333,138.083 75.333 C 138.268 75.333,138.333 75.526,138.333 76.070 C 138.333 76.964,138.460 77.333,138.768 77.333 C 138.915 77.333,139.000 77.517,139.000 77.832 C 139.000 78.150,139.121 78.406,139.333 78.539 C 139.592 78.700,139.667 78.927,139.667 79.556 C 139.667 80.224,139.724 80.380,140.000 80.452 C 140.282 80.525,140.333 80.679,140.333 81.452 C 140.333 82.224,140.385 82.378,140.667 82.452 C 140.917 82.517,141.000 82.679,141.000 83.103 C 141.000 83.556,141.066 83.667,141.333 83.667 C 141.630 83.667,141.667 83.778,141.667 84.667 C 141.667 85.556,141.704 85.667,142.000 85.667 C 142.291 85.667,142.334 85.779,142.336 86.542 C 142.339 87.413,142.793 88.167,143.315 88.167 C 143.417 88.167,143.500 88.317,143.500 88.500 C 143.500 88.830,143.611 88.833,156.333 88.833 C 169.056 88.833,169.167 88.830,169.167 88.500 C 169.167 88.278,169.278 88.167,169.500 88.167 C 170.014 88.167,170.029 1.187,169.515 1.052 C 169.341 1.007,169.160 0.826,169.114 0.651 C 169.069 0.476,168.912 0.333,168.766 0.333 C 168.620 0.333,168.500 0.258,168.500 0.167 C 168.500 0.058,165.417 0.000,159.583 0.000 C 153.750 0.000,150.667 0.058,150.667 0.167 C 150.667 0.258,150.517 0.333,150.333 0.333 C 150.001 0.333,150.000 0.449,149.987 26.208 C 149.980 40.440,149.936 51.990,149.890 51.875 C 149.843 51.760,149.699 51.667,149.569 51.667 C 149.418 51.667,149.333 51.487,149.333 51.168 C 149.333 50.850,149.213 50.594,149.000 50.461 C 148.741 50.300,148.667 50.073,148.667 49.444 C 148.667 48.776,148.609 48.620,148.333 48.548 C 148.051 48.475,148.000 48.321,148.000 47.548 C 148.000 46.776,147.949 46.622,147.667 46.548 C 147.416 46.483,147.333 46.321,147.333 45.897 C 147.333 45.444,147.268 45.333,147.000 45.333 C 146.704 45.333,146.667 45.222,146.667 44.333 C 146.667 43.444,146.630 43.333,146.333 43.333 C 146.063 43.333,146.000 43.222,146.000 42.745 C 146.000 42.375,145.907 42.120,145.750 42.060 C 145.574 41.993,145.500 41.718,145.500 41.133 C 145.500 40.442,145.444 40.287,145.167 40.215 C 144.891 40.143,144.833 39.988,144.833 39.315 C 144.833 38.683,144.759 38.457,144.500 38.295 C 144.277 38.156,144.167 37.906,144.167 37.543 C 144.167 37.111,144.098 37.000,143.833 37.000 C 143.540 37.000,143.500 36.889,143.500 36.068 C 143.500 35.276,143.450 35.122,143.167 35.048 C 142.914 34.982,142.833 34.821,142.833 34.382 C 142.833 33.942,142.753 33.781,142.500 33.715 C 142.219 33.641,142.167 33.488,142.167 32.731 C 142.167 31.944,142.125 31.833,141.833 31.833 C 141.540 31.833,141.500 31.722,141.500 30.911 C 141.500 30.246,141.431 29.963,141.250 29.894 C 141.105 29.838,141.000 29.589,141.000 29.300 C 141.000 28.942,140.906 28.778,140.667 28.715 C 140.385 28.641,140.333 28.488,140.333 27.715 C 140.333 26.942,140.282 26.789,140.000 26.715 C 139.719 26.642,139.667 26.488,139.667 25.742 C 139.667 25.002,139.612 24.838,139.333 24.750 C 139.085 24.671,139.000 24.498,139.000 24.072 C 139.000 23.611,138.935 23.500,138.667 23.500 C 138.373 23.500,138.333 23.389,138.333 22.568 C 138.333 21.776,138.283 21.622,138.000 21.548 C 137.750 21.483,137.667 21.321,137.667 20.897 C 137.667 20.444,137.601 20.333,137.333 20.333 C 137.037 20.333,137.000 20.222,137.000 19.333 C 137.000 18.556,136.944 18.333,136.750 18.333 C 136.561 18.333,136.500 18.130,136.500 17.501 C 136.500 16.850,136.428 16.624,136.167 16.461 C 135.944 16.322,135.833 16.073,135.833 15.710 C 135.833 15.278,135.765 15.167,135.500 15.167 C 135.206 15.167,135.167 15.056,135.167 14.234 C 135.167 13.442,135.117 13.289,134.833 13.215 C 134.581 13.149,134.500 12.988,134.500 12.548 C 134.500 12.109,134.419 11.948,134.167 11.882 C 133.885 11.808,133.833 11.654,133.833 10.897 C 133.833 10.111,133.792 10.000,133.500 10.000 C 133.207 10.000,133.167 9.889,133.167 9.078 C 133.167 8.412,133.097 8.130,132.917 8.060 C 132.772 8.005,132.667 7.755,132.667 7.467 C 132.667 7.109,132.573 6.944,132.333 6.882 C 132.065 6.811,132.000 6.654,132.000 6.078 C 132.000 5.202,131.871 4.833,131.566 4.833 C 131.412 4.833,131.333 4.639,131.333 4.261 C 131.333 3.836,131.248 3.662,131.000 3.583 C 130.725 3.496,130.667 3.331,130.667 2.640 C 130.667 1.942,130.611 1.788,130.333 1.715 C 130.149 1.667,130.000 1.488,130.000 1.314 C 130.000 1.111,129.882 1.000,129.667 1.000 C 129.444 1.000,129.333 0.889,129.333 0.667 C 129.333 0.444,129.222 0.333,129.000 0.333 C 128.817 0.333,128.667 0.258,128.667 0.167 C 128.667 0.057,124.389 0.000,116.167 0.000 C 107.944 0.000,103.667 0.057,103.667 0.167 M194.833 0.167 C 194.833 0.258,194.451 0.333,193.984 0.333 C 193.276 0.333,193.121 0.388,193.048 0.667 C 192.975 0.949,192.821 1.000,192.048 1.000 C 191.276 1.000,191.122 1.051,191.048 1.333 C 190.983 1.584,190.821 1.667,190.397 1.667 C 189.944 1.667,189.833 1.732,189.833 2.000 C 189.833 2.278,189.722 2.333,189.167 2.333 C 188.611 2.333,188.500 2.389,188.500 2.667 C 188.500 2.889,188.389 3.000,188.167 3.000 C 187.983 3.000,187.833 3.107,187.833 3.239 C 187.833 3.370,187.683 3.525,187.500 3.583 C 187.317 3.642,187.167 3.797,187.167 3.928 C 187.167 4.082,186.990 4.167,186.668 4.167 C 186.350 4.167,186.094 4.287,185.961 4.500 C 185.847 4.683,185.659 4.833,185.543 4.833 C 185.428 4.833,185.333 4.983,185.333 5.167 C 185.333 5.389,185.222 5.500,185.000 5.500 C 184.778 5.500,184.667 5.611,184.667 5.833 C 184.667 6.056,184.556 6.167,184.333 6.167 C 184.111 6.167,184.000 6.278,184.000 6.500 C 184.000 6.722,183.889 6.833,183.667 6.833 C 183.444 6.833,183.333 6.944,183.333 7.167 C 183.333 7.389,183.222 7.500,183.000 7.500 C 182.730 7.500,182.667 7.611,182.667 8.083 C 182.667 8.479,182.590 8.667,182.428 8.667 C 182.297 8.667,182.142 8.817,182.083 9.000 C 182.025 9.183,181.870 9.333,181.739 9.333 C 181.571 9.333,181.500 9.532,181.500 10.000 C 181.500 10.556,181.444 10.667,181.167 10.667 C 180.944 10.667,180.833 10.778,180.833 11.000 C 180.833 11.222,180.722 11.333,180.500 11.333 C 180.232 11.333,180.167 11.444,180.167 11.897 C 180.167 12.321,180.084 12.483,179.833 12.548 C 179.551 12.622,179.500 12.776,179.500 13.548 C 179.500 14.321,179.449 14.475,179.167 14.548 C 178.891 14.620,178.833 14.776,178.833 15.444 C 178.833 16.073,178.759 16.300,178.500 16.461 C 178.241 16.623,178.167 16.850,178.167 17.482 C 178.167 18.154,178.109 18.309,177.833 18.382 C 177.531 18.461,177.500 18.609,177.500 19.984 C 177.500 21.220,177.454 21.500,177.250 21.500 C 177.039 21.500,177.000 21.898,177.000 24.083 C 177.000 26.556,176.986 26.667,176.667 26.667 C 176.335 26.667,176.333 26.778,176.333 44.583 C 176.333 62.389,176.335 62.500,176.667 62.500 C 176.984 62.500,177.000 62.611,177.000 64.750 C 177.000 66.639,177.040 67.000,177.250 67.000 C 177.454 67.000,177.500 67.278,177.500 68.499 C 177.500 69.817,177.540 70.022,177.833 70.205 C 178.114 70.381,178.167 70.594,178.167 71.556 C 178.167 72.558,178.208 72.709,178.500 72.785 C 178.781 72.858,178.833 73.012,178.833 73.758 C 178.833 74.498,178.888 74.662,179.167 74.750 C 179.415 74.829,179.500 75.002,179.500 75.428 C 179.500 75.889,179.565 76.000,179.833 76.000 C 180.105 76.000,180.167 76.111,180.167 76.599 C 180.167 77.058,180.245 77.218,180.500 77.285 C 180.753 77.351,180.833 77.512,180.833 77.952 C 180.833 78.391,180.914 78.552,181.167 78.618 C 181.417 78.684,181.500 78.846,181.500 79.269 C 181.500 79.660,181.577 79.833,181.750 79.833 C 181.887 79.833,182.000 79.953,182.000 80.099 C 182.000 80.245,182.150 80.404,182.333 80.452 C 182.517 80.500,182.667 80.650,182.667 80.785 C 182.667 80.920,182.817 81.070,183.000 81.118 C 183.183 81.166,183.333 81.316,183.333 81.452 C 183.333 81.587,183.483 81.737,183.667 81.785 C 183.919 81.851,184.000 82.012,184.000 82.452 C 184.000 82.891,184.081 83.052,184.333 83.118 C 184.517 83.166,184.667 83.309,184.667 83.436 C 184.667 83.563,184.817 83.667,185.000 83.667 C 185.222 83.667,185.333 83.778,185.333 84.000 C 185.333 84.270,185.444 84.333,185.917 84.333 C 186.339 84.333,186.500 84.407,186.500 84.599 C 186.500 84.745,186.650 84.904,186.833 84.952 C 187.017 85.000,187.167 85.150,187.167 85.285 C 187.167 85.420,187.310 85.569,187.485 85.614 C 187.659 85.660,187.840 85.841,187.886 86.015 C 187.947 86.251,188.118 86.333,188.548 86.333 C 188.988 86.333,189.149 86.414,189.215 86.667 C 189.276 86.902,189.442 87.000,189.778 87.000 C 190.073 87.000,190.332 87.127,190.461 87.333 C 190.594 87.546,190.850 87.667,191.168 87.667 C 191.500 87.667,191.667 87.750,191.667 87.917 C 191.667 88.097,191.852 88.167,192.333 88.167 C 192.889 88.167,193.000 88.222,193.000 88.500 C 193.000 88.803,193.111 88.833,194.231 88.833 C 195.321 88.833,195.471 88.871,195.548 89.167 C 195.626 89.463,195.776 89.500,196.901 89.500 C 197.634 89.500,198.167 89.570,198.167 89.667 C 198.167 89.776,201.250 89.833,207.083 89.833 C 212.917 89.833,216.000 89.776,216.000 89.667 C 216.000 89.567,216.644 89.500,217.599 89.500 C 219.058 89.500,219.206 89.471,219.285 89.167 C 219.359 88.885,219.512 88.833,220.269 88.833 C 221.056 88.833,221.167 88.792,221.167 88.500 C 221.167 88.207,221.278 88.167,222.089 88.167 C 222.754 88.167,223.037 88.097,223.106 87.917 C 223.162 87.772,223.411 87.667,223.700 87.667 C 224.058 87.667,224.222 87.573,224.285 87.333 C 224.351 87.081,224.512 87.000,224.952 87.000 C 225.391 87.000,225.552 86.919,225.618 86.667 C 225.666 86.483,225.816 86.333,225.952 86.333 C 226.087 86.333,226.237 86.183,226.285 86.000 C 226.351 85.747,226.512 85.667,226.952 85.667 C 227.382 85.667,227.553 85.585,227.614 85.349 C 227.660 85.174,227.841 84.993,228.015 84.948 C 228.190 84.902,228.333 84.745,228.333 84.599 C 228.333 84.453,228.446 84.333,228.583 84.333 C 228.722 84.333,228.833 84.185,228.833 84.000 C 228.833 83.778,228.944 83.667,229.167 83.667 C 229.350 83.667,229.500 83.563,229.500 83.436 C 229.500 83.309,229.650 83.166,229.833 83.118 C 230.017 83.070,230.167 82.917,230.167 82.777 C 230.167 82.637,230.317 82.475,230.500 82.417 C 230.683 82.358,230.833 82.212,230.833 82.092 C 230.833 81.971,230.983 81.833,231.167 81.785 C 231.350 81.737,231.500 81.587,231.500 81.452 C 231.500 81.316,231.650 81.166,231.833 81.118 C 232.089 81.052,232.167 80.891,232.167 80.432 C 232.167 80.011,232.241 79.833,232.417 79.833 C 232.556 79.833,232.667 79.685,232.667 79.500 C 232.667 79.278,232.778 79.167,233.000 79.167 C 233.268 79.167,233.333 79.056,233.333 78.603 C 233.333 78.179,233.416 78.017,233.667 77.952 C 233.922 77.885,234.000 77.724,234.000 77.266 C 234.000 76.778,234.062 76.667,234.333 76.667 C 234.611 76.667,234.667 76.556,234.667 76.000 C 234.667 75.444,234.722 75.333,235.000 75.333 C 235.293 75.333,235.333 75.222,235.333 74.417 C 235.333 73.744,235.395 73.500,235.566 73.500 C 235.871 73.500,236.000 73.132,236.000 72.256 C 236.000 71.679,236.065 71.522,236.333 71.452 C 236.627 71.375,236.667 71.224,236.667 70.182 C 236.667 69.242,236.718 69.000,236.917 69.000 C 237.124 69.000,237.167 68.676,237.167 67.083 C 237.167 65.278,237.186 65.167,237.500 65.167 C 237.823 65.167,237.833 65.056,237.833 61.583 C 237.833 58.111,237.844 58.000,238.167 58.000 C 238.497 58.000,238.500 57.889,238.500 44.318 C 238.500 30.776,238.497 30.635,238.167 30.548 C 237.847 30.465,237.833 30.321,237.833 26.981 C 237.833 23.611,237.823 23.500,237.500 23.500 C 237.186 23.500,237.167 23.389,237.167 21.583 C 237.167 19.991,237.124 19.667,236.917 19.667 C 236.718 19.667,236.667 19.426,236.667 18.501 C 236.667 17.517,236.615 17.304,236.333 17.128 C 236.074 16.966,236.000 16.739,236.000 16.111 C 236.000 15.442,235.942 15.287,235.667 15.215 C 235.414 15.149,235.333 14.988,235.333 14.548 C 235.333 14.109,235.253 13.948,235.000 13.882 C 234.718 13.808,234.667 13.654,234.667 12.882 C 234.667 12.109,234.615 11.955,234.333 11.882 C 234.083 11.816,234.000 11.654,234.000 11.231 C 234.000 10.778,233.934 10.667,233.667 10.667 C 233.444 10.667,233.333 10.556,233.333 10.333 C 233.333 10.111,233.222 10.000,233.000 10.000 C 232.722 10.000,232.667 9.889,232.667 9.333 C 232.667 8.967,232.595 8.667,232.508 8.667 C 232.301 8.667,231.500 7.866,231.500 7.659 C 231.500 7.572,231.350 7.500,231.167 7.500 C 230.944 7.500,230.833 7.389,230.833 7.167 C 230.833 6.944,230.722 6.833,230.500 6.833 C 230.278 6.833,230.167 6.722,230.167 6.500 C 230.167 6.278,230.056 6.167,229.833 6.167 C 229.611 6.167,229.500 6.056,229.500 5.833 C 229.500 5.611,229.389 5.500,229.167 5.500 C 228.944 5.500,228.833 5.389,228.833 5.167 C 228.833 4.983,228.764 4.833,228.680 4.833 C 228.480 4.833,227.000 3.354,227.000 3.154 C 227.000 3.069,226.700 3.000,226.333 3.000 C 225.778 3.000,225.667 2.944,225.667 2.667 C 225.667 2.389,225.556 2.333,225.000 2.333 C 224.444 2.333,224.333 2.278,224.333 2.000 C 224.333 1.732,224.222 1.667,223.769 1.667 C 223.346 1.667,223.184 1.584,223.118 1.333 C 223.052 1.081,222.891 1.000,222.452 1.000 C 222.012 1.000,221.851 0.919,221.785 0.667 C 221.711 0.383,221.558 0.333,220.766 0.333 C 220.253 0.333,219.833 0.258,219.833 0.167 C 219.833 -0.162,216.868 -0.041,216.782 0.292 C 216.709 0.569,216.704 0.569,216.686 0.292 C 216.668 0.018,216.108 0.000,207.417 0.000 C 198.720 0.000,198.166 0.017,198.161 0.292 C 198.156 0.569,198.146 0.569,197.935 0.292 C 197.684 -0.039,194.833 -0.154,194.833 0.167 M0.382 0.667 C 0.334 0.850,0.228 1.000,0.147 1.000 C 0.062 1.000,0.000 16.666,0.000 37.917 C 0.000 62.417,0.056 74.833,0.167 74.833 C 0.258 74.833,0.333 75.215,0.333 75.682 C 0.333 76.391,0.388 76.546,0.667 76.618 C 0.949 76.692,1.000 76.846,1.000 77.618 C 1.000 78.391,1.051 78.545,1.333 78.618 C 1.517 78.666,1.667 78.809,1.667 78.936 C 1.667 79.063,1.817 79.167,2.000 79.167 C 2.278 79.167,2.333 79.278,2.333 79.833 C 2.333 80.389,2.389 80.500,2.667 80.500 C 2.889 80.500,3.000 80.611,3.000 80.833 C 3.000 81.019,3.111 81.167,3.250 81.167 C 3.413 81.167,3.500 81.329,3.500 81.632 C 3.500 81.961,3.695 82.276,4.167 82.710 C 4.533 83.047,4.833 83.400,4.833 83.495 C 4.833 83.589,4.983 83.667,5.167 83.667 C 5.389 83.667,5.500 83.778,5.500 84.000 C 5.500 84.278,5.611 84.333,6.167 84.333 C 6.722 84.333,6.833 84.389,6.833 84.667 C 6.833 84.889,6.944 85.000,7.167 85.000 C 7.389 85.000,7.500 85.111,7.500 85.333 C 7.500 85.517,7.607 85.667,7.739 85.667 C 7.870 85.667,8.025 85.817,8.083 86.000 C 8.162 86.248,8.336 86.333,8.761 86.333 C 9.139 86.333,9.333 86.412,9.333 86.566 C 9.333 86.831,9.687 87.000,10.244 87.000 C 10.488 87.000,10.660 87.122,10.715 87.333 C 10.787 87.610,10.942 87.667,11.633 87.667 C 12.218 87.667,12.493 87.741,12.560 87.917 C 12.634 88.108,12.949 88.167,13.911 88.167 C 15.056 88.167,15.167 88.196,15.167 88.500 C 15.167 88.819,15.278 88.833,17.667 88.833 C 20.056 88.833,20.167 88.819,20.167 88.500 C 20.167 88.278,20.278 88.167,20.500 88.167 C 20.832 88.167,20.833 88.056,20.833 44.583 C 20.833 1.111,20.832 1.000,20.500 1.000 C 20.278 1.000,20.167 0.889,20.167 0.667 C 20.167 0.337,20.056 0.333,10.318 0.333 C 0.609 0.333,0.468 0.338,0.382 0.667 M30.000 0.823 C 30.000 1.020,29.675 1.230,29.556 1.111 C 29.436 0.992,29.647 0.667,29.843 0.667 C 29.929 0.667,30.000 0.737,30.000 0.823 M53.969 0.990 C 54.010 1.115,53.948 1.177,53.823 1.135 C 53.703 1.095,53.571 0.964,53.531 0.844 C 53.490 0.719,53.552 0.656,53.677 0.698 C 53.797 0.738,53.929 0.869,53.969 0.990 M104.394 0.917 C 104.292 1.181,104.000 1.263,104.000 1.028 C 104.000 0.852,104.182 0.667,104.356 0.667 C 104.429 0.667,104.446 0.779,104.394 0.917 M168.833 1.417 C 169.003 1.621,168.992 1.667,168.770 1.667 C 168.622 1.667,168.500 1.554,168.500 1.417 C 168.500 1.279,168.528 1.167,168.563 1.167 C 168.598 1.167,168.719 1.279,168.833 1.417 M103.833 1.500 C 103.833 1.592,103.721 1.667,103.583 1.667 C 103.446 1.667,103.333 1.592,103.333 1.500 C 103.333 1.408,103.446 1.333,103.583 1.333 C 103.721 1.333,103.833 1.408,103.833 1.500 M189.167 3.417 C 189.167 3.554,189.092 3.667,189.000 3.667 C 188.908 3.667,188.833 3.554,188.833 3.417 C 188.833 3.279,188.908 3.167,189.000 3.167 C 189.092 3.167,189.167 3.279,189.167 3.417 M188.628 4.031 C 188.525 4.340,188.167 4.392,188.167 4.097 C 188.167 3.952,188.285 3.833,188.431 3.833 C 188.576 3.833,188.665 3.922,188.628 4.031 M226.667 4.177 C 226.667 4.263,226.554 4.333,226.417 4.333 C 226.159 4.333,226.086 4.137,226.273 3.949 C 226.406 3.816,226.667 3.966,226.667 4.177 M227.292 4.931 C 227.133 5.089,226.814 4.832,226.933 4.641 C 227.003 4.527,227.096 4.530,227.216 4.649 C 227.314 4.747,227.348 4.874,227.292 4.931 M186.667 5.323 C 186.667 5.520,186.342 5.730,186.222 5.611 C 186.103 5.492,186.313 5.167,186.510 5.167 C 186.596 5.167,186.667 5.237,186.667 5.323 M227.969 5.490 C 228.010 5.615,227.948 5.677,227.823 5.635 C 227.703 5.595,227.571 5.464,227.531 5.344 C 227.490 5.219,227.552 5.156,227.677 5.198 C 227.797 5.238,227.929 5.369,227.969 5.490 M185.333 6.583 C 185.333 6.721,185.212 6.833,185.063 6.833 C 184.841 6.833,184.830 6.788,185.000 6.583 C 185.114 6.446,185.236 6.333,185.270 6.333 C 185.305 6.333,185.333 6.446,185.333 6.583 M229.167 6.583 C 229.337 6.788,229.325 6.833,229.104 6.833 C 228.955 6.833,228.833 6.721,228.833 6.583 C 228.833 6.446,228.862 6.333,228.896 6.333 C 228.931 6.333,229.053 6.446,229.167 6.583 M184.128 7.865 C 184.025 8.174,183.667 8.225,183.667 7.931 C 183.667 7.785,183.785 7.667,183.931 7.667 C 184.076 7.667,184.165 7.756,184.128 7.865 M230.500 7.931 C 230.500 8.076,230.411 8.165,230.302 8.128 C 229.993 8.025,229.942 7.667,230.236 7.667 C 230.381 7.667,230.500 7.785,230.500 7.931 M231.012 8.546 C 230.992 8.745,230.763 8.707,230.692 8.492 C 230.655 8.382,230.715 8.322,230.825 8.358 C 230.935 8.395,231.019 8.479,231.012 8.546 M182.833 9.833 C 182.833 9.925,182.721 10.000,182.583 10.000 C 182.446 10.000,182.333 9.925,182.333 9.833 C 182.333 9.742,182.446 9.667,182.583 9.667 C 182.721 9.667,182.833 9.742,182.833 9.833 M233.000 11.083 C 233.170 11.288,233.159 11.333,232.937 11.333 C 232.788 11.333,232.667 11.221,232.667 11.083 C 232.667 10.946,232.695 10.833,232.730 10.833 C 232.764 10.833,232.886 10.946,233.000 11.083 M181.500 11.750 C 181.500 11.887,181.378 12.000,181.230 12.000 C 181.008 12.000,180.997 11.955,181.167 11.750 C 181.281 11.612,181.402 11.500,181.437 11.500 C 181.472 11.500,181.500 11.612,181.500 11.750 M208.394 14.750 C 208.467 14.942,208.783 15.000,209.745 15.000 C 210.889 15.000,211.000 15.030,211.000 15.333 C 211.000 15.556,211.111 15.667,211.333 15.667 C 211.556 15.667,211.667 15.778,211.667 16.000 C 211.667 16.270,211.778 16.333,212.250 16.333 C 212.756 16.333,212.833 16.387,212.833 16.736 C 212.833 17.312,212.999 17.667,213.268 17.667 C 213.396 17.667,213.500 17.774,213.500 17.905 C 213.500 18.037,213.650 18.192,213.833 18.250 C 214.081 18.329,214.167 18.502,214.167 18.928 C 214.167 19.389,214.231 19.500,214.500 19.500 C 214.794 19.500,214.833 19.611,214.833 20.432 C 214.833 21.224,214.883 21.378,215.167 21.452 C 215.462 21.529,215.500 21.679,215.500 22.769 C 215.500 23.889,215.530 24.000,215.833 24.000 C 216.147 24.000,216.167 24.111,216.167 25.917 C 216.167 27.509,216.209 27.833,216.417 27.833 C 216.637 27.833,216.667 29.769,216.667 44.250 C 216.667 58.731,216.637 60.667,216.417 60.667 C 216.207 60.667,216.167 61.028,216.167 62.917 C 216.167 65.056,216.150 65.167,215.833 65.167 C 215.530 65.167,215.500 65.278,215.500 66.397 C 215.500 67.488,215.462 67.638,215.167 67.715 C 214.914 67.781,214.833 67.942,214.833 68.382 C 214.833 68.821,214.753 68.982,214.500 69.048 C 214.247 69.114,214.167 69.276,214.167 69.715 C 214.167 70.154,214.086 70.316,213.833 70.382 C 213.578 70.448,213.500 70.609,213.500 71.068 C 213.500 71.438,213.420 71.667,213.291 71.667 C 213.175 71.667,212.840 71.929,212.546 72.250 C 212.251 72.571,211.933 72.833,211.838 72.833 C 211.744 72.833,211.667 72.983,211.667 73.167 C 211.667 73.438,211.556 73.500,211.068 73.500 C 210.609 73.500,210.448 73.578,210.382 73.833 C 210.246 74.352,204.587 74.352,204.452 73.833 C 204.385 73.578,204.224 73.500,203.766 73.500 C 203.278 73.500,203.167 73.438,203.167 73.167 C 203.167 72.909,203.056 72.833,202.674 72.833 C 202.059 72.833,201.333 72.144,201.333 71.560 C 201.333 71.282,201.223 71.107,201.015 71.052 C 200.841 71.007,200.660 70.826,200.614 70.651 C 200.569 70.476,200.412 70.333,200.266 70.333 C 200.054 70.333,200.000 70.143,200.000 69.401 C 200.000 68.609,199.950 68.456,199.667 68.382 C 199.385 68.308,199.333 68.154,199.333 67.397 C 199.333 66.611,199.292 66.500,199.000 66.500 C 198.696 66.500,198.667 66.389,198.667 65.234 C 198.667 64.109,198.630 63.959,198.333 63.882 C 198.017 63.799,198.000 63.654,198.000 60.981 C 198.000 58.590,197.962 58.167,197.750 58.167 C 197.530 58.167,197.500 56.558,197.500 44.684 C 197.500 32.854,197.531 31.191,197.750 31.106 C 197.959 31.026,198.000 30.541,198.000 28.172 C 198.000 25.444,198.013 25.333,198.333 25.333 C 198.637 25.333,198.667 25.222,198.667 24.103 C 198.667 23.012,198.705 22.862,199.000 22.785 C 199.296 22.708,199.333 22.558,199.333 21.432 C 199.333 20.278,199.363 20.167,199.667 20.167 C 199.935 20.167,200.000 20.056,200.000 19.595 C 200.000 19.169,200.085 18.995,200.333 18.917 C 200.581 18.838,200.667 18.664,200.667 18.239 C 200.667 17.853,200.745 17.667,200.905 17.667 C 201.037 17.667,201.192 17.517,201.250 17.333 C 201.308 17.150,201.470 17.000,201.610 17.000 C 201.750 17.000,201.904 16.850,201.952 16.667 C 202.000 16.483,202.143 16.333,202.269 16.333 C 202.396 16.333,202.500 16.183,202.500 16.000 C 202.500 15.722,202.611 15.667,203.167 15.667 C 203.722 15.667,203.833 15.611,203.833 15.333 C 203.833 15.040,203.944 15.000,204.755 15.000 C 205.421 15.000,205.704 14.931,205.773 14.750 C 205.846 14.559,206.158 14.500,207.083 14.500 C 208.009 14.500,208.320 14.559,208.394 14.750 M212.333 15.250 C 212.333 15.387,212.266 15.500,212.184 15.500 C 212.103 15.500,211.992 15.387,211.940 15.250 C 211.881 15.098,211.939 15.000,212.089 15.000 C 212.223 15.000,212.333 15.112,212.333 15.250 M201.667 15.833 C 201.667 15.925,201.554 16.000,201.417 16.000 C 201.279 16.000,201.167 15.925,201.167 15.833 C 201.167 15.742,201.279 15.667,201.417 15.667 C 201.554 15.667,201.667 15.742,201.667 15.833 M201.000 16.500 C 201.000 16.592,200.887 16.667,200.750 16.667 C 200.612 16.667,200.500 16.592,200.500 16.500 C 200.500 16.408,200.612 16.333,200.750 16.333 C 200.887 16.333,201.000 16.408,201.000 16.500 M213.667 72.639 C 213.667 72.856,213.469 73.000,213.307 72.901 C 213.135 72.794,213.284 72.500,213.510 72.500 C 213.596 72.500,213.667 72.563,213.667 72.639 M213.000 73.417 C 213.000 73.554,212.887 73.667,212.750 73.667 C 212.490 73.667,212.419 73.470,212.611 73.278 C 212.803 73.086,213.000 73.156,213.000 73.417 M182.727 79.416 C 182.675 79.553,182.565 79.623,182.483 79.573 C 182.247 79.427,182.309 79.167,182.578 79.167 C 182.727 79.167,182.785 79.264,182.727 79.416 M4.179 80.546 C 4.159 80.745,3.930 80.707,3.858 80.492 C 3.822 80.382,3.882 80.322,3.992 80.358 C 4.102 80.395,4.186 80.479,4.179 80.546 M184.054 80.767 C 183.990 80.934,183.899 80.966,183.792 80.859 C 183.602 80.668,183.786 80.285,184.004 80.419 C 184.086 80.470,184.108 80.626,184.054 80.767 M231.167 80.667 C 231.167 80.758,231.054 80.833,230.917 80.833 C 230.779 80.833,230.667 80.758,230.667 80.667 C 230.667 80.575,230.779 80.500,230.917 80.500 C 231.054 80.500,231.167 80.575,231.167 80.667 M230.458 81.431 C 230.299 81.589,229.981 81.332,230.099 81.141 C 230.170 81.027,230.263 81.030,230.383 81.149 C 230.481 81.247,230.515 81.374,230.458 81.431 M4.906 82.017 C 4.760 82.253,4.500 82.191,4.500 81.922 C 4.500 81.773,4.598 81.715,4.749 81.773 C 4.886 81.825,4.957 81.935,4.906 82.017 M229.833 81.917 C 229.833 82.054,229.758 82.167,229.667 82.167 C 229.575 82.167,229.500 82.054,229.500 81.917 C 229.500 81.779,229.575 81.667,229.667 81.667 C 229.758 81.667,229.833 81.779,229.833 81.917 M5.635 82.656 C 5.677 82.781,5.615 82.844,5.490 82.802 C 5.369 82.762,5.238 82.631,5.198 82.510 C 5.156 82.385,5.219 82.323,5.344 82.365 C 5.464 82.405,5.595 82.536,5.635 82.656 M185.333 82.597 C 185.333 82.742,185.244 82.831,185.135 82.795 C 184.826 82.692,184.775 82.333,185.069 82.333 C 185.215 82.333,185.333 82.452,185.333 82.597 M229.295 82.531 C 229.192 82.840,228.833 82.892,228.833 82.597 C 228.833 82.452,228.952 82.333,229.097 82.333 C 229.242 82.333,229.331 82.422,229.295 82.531 M186.000 83.245 C 186.000 83.394,185.902 83.452,185.750 83.394 C 185.612 83.341,185.500 83.231,185.500 83.149 C 185.500 83.067,185.612 83.000,185.750 83.000 C 185.887 83.000,186.000 83.110,186.000 83.245 M228.667 83.149 C 228.667 83.231,228.554 83.341,228.417 83.394 C 228.264 83.452,228.167 83.394,228.167 83.245 C 228.167 83.110,228.279 83.000,228.417 83.000 C 228.554 83.000,228.667 83.067,228.667 83.149 M227.962 83.865 C 227.859 84.174,227.500 84.225,227.500 83.931 C 227.500 83.785,227.619 83.667,227.764 83.667 C 227.909 83.667,227.998 83.756,227.962 83.865 M8.167 84.500 C 8.167 84.592,8.054 84.667,7.917 84.667 C 7.779 84.667,7.667 84.592,7.667 84.500 C 7.667 84.408,7.779 84.333,7.917 84.333 C 8.054 84.333,8.167 84.408,8.167 84.500 M188.000 84.500 C 188.000 84.592,187.887 84.667,187.750 84.667 C 187.612 84.667,187.500 84.592,187.500 84.500 C 187.500 84.408,187.612 84.333,187.750 84.333 C 187.887 84.333,188.000 84.408,188.000 84.500 M8.692 85.083 C 8.692 85.170,8.611 85.269,8.512 85.301 C 8.414 85.334,8.333 85.236,8.333 85.083 C 8.333 84.931,8.414 84.832,8.512 84.865 C 8.611 84.898,8.692 84.996,8.692 85.083 M188.500 85.187 C 188.500 85.487,188.461 85.509,188.242 85.327 C 188.036 85.156,188.028 85.085,188.200 84.976 C 188.498 84.787,188.500 84.788,188.500 85.187 M225.333 85.750 C 225.333 85.888,225.258 86.000,225.167 86.000 C 225.075 86.000,225.000 85.888,225.000 85.750 C 225.000 85.612,225.075 85.500,225.167 85.500 C 225.258 85.500,225.333 85.612,225.333 85.750 M20.000 87.563 C 20.000 87.598,19.887 87.719,19.750 87.833 C 19.545 88.003,19.500 87.992,19.500 87.770 C 19.500 87.622,19.612 87.500,19.750 87.500 C 19.887 87.500,20.000 87.528,20.000 87.563 M29.333 87.770 C 29.333 87.992,29.288 88.003,29.083 87.833 C 28.946 87.719,28.833 87.598,28.833 87.563 C 28.833 87.528,28.946 87.500,29.083 87.500 C 29.221 87.500,29.333 87.622,29.333 87.770 M94.500 87.563 C 94.500 87.598,94.388 87.719,94.250 87.833 C 94.045 88.003,94.000 87.992,94.000 87.770 C 94.000 87.622,94.112 87.500,94.250 87.500 C 94.388 87.500,94.500 87.528,94.500 87.563 M103.833 87.750 C 103.833 87.888,103.763 88.000,103.677 88.000 C 103.466 88.000,103.316 87.740,103.449 87.607 C 103.637 87.419,103.833 87.492,103.833 87.750 " stroke="none" fill="#040404" fill-rule="evenodd"></path><path id="path3" d="M240.500 4.750 L 240.500 7.833 240.899 7.833 C 241.457 7.833,241.500 7.619,241.498 4.861 C 241.495 1.967,241.439 1.667,240.897 1.667 L 240.500 1.667 240.500 4.750 M339.741 1.881 C 339.475 2.573,339.757 7.747,340.063 7.806 C 340.236 7.839,340.441 7.765,340.519 7.641 C 340.724 7.319,340.702 2.377,340.494 1.989 C 340.298 1.623,339.864 1.560,339.741 1.881 M351.674 62.320 C 351.440 62.756,351.910 63.282,352.268 62.985 C 352.595 62.714,352.556 62.375,352.174 62.170 C 351.912 62.030,351.813 62.060,351.674 62.320 " stroke="none" fill="#368eb6" fill-rule="evenodd"></path><path id="path4" d="" stroke="none" fill="#200834" fill-rule="evenodd"></path></g></svg>