<?xml version="1.0" encoding="UTF-8"?>
<svg id="inverted" xmlns="http://www.w3.org/2000/svg" viewBox="0 0 840 940">
  <defs>
    <style>
      .cls-1 {
        fill: #fff;
      }

      .cls-2 {
        fill: #009c59;
      }
    </style>
  </defs>
  <g id="outline_manual" data-name="outline manual">
    <path class="cls-1" d="M753.15002,157.97998l-20.22009,404.34003c-8.33984,166.91998-145.79993,297.67999-312.92993,297.67999S115.40997,729.23999,107.07001,562.32001l-20.22003-404.34003c73.15002-52.97998,218.15002-77.97998,333.15002-77.97998s260,25,333.15002,77.97998Z"/>
  </g>
  <circle class="cls-2" cx="420" cy="760" r="60"/>
  <path class="cls-2" d="M712.05005,179.06l-19.07007,381.26001c-5.25,104.98999-69.25,193.69995-159.21997,234.92999l-3.98999-79.79004c-40.67993-26.13-68.42993-70.81-71.12-122.45996-.01001-.10999-.01001-.21002-.02002-.32001l-2.95007-59.08002c-.07996-1.64001-.57996-3.20001-1.41992-4.54999-.8501-1.34998-2.03003-2.47998-3.46997-3.27002-6.31006-3.46997-17.74005-5.77997-30.79004-5.77997s-24.47998,2.31-30.78998,5.77997c-2.88,1.58002-4.73004,4.54004-4.89001,7.82001l-2.95001,59.08002c-.01001,.12-.01001,.23999-.02002,.35999-2.69995,51.63-30.44995,96.29999-71.12,122.42999l-3.98999,79.78003c-27.64001-12.66003-52.83002-29.81-74.62-50.54004-49.13-46.72998-80.96002-111.64996-84.59998-184.38995l-19.07001-381.26001c47.71997-33.19,172.07438-57.18195,274.03998-58.90002l-6.02002,120.41998c-58.44995,2.84003-106.93994,15.89001-128.67999,33.55005v.01001l-6.10999,122.33997,42.58002,113.54999c13.29999-17.26996,60.29999-30.02997,116.23999-30.02997s102.93994,12.76001,116.23999,30.02997l27.77002-74.04999c-18.18994-20.78998-75.78003-35.97998-144.01001-35.97998-26.02439,0-52.80488,3.26829-74.98999,9.7l-14.22998-37.96c25.79314-7.81317,57.1468-11.74,89.21997-11.74,75.82007,0,139.69995,17.03998,159.01001,40.26996l-2.10999-42.33997c-21.55005-22.02002-83.65002-37.92999-156.90002-37.92999-32.07317,0-64.26829,4.63415-90.45001,12l2.02002-40.44c25.62511-6.38927,58.50316-11.56,88.42999-11.56,71,0,131.53003,14.95001,154.80005,35.91998l-2.09009-41.77997v-.01001c-21.73999-17.66003-70.22998-30.71002-128.67993-33.55005l-6.02002-120.41998c102.01438,2.10832,226.32007,25.71002,274.04004,58.90002Z"/>
</svg>