<svg version="1.1" id="Ebene_1" xmlns="http://www.w3.org/2000/svg" xmlns:xlink="http://www.w3.org/1999/xlink" x="0px" y="0px" viewBox="0 0 269.2 40.8" style="enable-background:new 0 0 269.2 40.8;" xml:space="preserve" width="269.2"  height="40.8" >
<style type="text/css">
	.st0{clip-path:url(#SVGID_2_);fill:#84BD00;}
</style>
<g>
	<g>
		<defs>
			<rect id="SVGID_1_" x="0" width="269.2" height="40.7"/>
		</defs>
		<clipPath id="SVGID_2_">
			<use xlink:href="#SVGID_1_" style="overflow:visible;"/>
		</clipPath>
		<path class="st0" d="M172,39.1V11.3c0-0.4-0.1-0.4-0.2,0l-9.5,28.1c-0.3,0.8-1.1,1.4-1.9,1.4h-5.1c-0.9,0-1.6-0.6-1.9-1.4    l-9.5-28.1c-0.1-0.4-0.2-0.4-0.2,0v27.8c0,0.9-0.7,1.6-1.6,1.6h-5.8c-0.9,0-1.6-0.7-1.6-1.6V1.6c0-0.9,0.7-1.6,1.6-1.6h11.8    c0.9,0,1.7,0.6,1.9,1.4l7.7,23.8c0.1,0.2,0.2,0.2,0.2,0l7.8-23.8c0.3-0.8,1.1-1.4,1.9-1.4h11.8c0.9,0,1.6,0.7,1.6,1.6v37.5    c0,0.9-0.7,1.6-1.6,1.6h-5.8C172.7,40.7,172,40,172,39.1 M118.4,20.3c-0.1,0-0.1,0.1,0,0.1c4.3,1.4,6.3,5.5,6.3,9.1V39    c0,0.9-0.7,1.6-1.6,1.6h-6.2c-0.9,0-1.6-0.7-1.6-1.6v-8.7c0-3.7-2.1-6.5-7.6-6.5h-9.2c-0.1,0-0.2,0.1-0.2,0.2v15    c0,0.9-0.7,1.6-1.6,1.6h-6c-0.9,0-1.6-0.7-1.6-1.6V1.6c0-0.9,0.7-1.6,1.6-1.6h21.9c7.3,0,12.4,3.3,12.4,10.9    C124.9,15.6,122.1,19.7,118.4,20.3 M116,11.7c0-3.8-3.3-4.3-6.5-4.3H98.4c-0.1,0-0.2,0.1-0.2,0.2V16c0,0.1,0.1,0.2,0.2,0.2h11.1    C112.6,16.2,116,15.7,116,11.7 M262.6,20.3c-0.1,0-0.1,0.1,0,0.1c4.3,1.4,6.3,5.5,6.3,9.1V39c0,0.9-0.7,1.6-1.6,1.6h-6.2    c-0.9,0-1.6-0.7-1.6-1.6v-8.7c0-3.7-2.1-6.5-7.6-6.5h-9.2c-0.1,0-0.2,0.1-0.2,0.2v15c0,0.9-0.7,1.6-1.6,1.6h-6    c-0.9,0-1.6-0.7-1.6-1.6V1.6c0-0.9,0.7-1.6,1.6-1.6h21.9c7.3,0,12.4,3.3,12.4,10.9C269.2,15.6,266.4,19.7,262.6,20.3 M260.2,11.7    c0-3.8-3.3-4.3-6.5-4.3h-11c-0.1,0-0.2,0.1-0.2,0.2V16c0,0.1,0.1,0.2,0.2,0.2h11.1C256.8,16.2,260.2,15.7,260.2,11.7 M31.3,19.4    c-0.1,0-0.1,0.1,0,0.2c2.2,0.9,5.8,3.5,5.8,10.1c0,7.6-6.1,11-11.6,11H1.6C0.7,40.7,0,40,0,39.1V1.6C0,0.7,0.7,0,1.6,0h24.1    c7.1,0,11.2,4.9,11.2,9.9C37,16,33.4,18.6,31.3,19.4 M27.3,28.3c0-3.9-3.3-4.4-6.5-4.4h-11c-0.1,0-0.2,0.1-0.2,0.2v8.7    c0,0.1,0.1,0.2,0.2,0.2h11.1C23.9,32.9,27.3,32.4,27.3,28.3 M27.3,11.7c0-3.8-3.3-4.3-6.5-4.3h-11c-0.1,0-0.2,0.1-0.2,0.2V16    c0,0.1,0.1,0.2,0.2,0.2h11.1C23.9,16.2,27.3,15.7,27.3,11.7 M200.9,7.4h20.9c0.9,0,1.6-0.7,1.6-1.6V1.6c0-0.9-0.7-1.6-1.6-1.6H193    c-0.9,0-1.6,0.7-1.6,1.6v37.5c0,0.9,0.7,1.6,1.6,1.6h28.8c0.9,0,1.6-0.7,1.6-1.6v-4.5c0-0.9-0.7-1.6-1.6-1.6h-20.9    c-0.1,0-0.2-0.1-0.2-0.2v-8.6c0-0.1,0.1-0.2,0.2-0.2h20.9c0.9,0,1.6-0.7,1.6-1.6V18c0-0.9-0.7-1.6-1.6-1.6h-20.9    c-0.1,0-0.2-0.1-0.2-0.2V7.6C200.7,7.5,200.8,7.4,200.9,7.4 M42.1,40.7c-1,0-1.7-1-1.3-1.9L55,1.3C55.3,0.5,56.1,0,56.9,0h10.7    c0.8,0,1.6,0.5,1.9,1.3l14,37.5c0.3,0.9-0.3,1.9-1.3,1.9h-6.6c-0.8,0-1.5-0.5-1.7-1.2L70.8,31c0-0.1-0.1-0.1-0.2-0.1H53.3    c-0.1,0-0.2,0.1-0.2,0.1L50,39.5c-0.3,0.7-1,1.2-1.7,1.2C48.3,40.7,42.1,40.7,42.1,40.7z M56.1,23.5h11.6c0.1,0,0.2-0.1,0.2-0.3    L62,7.2c-0.1-0.1-0.1-0.1-0.2,0l-5.9,16C55.9,23.3,56,23.5,56.1,23.5"/>
	</g>
</g>
</svg>