<?xml version="1.0" encoding="utf-8"?>
<!-- Generator: Adobe Illustrator 25.0.1, SVG Export Plug-In . SVG Version: 6.00 Build 0)  -->
<svg version="1.0" id="Layer_1" xmlns="http://www.w3.org/2000/svg" xmlns:xlink="http://www.w3.org/1999/xlink" x="0px" y="0px"
	 viewBox="0 0 892.5 572.3" style="enable-background:new 0 0 892.5 572.3;" xml:space="preserve">
<path d="M100.6,227.7c-0.3-2,0.9-5.5,3.5-4.5c2.8,0,1.9,3.1,2.2,5l2.9,1.1c1.8,1.7,4.3,2.5,6.7,2.1c-0.2,0.5-0.7,1.4-0.9,1.8
	c0.8,0.1,2.3,0.4,3.1,0.5l-0.8,0.5c-2.8-0.3-7.9-2.2-8.2,2.2l-2.9-0.5c-0.3,3.2,0.8,6.3,3.1,8.6c3,2.9,1.4,7.3,1.4,11
	c1,1.5,2.1,3.1,3.2,4.6c-2.4,0.5-4.1-1.2-5.9-2.6c-0.2-2.6-0.6-5.2-0.8-7.8c-1.5-2.1-3.2-4-5.2-5.6c-4.3,3.2-8.3,6.8-11.1,11.4
	l-3.6,0.4c0.8-0.8,2.3-2.3,3.1-3.1c-1.8-0.8-3.7-1.2-5.5-2.1c1.9-0.7,4.3-0.9,5.8,0.7c2.2-4.8,5.4-9.1,8.1-13.7
	c-0.1-1.1-0.2-2.3-0.3-3.4h-5C94.4,230.6,97.7,229.1,100.6,227.7 M479,265c5,0,9.9,0,14.9,0c-2.4,6.9-4.7,13.8-7.1,20.6
	C484.2,278.8,481.6,271.9,479,265 M513.5,265.7c1.9,0.2,3.8-0.1,5.6,0.6c-0.1,1.1-0.4,3.4-0.5,4.6l-0.4,0.6l-0.5,0.5h-2.6l-0.8-0.5
	l-1.9-1.5l2.9-0.1C514.7,268.3,514.1,267,513.5,265.7 M516.6,268C514.7,271.6,520.7,268.1,516.6,268 M476.9,346.5
	c2.9-8,5.6-16.1,8.5-24.1c3.1,8,6.1,16.1,9.2,24.1C488.7,346.5,482.8,346.5,476.9,346.5L476.9,346.5z"/>
<path d="M305.6,237.5h5.6c-1.9,2.3-3.6,5.4-7,4.8C304.5,240.6,305,239,305.6,237.5 M284.8,237.5h5.1l4.5,5.7l4.5-5.7l5,0
	c-2.5,3.2-5.1,6.4-7.6,9.7c0,2,0,3.9,0,5.9h-3.9c0-2,0-3.9,0-5.9C289.9,243.8,287.4,240.6,284.8,237.5L284.8,237.5z"/>
<path d="M689.7,241.8c9.8-6,21.8-5.8,32.8-4.6c7.6,0.9,15.6,4,19.7,10.8c5.3,8.1,1.8,18,1,26.8c-7.8,0-15.7,0-23.5-0.1
	c0.4-4.5,2.3-9.6,0-13.9c-3.4-2.9-8.5-2.1-12.6-1.6c-4.7,0.6-7.7,5-8.2,9.5c-2.4,16-4.4,32.1-6.7,48.1c-0.2,2.7-0.8,5.6,0.5,8.2
	c1.6,3,5.4,3,8.4,3.1c3.6,0,8.2,0.1,10.3-3.5c2.3-4.4,2.9-9.4,4-14.2c-5.9-2.1-11.7-4.3-17.6-6.3c14.4-3.2,28.8-6.3,43.2-9.6
	c-1.4,10.2-2.4,20.5-4.4,30.6c-1.5,7.5-4.7,15.1-11.4,19.3c-8.6,5.4-19.2,4.9-28.9,4.8c-7.9,0-16.6-1.8-22.1-8
	c-6.3-6.9-6.5-17-5.5-25.8c2.3-16.4,4.5-32.9,6.9-49.2C677.1,256.7,681.4,247,689.7,241.8 M117.9,241.5c0-1.4,0-2.7,0-4.1
	c6.3,0,12.6,0,18.9,0v4.1h-7.5c0,3.8,0,7.6,0,11.5h-3.9c0-3.8,0-7.7,0-11.5H117.9 M138.6,237.4c5.3,0.1,10.6-0.2,15.8,0.1
	c3.6,0.4,3.2,4.6,3.2,7.2c-0.2,2.6,0.8,6.4-2.2,7.8c-4.4,0.7-8.8,0.3-13.2,0.3c-1.8,0-3.3-1.4-3.5-3.2
	C138.4,245.6,138.6,241.5,138.6,237.4 M142.4,241.5c0,2.5,0,4.9,0.1,7.4c3.8,0,7.5,0,11.2,0c0-2.5,0-5,0-7.4
	C149.9,241.5,146.2,241.5,142.4,241.5 M209.2,237.4h3.9c0,3.8,0,7.7,0,11.5c3,0,6,0,9-0.1c-0.5,1-1.6,3-2.1,4
	c-3.6,0.1-7.1,0.1-10.7,0C209.2,247.8,209.2,242.6,209.2,237.4 M229.7,238.7c3.1-2.3,7.5-0.9,11.1-1.2c0,5.2,0,10.4,0,15.5h-3.9
	c0-1,0-3,0-4c-3.1,0-6.2,0-9.3,0l-2.4,4h-4.6C223.7,248.1,226.2,243.1,229.7,238.7 M232.2,241.4c-0.7,1.1-1.4,2.2-2,3.3h6.7
	c0-0.9,0-2.5,0-3.4L232.2,241.4 M243.1,237l4.1,0.8c3.8,3,7.2,6.5,10.9,9.7c0-3.4,0-6.8,0-10.2h3.8c0,5.2,0,10.3,0,15.5l-3.7,0.1
	c-3.8-3.4-7.6-6.8-11.4-10.2c0,3.4,0,6.8,0,10.1l-3.9,0C243,247.6,243,242.3,243.1,237 M264,237.3c6.3,0,12.6,0,19,0
	c-0.1,1-0.4,3.1-0.5,4.1c-4.9,0-9.8,0-14.7,0c0,2.4,0,4.9,0,7.4c4.9,0.1,9.8,0.1,14.7,0c0.2,1.4,0.4,2.7,0.6,4.1
	c-5.1-0.1-10.2,0.1-15.3,0c-1.6,0.2-2.7-1.1-3.4-2.3C263.7,246.1,264.1,241.6,264,237.3 M538.8,240.7c8.6-4.5,18.8-4.7,28.2-3.2
	c6.4,1,13.2,4.1,16.1,10.3c2.9,6.2,2.8,13.5,2.1,20.3c-7.6,0-15.2,0-22.8,0c-0.2-3.5,1.4-8.3-2.2-10.4c-3.7-1.4-8.8-1.2-11.3,2.3
	c-2.1,4-1.6,8.9,1.2,12.4c7,9.7,17.4,16.5,23.2,27.1c6.5,10.4,6,24.1,0.8,35c-4.6,9.2-15,13.8-24.9,14.2c-9.3,0.4-19.9,0.2-27.2-6.3
	c-6.6-6.1-7.5-16-5.8-24.4c7.5-1.8,15.1-3.2,22.7-5c-0.3,3.9-1.4,7.9-0.5,11.8c1.5,4.3,7.1,3.7,10.7,3.1c6.4-1.3,6.8-9.5,5.1-14.5
	c-3.8-8-11.2-13.3-17-19.7c-6.6-7.2-12.7-16.1-12.5-26.3C524.3,256.9,529.4,245.8,538.8,240.7 M577.8,348.3c5-37,10-74.1,15.1-111.1
	c8.4,0,16.8,0,25.3,0c-5,37-10,74.1-15,111.1C594.7,348.3,586.3,348.3,577.8,348.3 M622,237.2c18.6,0,37.2,0,55.8,0
	c-1.2,7.3-2.2,14.6-3.4,21.9c-10.1,0-20.3,0-30.4,0c-0.9,7.6-1.8,15.1-2.6,22.8c8.2-0.4,16.5,0.2,24.8-0.2c-0.9,7.5-2.1,15-3.1,22.5
	c-8.3,0-16.6,0-24.8,0c-1.1,7.5-2.2,15-3.3,22.5c10.1-0.1,20.2,0,30.4,0c-0.8,7.3-1.8,14.5-2.6,21.8c-18.6,0.1-37.2,0.1-55.8,0
	C611.9,311.4,617.1,274.3,622,237.2 M752.6,237.3h55.8c-1.1,7.3-2.3,14.6-3.3,21.9h-30.4c-0.6,5.1-1.2,10.2-1.7,15.3
	c-8.5,0.3-16.9,0.3-25.4,0.1C749.4,262.1,751.1,249.7,752.6,237.3 M389.7,265c7.4,0,14.7,0,22,0c-2.8,1-5.4,2.3-8,3.7
	c-1.4,8.8-2.9,17.6-4.3,26.4c5.2,8.8,14.1,14.1,21.7,20.6c3.2,2.7,6.8,6,6.6,10.6c0.2,2.9-0.9,6.5-4.1,7.2s-7,1-9.6-1.2
	c-2.4-3.3-2-7.6-2.4-11.4c-5.2,0.6-10.4,1.2-15.5,2c0.4,6.3,0.9,13.2,5.3,18.2c2.4,2.9,6.1,4.2,9.6,5.4c-11.9,0.1-23.7,0.1-35.5,0
	c-2.5-16-5-31.9-7.6-47.9c-2.5,16-5.2,31.9-7.8,47.9c-5.3,0-10.5,0-15.8,0c-3.8-27.1-7.9-54.2-11.6-81.4c4.9,0,9.8,0,14.8,0
	c2.2,15.8,4.3,31.6,6.1,47.5c2.4-15.8,5.1-31.6,7.7-47.5h14.7c2.4,15.8,4.5,31.6,7,47.3C385,296.5,387.3,280.8,389.7,265 M427.2,265
	c6.2,0.1,12.4,0,18.7,0c0,27.1,0,54.3,0,81.5c-5.9,0-11.8,0-17.7-0.1c5.5-1.2,10.9-4.2,13.1-9.7c3.2-8.1,2.6-18.2-3.1-25.1
	c-6.5-8.3-16.1-13.4-23.4-21.1c-3-3.1-3.6-9.4,0.6-11.7c2.9-1.2,6.7-1.3,9.3,0.7c1.9,2,1.8,5,2.4,7.5c5.1-0.5,10.2-1,15.3-1.4
	c-0.9-5.4-1.7-11.4-5.7-15.6C434.2,267.2,430.6,266.1,427.2,265 M84,265c9.1,0.2,18.3-0.4,27.4,0.4c5.6,0.4,11.7,2.9,14.2,8.3
	c3.6,7.4,2.7,15.9,2.4,23.9c-0.3,6.2-3.7,11.9-9.1,15.1c2.4,9.5,5.1,18.9,7.5,28.4c4.7-25.4,9.5-50.7,14.2-76.1c5.7,0,11.4,0,17,0
	c4.8,25.4,9.8,50.8,14.2,76.3c0.7-25.3,0.1-50.7,0.3-76.1c5.1,0,10.3,0,15.4,0c0,27.1,0,54.2,0,81.4c-9.9,0-19.9,0-29.8,0
	c-0.9-4.9-1.8-9.9-2.7-14.8c-3.9,0-7.9,0-11.8,0c-1,4.9-1.8,9.8-2.7,14.8h-28.3c-2.8-10.7-5.7-21.3-8.5-32c-1.4,0-2.8,0-4.1,0
	c0,10.7,0,21.4,0,32.1H84c0-27.1,0-54.2,0-81.3 M99.4,277.9c0,8.1-0.1,16.2,0,24.3c4.3-0.4,11,1.6,13-3.5c0.8-5.5,0.8-11.1,0-16.6
	C110.8,276.5,103.7,278.2,99.4,277.9 M148.9,289.5c-0.9,10.2-3,20.2-4.5,30.3l9.4,0C152,309.7,151.5,299.4,148.9,289.5 M191.5,265.1
	c6.2,0.2,12.4-0.3,18.5,0.3c4,12.8,7.3,25.9,11.4,38.7c0.4-13,0.1-26,0.2-39c4.9,0,9.8,0,14.6,0c0.1,27.1,0,54.2,0,81.4h-15
	c-5-16.1-10-32.2-15-48.2c-0.2,16.1-0.1,32.2-0.1,48.3h-14.6C191.5,319.3,191.5,292.2,191.5,265.1 M240.1,265.1
	c10.7,0.3,21.5-0.9,32,1c6.3,1.3,11.1,6.5,11.8,12.9c1,8.2,1.7,18.8-6.4,23.7c5.2,2.6,7.5,8.4,7.5,14c0,7.5,1,15.7-3,22.5
	c-2.8,4.8-8.6,6.5-13.8,6.9c-9.3,0.7-18.7,0.2-28,0.4C240.2,319.3,240.2,292.2,240.1,265.1 M255.6,277c0,6.8,0,13.5,0,20.2
	c4.1-0.5,10.3,1.4,12.7-3.1c1.1-4.2,0.9-8.7,0.3-12.9C267,275.7,259.9,277.5,255.6,277 M255.6,309.3c0,8.3,0,16.6,0,25
	c4.4-0.4,10.9,1.4,13.3-3.4c1.3-5.7,0.9-11.8,0.3-17.6C267.3,307.7,260,309.8,255.6,309.3 M299.6,266c10.3-2.8,24.2-2.6,30.9,7.1
	c3,4.8,3.5,10.6,3.5,16.1c-0.1,11.6,0,23.1,0,34.7c-0.2,6.3-1.5,13.2-6.4,17.6c-5.4,4.9-13,5.7-20,5.3c-6.2-0.3-12.9-2.4-16.6-7.7
	c-4.5-6.1-4.4-14-4.3-21.3c0.2-11.6-0.4-23.1,0.3-34.7C287.4,275.6,292.1,268.3,299.6,266 M306.5,278.6c-4.2,1.5-4.2,6.7-4.2,10.5
	c0.2,12.8-0.4,25.6,0.3,38.4c0.3,6.8,9.6,8.1,13.8,4.1c2.1-2.5,2.2-5.9,2.2-8.9c0-11.6,0-23.1,0-34.7c-0.1-3.1-0.4-6.9-3.2-8.8
	C312.6,277.8,309.4,277.6,306.5,278.6 M507.5,267.5c0.3-1.7,1.8-2.3,3.1-3c0.5,17.4,0.1,34.8,0.2,52.2c-0.1,10.3,0.3,20.5-0.2,30.8
	c-6.2-14.4-11-29.4-16.7-43.9C498.4,291.5,502.9,279.4,507.5,267.5 M744.8,293.7c17.3-3.8,34.5-7.6,51.8-11.5
	c-1,7.4-2,14.7-3.1,22.1c-8.2,0.1-16.5-0.2-24.7,0.1c-1.4,7.4-2.2,14.9-3.4,22.3c10.1,0,20.2,0,30.4,0c-0.9,7.3-1.8,14.5-2.6,21.8
	c-18.6,0-37.2,0-55.8,0C739.8,330.3,742.3,312,744.8,293.7L744.8,293.7z"/>
<path d="M159.3,237.5h4.2c2.3,3.9,4.6,7.8,6.9,11.7c2.3-3.9,4.7-7.8,6.9-11.7l4.2,0c0,5.2,0,10.4,0,15.5h-3.9c0-2.8,0-5.6,0-8.5
	c-1.7,2.8-3.3,5.6-5,8.4h-4.7c-1.6-2.8-3.3-5.6-4.9-8.4c0,2.8,0,5.6,0,8.4l-3.9,0.1c0-5.2,0-10.4,0-15.6 M188.4,237.4
	c6.3,0,12.7,0,19,0l-0.5,4.1c-4.9,0-9.8,0-14.6,0c0,2.5,0,4.9,0,7.4c4.8,0,9.7,0,14.5,0c0.2,1.3,0.4,2.7,0.6,4
	c-5-0.1-10.1,0.2-15.1,0c-2,0.2-3.7-1.3-3.8-3.2c0,0,0,0,0-0.1C188.2,245.5,188.5,241.4,188.4,237.4 M314.4,247.1
	c-4.7-0.4-4.7-9.1,0-9.6c5.2-0.3,10.4,0,15.6-0.1c-0.1,1-0.4,3.1-0.5,4.1c-4.9,0-9.7,0-14.6,0v1.6c4.3,0.1,8.5-0.2,12.8,0.2
	c3.2,1.8,3.3,7.5,0,9.2c-5.3,0.7-10.8,0.1-16.1,0.3c0.2-1.4,0.3-2.7,0.5-4c5-0.5,10.5,1.2,15.1-1.1
	C322.9,246.9,318.6,247.5,314.4,247.1 M461.2,264.2c1.7,0.6,2.9,2,3.3,3.7c4.4,11.8,8.9,23.6,13.4,35.5c-5.6,14.6-10.5,29.5-16.6,44
	C460.9,319.7,461,292,461.2,264.2L461.2,264.2z"/>
</svg>
