<?xml version="1.0" encoding="utf-8"?>
<!-- Generator: Adobe Illustrator 27.5.0, SVG Export Plug-In . SVG Version: 6.00 Build 0)  -->
<svg version="1.1" id="katman_1" xmlns="http://www.w3.org/2000/svg" xmlns:xlink="http://www.w3.org/1999/xlink" x="0px" y="0px"
	 viewBox="0 0 1361.34 929.44" style="enable-background:new 0 0 1361.34 929.44;" xml:space="preserve">
<style type="text/css">
	.st0{fill:#FFFFFF;}
	.st1{fill:url(#SVGID_1_);}
	.st2{opacity:0.4;enable-background:new    ;}
	.st3{opacity:0.4;fill:url(#SVGID_00000163053790813220119710000002958653148368693694_);enable-background:new    ;}
	.st4{fill:url(#SVGID_00000129883996069830210090000004934743307299751060_);}
	.st5{fill:none;}
</style>
<path d="M289.24,402.59c0,0,10.49,0.8,19.37,12.1l-4.84,0.81l-2.42-0.81C301.35,414.69,294.08,405.81,289.24,402.59L289.24,402.59z
	 M273.1,452.59l-4.84-12.1h-1.59l-8.07,9.68c5.65,4.84,14.53,2.42,14.53,2.42H273.1z M347.35,381.59l-4,1.61l4.85,8.88l16.1,5.65
	C357.84,384.01,347.35,381.59,347.35,381.59z M301.35,398.54c3.54,4.34,6.78,8.93,9.68,13.72c8.07-8.07,25-11.3,46.81-10.49
	c-18.56-3.89-37.6-4.97-56.49-3.22V398.54z M271.48,386.43c7.06,0.18,14.09,0.99,21,2.43c-8.07-5.65-21-8.88-21-8.88V386.43z
	 M345.74,430.82l-13.73,12.11l10.5,3.23l10.49-11.3l-5.65-2.42L345.74,430.82z M254.54,367.06c0,0,5.65,3.23,6.45,3.23
	c0.8,0,12.11,4,17,5.65c4,1.62,6.46,0,7.26,0s14.53-8.07,14.53-8.07c-12.1-4.84-23.4-8.07-23.4-8.07
	C275.52,359.81,254.54,367.07,254.54,367.06L254.54,367.06z M336.86,374.33c-0.81-1.62-2.42-1.62-12.11-3.23
	c-8.88-0.81-16.95-1.61-18.56-1.61c-0.88-0.04-1.74,0.24-2.42,0.8c0,0-4.84,3.23-8.88,5.65s-4.84,3.23-5.65,4.85
	c-0.81,0.8,1.61,4,1.61,4l6.46,8.07c0.81,0,3.23,1.62,3.23,1.62s12.91-0.81,21-1.62h21c0.8,0,0-3.23-1.62-7.26
	c-1.55-3.69-2.88-7.46-4-11.3L336.86,374.33z M260.19,383.21c0.85,0.1,1.68,0.37,2.42,0.8c1.61,0,2.42-1.61,2.42-3.22
	c-0.07-1.47-1.03-2.75-2.42-3.23h-1.62l-2.42,0.81l-0.81,5.65h0.81L260.19,383.21c-0.65-1.23-0.93-2.62-0.81-4
	c0.35-1.16,1.26-2.07,2.42-2.42c0,0,1.61,0,0.81,3.23c0,3.23-2.42,3.23-2.42,3.23V383.21z M396.58,446.96l-6.46,8.88v0.81H399
	c0.9-3.43-0.01-7.08-2.42-9.68V446.96z M235.17,404.96h-1.62l-4-0.81c-4-0.81-2.42-8.07-2.42-8.07l-4.88,1.65
	c-1.61-3.23-8.87-12.11-8.87-12.11l-1.62,6.46c2.07,2.84,3.95,5.81,5.65,8.88l-2.42,2.42c-0.4,0.76-0.67,1.58-0.81,2.42
	c-0.08,0.61-0.36,1.18-0.8,1.62l-3.23,1.61h-0.81l-11.3-8.88v6.46h0.81c1.24,2.9,3.55,5.22,6.45,6.46c3.23,1.61,7.27,1.61,8.88,0.8
	c1.62,0.81,2.42,0.81,3.23,1.62c3.23,1.61,4,0.81,4,0.81l4.84-1.62h0.81l0.8-0.81l1.62-3.22c0,0,8.07,0.8,11.3,0.8
	c3.22-4.84,13.72-12.1,21-12.91c7.26,0,19.37,1.61,29.05,11.3c8.88,9.68,6.46,22.6,6.46,22.6l17.76,5.65l-8.07-5.65
	c-6.46-16.14-21.8-30.67-21.8-30.67c-2.13-0.43-4.28-0.7-6.45-0.81c-1.49-0.52-2.85-1.35-4-2.42c-0.89-1.01-1.7-2.09-2.42-3.23
	l-1.64-3.22c-1.24-1.19-2.58-2.27-4-3.23c-2.42-1.61-11.3-2.42-16.14-3.22s-4.84,0-4.84,0c13.72,3.22,17.75,4,18.56,4.84
	c0.44,0.87,0.98,1.68,1.62,2.42c-11.3-2.42-21.8-0.81-24.22,0c1.62,2.45,1.62,5.62,0,8.07c-1.61,1.61-6.45,4-6.45,4L235.17,404.96z
	 M388.51,463.07l2.42,10.49c1.73-1.78,3.35-3.67,4.84-5.65c1.46-1.94,2.55-4.13,3.23-6.46l-9.68,0.81L388.51,463.07z M194.01,389.62
	l-0.81,8.88h4.84l0.81-5.65v3.23h0.82v-4.84h-0.81v-3.23l7.26,4l0.81,1.62l1.61,1.61h1.62l0.8-0.81v-0.7
	c-4.84,0-4.84-2.42-4.84-2.42s0.81-5.65,1.62-7.26s4-0.81,4-0.81l-0.81-0.81h-1.61c-1.61-0.81-6.46-4-8.07-4.84v-0.86l0.81-0.81
	v-3.19h0.8c0-0.8,0.81-0.8,0.81-1.61c1.62,0,13.72-2.42,13.72-2.42l-11.3-2.42v-0.81c-2.5-0.56-4.93-1.37-7.26-2.42
	c-2.61,3.36-4.53,7.2-5.65,11.3c0,0-0.81,11.3-0.81,12.91c-0.81,1.62,1.62,2.42,1.62,2.42L194.01,389.62z M383.67,453.43l1.61,2.42
	l0.81-0.81l6.46-8.07v-0.8C389.32,446.17,383.67,453.43,383.67,453.43L383.67,453.43z M364.3,438.9l-4.84-1.61l-11.3,12.91
	l8.07,2.42C357.84,446.17,364.3,438.9,364.3,438.9L364.3,438.9z M381.25,457.47c-4,8.07-3.23,13.72-3.23,13.72l4-8.88v-1.58
	c0.81,0,0-1.61-0.8-3.22L381.25,457.47z M377.25,405.01c-0.68,1.4-1.49,2.74-2.42,4c-0.81,0.81-6.46,1.62-9.69,2.42
	c-3.22,1.62-8.87,4-10.49,5.65c-0.8,0.81-0.8,3.23-0.8,4c0.76,0.4,1.58,0.67,2.42,0.81l-7.27,6.45l1.62,1.62l17.71,5.77
	c2.88-2.07,6.19-3.44,9.69-4c-3.23-1.61-17-7.26-21-8.88c0,0-2.42-0.8-2.42-1.61v-2.51c7.86-5.33,17.15-8.14,26.64-8.07l2.42-4.85
	L377.25,405.01z M387.74,476.01l-3.23-9.69h-0.84l-4.84,8.88l0.8,0.81c2.61,0.93,5.46,0.93,8.07,0H387.74z M265.88,384.01l2.42,0.81
	c0.87,0.02,1.59-0.68,1.61-1.55c0-0.02,0-0.04,0-0.06v-3.23l-2.42-1.61l-3.23-0.81c0.46,0.42,0.75,0.99,0.81,1.61h0.81
	c0-0.81,0.8-0.81,0.8,0c0,0,1.62,0.81,0.81,3.23C268.3,383.21,266.68,384.01,265.88,384.01z M258.61,428.4
	c-5.65,10.49-1.61,17.76-1.61,17.76l7.22-10.43v-1.62L258.61,428.4z M206.15,366.26l9.69,2.42c0.8,0,6.45-0.81,6.45-0.81l-15.33-4
	L206.15,366.26z M211.8,363.83c12.91,1.62,15.34,4,15.34,4c2.4-0.41,4.83-0.68,7.26-0.81c-4-3.23-21.79-8.88-21.79-8.88
	c-0.54,1.83-0.82,3.74-0.81,5.65V363.83z M231.17,388.83c-2.42,1.62-4.84,6.46-4,10.5s1.61,4,4,4c-4-1.61-3.23-8.07,0-12.1
	c2.42-3.23,4.84-0.81,4.84-0.81s-2.42-3.23-4.84-1.62V388.83z M173.87,508.28c-10.49,0-22.6,4-15.34,15.34
	c59.69,102.52,122.64,126.74,149.27,139.65c12.11-5.65,31.48-14.53,54.88-30.67c13.72-8.88,12.11-22.6,8.88-31.48
	c-16.95-42-109.76-89.58-197.73-92.81L173.87,508.28z M510.38,317.03c-24.21-16.94-83.94-47.61-202.58-47.61
	c-41.16,0-75.86,4-103.3,9.68c6.47,10.7,9.83,23,9.68,35.51c0.07,16.87-5.94,33.21-16.95,46c3.18,0.99,6.42,1.8,9.69,2.42l1.61-4
	c0.87,0,1.72,0.28,2.42,0.81c0-4,2.43-4,2.43-4c-0.01-0.44,0.33-0.8,0.77-0.81c0.01,0,0.02,0,0.03,0c4,0.81,15.34,6.45,20.18,8.88
	s4.84,3.22,4.84,3.22s11.3,0,14.53-0.8c3.23,0,8.88-2.43,16.95-4.85c8.07-2.42,9.68-3.23,11.3-3.23s16.14,0.81,29.05,2.43
	s25,6.45,27.44,8.07l4,0.81l0.8-2.43l-6.45-2.42c0,0,0.8-4,0.8-4.84c0.06-0.87,0.75-1.56,1.62-1.61c3.54,0.59,7.05,1.4,10.49,2.42
	c2.42,0.8,10.49,6.45,11.3,6.45c0.44-0.01,0.8,0.33,0.81,0.77c0,0.01,0,0.03,0,0.04c0,1.62-1.62,4.84-1.62,4.84l-2.42-0.8l2.42,0.8
	c1.16,0.37,2.25,0.91,3.23,1.62c0.81,0.81,3.23,2.42,5.65,4.84c1.37,0.83,2.02,2.46,1.61,4l5.65,5.65v2.42l13.72,13.72v0.81l-6.45,4
	c0,0,8.88-0.81,15.33,2.42s7.27,4.85,7.27,6.46c-1.3,0.61-2.64,1.15-4,1.61c-4.84,1.62-16.95,9.69-16.95,9.69v0.81l6.46,1.61
	c7.26-6.46,20.18-8.88,29.86-7.26c33.09,6.45,55.69,28.24,60.53,46.81c0,0.81,0.81,2.42,0.81,3.23
	C516.03,397.74,512.8,342.05,510.38,317.03L510.38,317.03z M394.16,434.87c0.81,0.81,1.61,0.81,2.42,1.61
	c4.84,3.23,7.26,4.84,8.07,12.11c0.81,5.65-0.81,13.72-4.84,21c22.6,15.33,54.07,3.23,66.18,15.33c-2.42-30.66-47.62-61.33-71.83-50
	V434.87z M208.53,395.32l-1.61,0.81v6.46l1.61-0.81V395.32z M441.78,495.4c-16.95,0-33.9-5.65-46-20.18v0.81
	c-7.27,9.7-15.34,9.7-18.57,9.7s-13.72-4.84-17.75-9.68s-4-13.72-4-13.72l-16.14-5.65l-20.18-11.3l-3.23-0.81
	c-6.45,3.23-14.52,0.81-21.79-4.84c-0.8,3.23-4.84,11.3-9.68,15.33s-14.57,9.67-21.83,9.67c-7.26,0-23.41-8.07-28.25-19.37
	s0-23.41,0-23.41l-8.07-1.61l-3.23-4c0,0-9.68,8.07-20.18,4.84s-19.37-12.11-21.79-20.18c-1.61-8.07,0.81-15.33,1.62-16.14
	c-0.91-2.88-1.45-5.86-1.62-8.88h-0.8v-2.45c-10.5,7.26-22.6,10.49-35.52,10.49c-14.52,0-28.24-4.84-39.54-12.1
	c1.61,17.75,6.45,38.73,12.91,62.14c8.88,32.28,37.93,42.77,81.52,50c96,15.33,188,88.78,181.59,134c24.21-20.17,50-50,75.86-94.43
	c10.49-16.94,0.81-28.24-15.33-28.24L441.78,495.4z M185.13,384.02l-0.81,8.88h5.65v-0.81h-0.81v-0.81h-0.8l0.8-1.61l0.81-4
	l-0.81-0.8v-1.62l0.81-0.81l0.81-9.68l-4-2.42c1.21-4.32,3.12-8.41,5.65-12.11h-2.46c-2.61,3.36-4.53,7.2-5.65,11.3
	c0,0-0.81,10.49-0.81,12.11c0,2.42,1.62,2.42,1.62,2.42V384.02z M273.91,438.1l4,12.91c4.9-3.5,8.37-8.67,9.76-14.53l-12.92,0.81
	L273.91,438.1z M281.17,417.92l-6.5,11.3l0.81,0.81l12.91,0.8c-0.04-5.26-2.78-10.14-7.26-12.91L281.17,417.92z M200.46,392.92
	l-0.79,4.81h0.8L200.46,392.92z M261.8,423.59l6.46,4.84l1.61-0.81l7.26-11.3C268.26,415.51,261.8,423.59,261.8,423.59z
	 M202.08,393.73l-0.81-0.81v5.65h0.81V393.73z M204.5,395.34l-0.81,5.65h0.81V395.34z M206.11,396.15l-0.81,5.65h0.81V396.15z
	 M202.88,394.53l-0.8,5.65h0.8V394.53z"/>
<path d="M987.36,457.47h-47.62V314.61h47.62v47.62l29-47.62h53.31l-47.62,71.83l47.62,71.83h-53.26l-29-47.61L987.36,457.47z
	 M1260.15,351.73h26.63v-37.12H1185.9v37.12h26.63v105.74h47.62V351.73z M1175.41,420.33h-53.27V404.2h42v-36.32h-42v-16.15h53.27
	v-37.12h-100.89v142.86h100.89V420.33z M647.58,574.49h-53.27V467.96h-47.64v142.85h100.91V574.49z M758.96,574.49h-53.29v-16.14h42
	v-37.13h-42v-16.14h53.27v-37.12H658.07v142.85h100.89V574.49z M1286.78,574.49h-53.27v-16.14h42v-37.13h-42v-16.14h53.27v-37.12
	H1185.9v142.85h100.88V574.49z M822.67,386.44c0,41.01-33.24,74.25-74.25,74.25s-74.25-33.24-74.25-74.25s33.24-74.25,74.25-74.25
	c40.9-0.11,74.14,32.97,74.25,73.87C822.67,386.18,822.67,386.31,822.67,386.44z M775.06,386.44c0-14.71-11.93-26.64-26.64-26.64
	c-14.71,0-26.64,11.93-26.64,26.64c0,14.71,11.93,26.64,26.64,26.64l0,0c14.67-0.11,26.55-11.97,26.68-26.64H775.06z
	 M1127.75,550.28c-0.22,8.92-7.63,15.97-16.55,15.74c-8.61-0.21-15.53-7.14-15.74-15.74v-82.32h-47.61v82.32
	c-0.44,35.21,27.75,64.11,62.96,64.55c35.21,0.44,64.11-27.75,64.55-62.96c0.01-0.53,0.01-1.06,0-1.6v-82.32h-47.61V550.28z
	 M929.25,401.78c-4.84,6.45-17.76,10.49-26.64,10.49c-14.71-0.29-26.4-12.44-26.12-27.15c0.28-14.31,11.81-25.84,26.12-26.12
	c8.88,0,21.8,4,26.64,10.5v-54.89c-8.76-1.91-17.68-2.99-26.64-3.22c-41.01,0-74.25,33.24-74.25,74.25s33.24,74.25,74.25,74.25
	c7.27,0,19.37-0.81,26.64-3.23V401.78z M668.56,359.78c0,20.18-10.49,37.93-28.24,41.16l36.35,56.53h-53.3l-29.06-47.62v47.62
	h-47.64V314.61h74.25c26.63,0,47.61,18.57,47.61,45.2L668.56,359.78z M620.95,367.85c-0.04-8.89-7.25-16.09-16.14-16.12h-10.5v31.48
	h10.5c8.86,0.01,16.14-6.48,16.14-15.33V367.85z M854.19,589.85h-37.12l-4.85,21h-47.61L812.22,468h47.62l47.62,142.85h-47.62
	L854.19,589.85z M845.31,552.73l-9.64-40.38l-9.73,40.38H845.31z M1039.01,526.9h-68.6v34.71h21.79
	c-2.42,4.84-7.26,12.91-21.79,12.91c-16.14,0-29.06-13.72-29.06-31.47c0-19.37,14.53-30.67,29.06-31.48
	c16.14-0.81,22.6,5.65,27.44,10.49l33.09-31.47c-16.14-16.15-34.7-24.22-60.53-24.22c-41.01,0.48-73.87,34.11-73.39,75.12
	c0.47,40.34,33.05,72.92,73.39,73.39c42.77,0,68.6-30.67,68.6-68.61V526.9z"/>
<path class="st0" d="M529.75,315.42l-0.81-8.88l-8.07-5.65c-33.9-23.4-98.46-50.84-213.87-50.84c-43.59,0-83.13,4-117.84,12.1
	c-28.88-25.06-72.6-21.96-97.66,6.92c-10.96,12.63-16.98,28.81-16.94,45.54c0.07,11.87,3.12,23.52,8.88,33.9
	c1.61,59.72,20.17,121.87,56.49,184.82c59.74,100.88,123.48,130.75,154.15,144.47c1.94,0.66,3.83,1.47,5.65,2.42l8.07,4l8.07-4
	c1.62-0.81,4-1.61,5.65-2.42c31.48-13.72,94.43-43.59,152.54-144.47C537.82,422.73,532.17,342.05,529.75,315.42z"/>
<radialGradient id="SVGID_1_" cx="429.0668" cy="14.9534" r="57.92" gradientTransform="matrix(6.66 0 0 -6.66 -2713.771 414.5035)" gradientUnits="userSpaceOnUse">
	<stop  offset="0" style="stop-color:#00AEFF"/>
	<stop  offset="0.13" style="stop-color:#00A5F7"/>
	<stop  offset="0.34" style="stop-color:#008DE0"/>
	<stop  offset="0.62" style="stop-color:#0065BA"/>
	<stop  offset="0.93" style="stop-color:#002F87"/>
	<stop  offset="1" style="stop-color:#00217A"/>
</radialGradient>
<path class="st1" d="M289.24,402.59c0,0,10.49,0.8,19.37,12.1l-4.84,0.81l-2.42-0.81C301.35,414.69,294.08,405.81,289.24,402.59
	L289.24,402.59z M273.1,452.59l-4.84-12.1h-1.59l-8.07,9.68c5.65,4.84,14.53,2.42,14.53,2.42H273.1z M347.35,381.59l-4,1.61
	l4.85,8.88l16.1,5.65C357.84,384.01,347.35,381.59,347.35,381.59z M301.35,398.54c3.54,4.34,6.78,8.93,9.68,13.72
	c8.07-8.07,25-11.3,46.81-10.49c-18.56-3.89-37.6-4.97-56.49-3.22V398.54z M271.48,386.43c7.06,0.18,14.09,0.99,21,2.43
	c-8.07-5.65-21-8.88-21-8.88V386.43z M345.74,430.82l-13.73,12.11l10.5,3.23l10.49-11.3l-5.65-2.42L345.74,430.82z M254.54,367.06
	c0,0,5.65,3.23,6.45,3.23c0.8,0,12.11,4,17,5.65c4,1.62,6.46,0,7.26,0s14.53-8.07,14.53-8.07c-12.1-4.84-23.4-8.07-23.4-8.07
	C275.52,359.81,254.54,367.07,254.54,367.06L254.54,367.06z M336.86,374.33c-0.81-1.62-2.42-1.62-12.11-3.23
	c-8.88-0.81-16.95-1.61-18.56-1.61c-0.88-0.04-1.74,0.24-2.42,0.8c0,0-4.84,3.23-8.88,5.65s-4.84,3.23-5.65,4.85
	c-0.81,0.8,1.61,4,1.61,4l6.46,8.07c0.81,0,3.23,1.62,3.23,1.62s12.91-0.81,21-1.62h21c0.8,0,0-3.23-1.62-7.26
	c-1.55-3.69-2.88-7.46-4-11.3L336.86,374.33z M260.19,383.21c0.85,0.1,1.68,0.37,2.42,0.8c1.61,0,2.42-1.61,2.42-3.22
	c-0.07-1.47-1.03-2.75-2.42-3.23h-1.62l-2.42,0.81l-0.81,5.65h0.81L260.19,383.21c-0.65-1.23-0.93-2.62-0.81-4
	c0.35-1.16,1.26-2.07,2.42-2.42c0,0,1.61,0,0.81,3.23c0,3.23-2.42,3.23-2.42,3.23V383.21z M396.58,446.96l-6.46,8.88v0.81H399
	c0.9-3.43-0.01-7.08-2.42-9.68V446.96z M235.17,404.96h-1.62l-4-0.81c-4-0.81-2.42-8.07-2.42-8.07l-4.88,1.65
	c-1.61-3.23-8.87-12.11-8.87-12.11l-1.62,6.46c2.07,2.84,3.95,5.81,5.65,8.88l-2.42,2.42c-0.4,0.76-0.67,1.58-0.81,2.42
	c-0.08,0.61-0.36,1.18-0.8,1.62l-3.23,1.61h-0.81l-11.3-8.88v6.46h0.81c1.24,2.9,3.55,5.22,6.45,6.46c3.23,1.61,7.27,1.61,8.88,0.8
	c1.62,0.81,2.42,0.81,3.23,1.62c3.23,1.61,4,0.81,4,0.81l4.84-1.62h0.81l0.8-0.81l1.62-3.22c0,0,8.07,0.8,11.3,0.8
	c3.22-4.84,13.72-12.1,21-12.91c7.26,0,19.37,1.61,29.05,11.3c8.88,9.68,6.46,22.6,6.46,22.6l17.76,5.65l-8.07-5.65
	c-6.46-16.14-21.8-30.67-21.8-30.67c-2.13-0.43-4.28-0.7-6.45-0.81c-1.49-0.52-2.85-1.35-4-2.42c-0.89-1.01-1.7-2.09-2.42-3.23
	l-1.64-3.22c-1.24-1.19-2.58-2.27-4-3.23c-2.42-1.61-11.3-2.42-16.14-3.22s-4.84,0-4.84,0c13.72,3.22,17.75,4,18.56,4.84
	c0.44,0.87,0.98,1.68,1.62,2.42c-11.3-2.42-21.8-0.81-24.22,0c1.62,2.45,1.62,5.62,0,8.07c-1.61,1.61-6.45,4-6.45,4L235.17,404.96z
	 M388.51,463.07l2.42,10.49c1.73-1.78,3.35-3.67,4.84-5.65c1.46-1.94,2.55-4.13,3.23-6.46l-9.68,0.81L388.51,463.07z M194.01,389.62
	l-0.81,8.88h4.84l0.81-5.65v3.23h0.82v-4.84h-0.81v-3.23l7.26,4l0.81,1.62l1.61,1.61h1.62l0.8-0.81v-0.7
	c-4.84,0-4.84-2.42-4.84-2.42s0.81-5.65,1.62-7.26s4-0.81,4-0.81l-0.81-0.81h-1.61c-1.61-0.81-6.46-4-8.07-4.84v-0.86l0.81-0.81
	v-3.19h0.8c0-0.8,0.81-0.8,0.81-1.61c1.62,0,13.72-2.42,13.72-2.42l-11.3-2.42v-0.81c-2.5-0.56-4.93-1.37-7.26-2.42
	c-2.61,3.36-4.53,7.2-5.65,11.3c0,0-0.81,11.3-0.81,12.91c-0.81,1.62,1.62,2.42,1.62,2.42L194.01,389.62z M383.67,453.43l1.61,2.42
	l0.81-0.81l6.46-8.07v-0.8C389.32,446.17,383.67,453.43,383.67,453.43L383.67,453.43z M364.3,438.9l-4.84-1.61l-11.3,12.91
	l8.07,2.42C357.84,446.17,364.3,438.9,364.3,438.9L364.3,438.9z M381.25,457.47c-4,8.07-3.23,13.72-3.23,13.72l4-8.88v-1.58
	c0.81,0,0-1.61-0.8-3.22L381.25,457.47z M377.25,405.01c-0.68,1.4-1.49,2.74-2.42,4c-0.81,0.81-6.46,1.62-9.69,2.42
	c-3.22,1.62-8.87,4-10.49,5.65c-0.8,0.81-0.8,3.23-0.8,4c0.76,0.4,1.58,0.67,2.42,0.81l-7.27,6.45l1.62,1.62l17.71,5.77
	c2.88-2.07,6.19-3.44,9.69-4c-3.23-1.61-17-7.26-21-8.88c0,0-2.42-0.8-2.42-1.61v-2.51c7.86-5.33,17.15-8.14,26.64-8.07l2.42-4.85
	L377.25,405.01z M387.74,476.01l-3.23-9.69h-0.84l-4.84,8.88l0.8,0.81c2.61,0.93,5.46,0.93,8.07,0H387.74z M265.88,384.01l2.42,0.81
	c0.87,0.02,1.59-0.68,1.61-1.55c0-0.02,0-0.04,0-0.06v-3.23l-2.42-1.61l-3.23-0.81c0.46,0.42,0.75,0.99,0.81,1.61h0.81
	c0-0.81,0.8-0.81,0.8,0c0,0,1.62,0.81,0.81,3.23C268.3,383.21,266.68,384.01,265.88,384.01z M258.61,428.4
	c-5.65,10.49-1.61,17.76-1.61,17.76l7.22-10.43v-1.62L258.61,428.4z M206.15,366.26l9.69,2.42c0.8,0,6.45-0.81,6.45-0.81l-15.33-4
	L206.15,366.26z M211.8,363.83c12.91,1.62,15.34,4,15.34,4c2.4-0.41,4.83-0.68,7.26-0.81c-4-3.23-21.79-8.88-21.79-8.88
	c-0.54,1.83-0.82,3.74-0.81,5.65V363.83z M231.17,388.83c-2.42,1.62-4.84,6.46-4,10.5s1.61,4,4,4c-4-1.61-3.23-8.07,0-12.1
	c2.42-3.23,4.84-0.81,4.84-0.81s-2.42-3.23-4.84-1.62V388.83z M173.87,508.28c-10.49,0-22.6,4-15.34,15.34
	c59.69,102.52,122.64,126.74,149.27,139.65c12.11-5.65,31.48-14.53,54.88-30.67c13.72-8.88,12.11-22.6,8.88-31.48
	c-16.95-42-109.76-89.58-197.73-92.81L173.87,508.28z M510.38,317.03c-24.21-16.94-83.94-47.61-202.58-47.61
	c-41.16,0-75.86,4-103.3,9.68c6.47,10.7,9.83,23,9.68,35.51c0.07,16.87-5.94,33.21-16.95,46c3.18,0.99,6.42,1.8,9.69,2.42l1.61-4
	c0.87,0,1.72,0.28,2.42,0.81c0-4,2.43-4,2.43-4c-0.01-0.44,0.33-0.8,0.77-0.81c0.01,0,0.02,0,0.03,0c4,0.81,15.34,6.45,20.18,8.88
	s4.84,3.22,4.84,3.22s11.3,0,14.53-0.8c3.23,0,8.88-2.43,16.95-4.85c8.07-2.42,9.68-3.23,11.3-3.23s16.14,0.81,29.05,2.43
	s25,6.45,27.44,8.07l4,0.81l0.8-2.43l-6.45-2.42c0,0,0.8-4,0.8-4.84c0.06-0.87,0.75-1.56,1.62-1.61c3.54,0.59,7.05,1.4,10.49,2.42
	c2.42,0.8,10.49,6.45,11.3,6.45c0.44-0.01,0.8,0.33,0.81,0.77c0,0.01,0,0.03,0,0.04c0,1.62-1.62,4.84-1.62,4.84l-2.42-0.8l2.42,0.8
	c1.16,0.37,2.25,0.91,3.23,1.62c0.81,0.81,3.23,2.42,5.65,4.84c1.37,0.83,2.02,2.46,1.61,4l5.65,5.65v2.42l13.72,13.72v0.81l-6.45,4
	c0,0,8.88-0.81,15.33,2.42s7.27,4.85,7.27,6.46c-1.3,0.61-2.64,1.15-4,1.61c-4.84,1.62-16.95,9.69-16.95,9.69v0.81l6.46,1.61
	c7.26-6.46,20.18-8.88,29.86-7.26c33.09,6.45,55.69,28.24,60.53,46.81c0,0.81,0.81,2.42,0.81,3.23
	C516.03,397.74,512.8,342.05,510.38,317.03L510.38,317.03z M394.16,434.87c0.81,0.81,1.61,0.81,2.42,1.61
	c4.84,3.23,7.26,4.84,8.07,12.11c0.81,5.65-0.81,13.72-4.84,21c22.6,15.33,54.07,3.23,66.18,15.33c-2.42-30.66-47.62-61.33-71.83-50
	V434.87z M208.53,395.32l-1.61,0.81v6.46l1.61-0.81V395.32z M441.78,495.4c-16.95,0-33.9-5.65-46-20.18v0.81
	c-7.27,9.7-15.34,9.7-18.57,9.7s-13.72-4.84-17.75-9.68s-4-13.72-4-13.72l-16.14-5.65l-20.18-11.3l-3.23-0.81
	c-6.45,3.23-14.52,0.81-21.79-4.84c-0.8,3.23-4.84,11.3-9.68,15.33s-14.57,9.67-21.83,9.67c-7.26,0-23.41-8.07-28.25-19.37
	s0-23.41,0-23.41l-8.07-1.61l-3.23-4c0,0-9.68,8.07-20.18,4.84s-19.37-12.11-21.79-20.18c-1.61-8.07,0.81-15.33,1.62-16.14
	c-0.91-2.88-1.45-5.86-1.62-8.88h-0.8v-2.45c-10.5,7.26-22.6,10.49-35.52,10.49c-14.52,0-28.24-4.84-39.54-12.1
	c1.61,17.75,6.45,38.73,12.91,62.14c8.88,32.28,37.93,42.77,81.52,50c96,15.33,188,88.78,181.59,134c24.21-20.17,50-50,75.86-94.43
	c10.49-16.94,0.81-28.24-15.33-28.24L441.78,495.4z M185.13,384.02l-0.81,8.88h5.65v-0.81h-0.81v-0.81h-0.8l0.8-1.61l0.81-4
	l-0.81-0.8v-1.62l0.81-0.81l0.81-9.68l-4-2.42c1.21-4.32,3.12-8.41,5.65-12.11h-2.46c-2.61,3.36-4.53,7.2-5.65,11.3
	c0,0-0.81,10.49-0.81,12.11c0,2.42,1.62,2.42,1.62,2.42V384.02z M273.91,438.1l4,12.91c4.9-3.5,8.37-8.67,9.76-14.53l-12.92,0.81
	L273.91,438.1z M281.17,417.92l-6.5,11.3l0.81,0.81l12.91,0.8c-0.04-5.26-2.78-10.14-7.26-12.91L281.17,417.92z M200.46,392.92
	l-0.79,4.81h0.8L200.46,392.92z M261.8,423.59l6.46,4.84l1.61-0.81l7.26-11.3C268.26,415.51,261.8,423.59,261.8,423.59z
	 M202.08,393.73l-0.81-0.81v5.65h0.81V393.73z M204.5,395.34l-0.81,5.65h0.81V395.34z M206.11,396.15l-0.81,5.65h0.81V396.15z
	 M202.88,394.53l-0.8,5.65h0.8V394.53z"/>
<path class="st2" d="M510.38,317.04c2.42,29.86,6.45,103.3-53.27,206.61C398.19,626.14,334.44,650.36,307.8,663.27v-15.34
	c49.23-26.63,92-69.4,125.91-137.2c39.54-78.28,44.38-142,41.16-174.32L510.38,317.04z"/>
<linearGradient id="SVGID_00000129190654336467745080000004116364921446109585_" gradientUnits="userSpaceOnUse" x1="438.2468" y1="16.7534" x2="484.2668" y2="16.7534" gradientTransform="matrix(6.66 0 0 -6.66 -2713.771 414.5035)">
	<stop  offset="0" style="stop-color:#FFFFFF"/>
	<stop  offset="1" style="stop-color:#FFFFFF;stop-opacity:0"/>
</linearGradient>
<path style="opacity:0.4;fill:url(#SVGID_00000129190654336467745080000004116364921446109585_);enable-background:new    ;" d="
	M510.38,317.04c-24.21-16.95-83.94-47.62-202.58-47.62c-41.16,0-75.86,4-103.3,9.68c5.72,9.25,9.05,19.77,9.68,30.63
	c32.73-6.07,65.99-8.75,99.27-8c75.87,0.81,137.2,17.76,162.22,34.71l34.71-19.37"/>
<radialGradient id="SVGID_00000108271105757729870110000017188910016030187444_" cx="427.2586" cy="17.8027" r="10.04" gradientTransform="matrix(6.6613 -3.691972e-03 -3.691972e-03 -6.6613 -2711.6633 416.5303)" gradientUnits="userSpaceOnUse">
	<stop  offset="0" style="stop-color:#FFFFFF"/>
	<stop  offset="0.68" style="stop-color:#7A7A7A"/>
	<stop  offset="1" style="stop-color:#404040"/>
</radialGradient>
<circle style="fill:url(#SVGID_00000108271105757729870110000017188910016030187444_);" cx="144.79" cy="314.6" r="50.04"/>
<rect x="45.45" y="219.17" class="st5" width="1270.44" height="491.11"/>
</svg>
