<?xml version="1.0" encoding="utf-8"?>
<!-- Generator: Adobe Illustrator 26.0.3, SVG Export Plug-In . SVG Version: 6.00 Build 0)  -->
<svg version="1.0" id="katman_1" xmlns="http://www.w3.org/2000/svg" xmlns:xlink="http://www.w3.org/1999/xlink" x="0px" y="0px"
	 viewBox="0 0 779.1 565.2" style="enable-background:new 0 0 779.1 565.2;" xml:space="preserve">
<style type="text/css">
	.st0{fill:#fefefe;}
</style>
<path class="st0" d="M350.1,162.2c14.2-10.8,31.6-16.7,49.5-16.7c17.9,0,35.3,5.9,49.5,16.7l20.1-24.9
	c-19.9-15.5-44.5-23.9-69.7-23.9c-25.3,0-49.8,8.4-69.7,23.9L350.1,162.2z"/>
<path class="st0" d="M475.5,142.5l-20,25.2c13.1,12.2,21.6,28.5,24.3,46.2c2.6,17.7-0.9,35.8-9.9,51.2l-44.4-42.7l-20.7-46.6v70.9
	l43.6,42.2c-14.1,10.5-31.2,16.2-48.8,16.2c-17.6,0-34.7-5.7-48.8-16.2l43.9-42.2v-70.9l-20.7,46.6l-44.4,42.4
	c-9-15.4-12.5-33.4-10-51c2.5-17.6,11-33.9,24-46.1l-20-25.2c-11.6,10.4-20.8,23.1-27.2,37.4s-9.6,29.6-9.6,45.2
	c0.8,29.3,13.1,57.2,34.1,77.6c21,20.4,49.2,31.9,78.6,31.9c29.3,0,57.5-11.4,78.6-31.9c21-20.4,33.3-48.3,34.1-77.6
	c0-15.6-3.3-31-9.6-45.2C496.4,165.6,487.1,152.9,475.5,142.5L475.5,142.5z"/>
<path class="st0" d="M201.6,351.6l13,18.5h-26L201.6,351.6z"/>
<path class="st0" d="M426.2,370.6l-10.4,24.5l-10.7-24.5h-11.3l-10.7,24.2l-10.2-24.2h-17.1l21.2,48.2h10.8l10.8-24.2l10.7,24.2
	h11.5l21.1-48.2H426.2z"/>
<path class="st0" d="M665.2,370.6v17h-29.6v-17h-16.4v48.2h16.4v-18.7h29.6v18.7h16.3v-48.2H665.2z"/>
<path class="st0" d="M461.5,370.6l-32.4,48.2h17.9l20.1-31.1l19.9,31.1h18.5l-31.5-48.2H461.5z"/>
<path class="st0" d="M237.4,370.6h-18.2L200.9,400l-18.1-29.4h-18.6l30.4,48.2h11.2L237.4,370.6z"/>
<path class="st0" d="M492.7,370.6v12.7h21v35.5h16.5v-35.5h16.5l8.4-12.7H492.7z"/>
<path class="st0" d="M157.1,371.5c-1.8-0.5-3.8-0.8-5.7-0.7h-36c-8.3,0-13.5,4.2-13.5,10.9v26.3c-0.1,1.9,0.4,3.9,1.5,5.5
	c1,1.7,2.5,3,4.2,3.8h0.7l10.1-10.2v-23.8H149v22.8h-22.6l-12.7,12.7h38.1c8,0,13.6-4.5,13.6-10.9v-25l-7.6-11.4L157.1,371.5z"/>
<path class="st0" d="M598.7,370.6h-32.8h-2.6h-0.5l-1.4,2.1l-9.3,13.7v21.2c0,6.4,5.6,10.9,13.5,10.9h32.9c1.6,0.2,3.2,0.1,4.8-0.4
	c1.6-0.4,3-1.2,4.3-2.2c1.3-1,2.3-2.3,3.1-3.7c0.8-1.4,1.3-3,1.4-4.6v-8.3h-16.7v6.5h-26.7v-22.6h26.7v5.6H612v-7.3
	C612.3,375,607,370.6,598.7,370.6z"/>
<path class="st0" d="M236.5,382.7v36.2h51v-12.7h-34.6v-6.1h23.4V389h-23.4v-5.7h34.6v-12.7h-42.6L236.5,382.7z"/>
<path class="st0" d="M340.7,400.9c5.9,0,12.2-3.1,12.2-8.8v-11.6c0-6.1-4.8-9.9-12.4-9.9h-45.7v48.1h16.4V383H337c0,0,0,0,0,0.5v7.3
	c-0.3,0.1-0.6,0.1-0.9,0h-17.4v9.3l20.2,18.1h22.5L340.7,400.9z"/>
<path class="st0" d="M467.3,437.2l-13-18.4h25.9L467.3,437.2z"/>
</svg>
